<!DOCTYPE svg PUBLIC "-//W3C//DTD SVG 20010904//EN" "http://www.w3.org/TR/2001/REC-SVG-20010904/DTD/svg10.dtd">
<svg version="1.0" xmlns="http://www.w3.org/2000/svg" width="1366px" height="768px" viewBox="0 0 13660 7680" preserveAspectRatio="xMidYMid meet">
<g id="layer1" fill="#414042" stroke="none">
 <path d="M2640 6691 c0 -96 3 -120 15 -125 12 -4 15 -27 15 -115 0 -69 4 -111 11 -113 6 -2 12 -20 14 -40 4 -43 -6 -48 -107 -48 -41 0 -68 -4 -70 -12 -2 -6 -30 -13 -61 -16 -31 -2 -57 -8 -57 -13 0 -5 -25 -9 -55 -9 -39 0 -54 -4 -53 -12 2 -9 -13 -14 -44 -16 -36 -2 -46 -6 -41 -18 4 -11 -4 -14 -36 -14 -30 0 -41 -4 -41 -15 0 -8 -7 -15 -15 -15 -11 0 -15 11 -15 39 0 25 -5 41 -15 45 -8 3 -15 17 -15 31 0 16 -6 25 -15 25 -11 0 -15 11 -15 40 0 27 -5 43 -15 46 -9 4 -15 19 -15 35 0 19 -5 29 -15 29 -9 0 -15 10 -15 26 0 14 -7 32 -15 40 -8 9 -15 29 -15 45 0 16 -4 29 -10 29 -5 0 -10 12 -10 28 0 39 -16 60 -32 44 -6 -6 -29 -12 -50 -12 -27 0 -38 -4 -38 -15 0 -10 -11 -15 -35 -15 -22 0 -34 -4 -32 -12 1 -7 -12 -15 -31 -18 -18 -3 -32 -9 -32 -15 0 -5 -10 -12 -22 -13 -13 -2 -27 -10 -31 -18 -4 -8 -17 -14 -27 -14 -11 0 -20 -4 -20 -10 0 -5 -12 -13 -27 -16 -16 -4 -30 -10 -33 -13 -13 -16 -61 -41 -80 -41 -11 0 -19 -6 -17 -12 1 -7 -8 -14 -20 -16 -13 -2 -23 -10 -23 -18 0 -8 -10 -14 -26 -14 -15 0 -23 -4 -19 -11 4 -6 -2 -13 -13 -16 -11 -3 -23 -11 -26 -19 -3 -8 -15 -14 -26 -14 -12 0 -19 -4 -15 -9 3 -5 -3 -12 -14 -16 -11 -3 -22 -12 -25 -20 -3 -8 -12 -15 -21 -15 -10 0 -15 -10 -15 -30 0 -21 4 -28 14 -24 9 3 16 -4 20 -21 4 -15 18 -37 31 -49 14 -13 25 -28 25 -35 0 -6 6 -11 14 -11 8 0 17 -11 20 -25 4 -14 11 -25 16 -25 6 0 10 -7 10 -15 0 -8 7 -15 15 -15 8 0 15 -7 15 -15 0 -8 5 -15 10 -15 6 0 10 -6 10 -13 0 -7 9 -23 20 -35 11 -12 20 -24 20 -28 0 -3 11 -15 25 -26 14 -11 25 -25 25 -33 0 -7 7 -15 15 -19 13 -5 13 -8 -2 -26 -10 -11 -23 -20 -30 -20 -7 0 -13 -7 -13 -15 0 -8 -4 -15 -10 -15 -5 0 -23 -12 -39 -27 -47 -44 -59 -53 -71 -53 -5 0 -10 -7 -10 -15 0 -8 -7 -15 -15 -15 -8 0 -15 -7 -15 -15 0 -8 -7 -15 -15 -15 -8 0 -15 -7 -15 -15 0 -8 -7 -15 -15 -15 -8 0 -15 -7 -15 -15 0 -8 -7 -15 -15 -15 -8 0 -15 -5 -15 -11 0 -7 -15 -27 -34 -45 -19 -18 -31 -35 -28 -38 2 -3 -3 -8 -12 -12 -9 -3 -16 -12 -16 -20 0 -8 -7 -14 -15 -14 -8 0 -14 -5 -13 -11 2 -6 -3 -14 -9 -16 -7 -3 -13 2 -13 10 0 8 -9 17 -21 20 -12 3 -18 10 -14 16 3 7 -2 11 -14 11 -12 0 -21 6 -21 13 0 12 -24 28 -63 43 -9 3 -17 10 -17 15 0 5 -7 9 -15 9 -8 0 -15 6 -15 14 0 7 -9 16 -21 19 -12 3 -18 10 -14 16 3 7 -2 11 -14 11 -12 0 -21 7 -21 15 0 8 -9 15 -20 15 -11 0 -20 7 -20 15 0 8 -9 15 -20 15 -11 0 -20 7 -20 15 0 8 -5 15 -11 15 -6 0 -17 7 -25 15 -9 8 -25 15 -37 15 -22 0 -57 -31 -57 -50 0 -6 -7 -10 -15 -10 -8 0 -15 -7 -15 -15 0 -8 -7 -15 -15 -15 -9 0 -15 -9 -15 -25 0 -14 -7 -28 -15 -31 -8 -4 -15 -12 -15 -20 0 -8 -7 -14 -15 -14 -9 0 -15 -9 -15 -25 0 -16 -6 -25 -16 -25 -8 0 -13 -4 -10 -8 3 -5 -4 -16 -15 -25 -10 -9 -19 -26 -19 -37 0 -11 -4 -20 -9 -20 -5 0 -12 -13 -16 -30 -4 -16 -11 -30 -16 -30 -5 0 -9 -7 -9 -15 0 -9 -7 -18 -15 -21 -8 -4 -15 -15 -15 -25 0 -10 -7 -19 -15 -19 -10 0 -15 -10 -15 -30 0 -20 -5 -30 -15 -30 -10 0 -15 -10 -15 -30 0 -20 -5 -30 -15 -30 -11 0 -15 -11 -15 -41 0 -33 -3 -40 -16 -35 -12 5 -15 -1 -12 -27 2 -27 8 -33 31 -35 15 -2 27 -9 27 -18 0 -9 11 -14 36 -14 28 0 35 -3 30 -15 -4 -12 3 -15 29 -15 18 0 36 -4 40 -9 3 -5 19 -12 35 -16 17 -4 30 -11 30 -16 0 -5 14 -9 30 -9 18 0 33 -6 36 -15 4 -8 19 -15 35 -15 15 0 32 -6 36 -14 4 -8 22 -16 38 -18 17 -2 29 -8 27 -15 -1 -7 7 -13 17 -13 15 0 18 -5 14 -22 -3 -13 -11 -27 -18 -33 -6 -5 -15 -27 -19 -48 -4 -21 -11 -35 -16 -32 -5 3 -10 -16 -12 -42 -2 -32 -7 -47 -15 -45 -9 1 -13 -12 -13 -43 0 -25 -4 -45 -10 -45 -5 0 -10 -25 -10 -55 0 -40 -4 -57 -15 -61 -11 -5 -15 -23 -15 -75 l0 -69 -95 0 c-72 0 -96 3 -102 15 -6 11 -33 15 -108 17 -74 2 -99 6 -98 16 2 9 -18 12 -77 12 l-80 0 0 -415 0 -415 106 0 c80 0 109 4 120 15 12 11 40 15 119 15 66 0 105 4 107 11 2 6 24 13 49 16 45 5 46 5 53 -27 3 -18 6 -59 6 -90 0 -36 5 -60 12 -62 7 -3 14 -32 16 -71 2 -37 8 -67 13 -67 5 0 9 -20 9 -45 0 -31 4 -44 13 -42 8 1 14 -15 17 -46 3 -26 10 -47 15 -47 6 0 11 -15 13 -35 2 -22 8 -35 18 -35 8 0 14 -7 14 -15 0 -10 -11 -15 -35 -15 -22 0 -34 -4 -32 -12 1 -8 -13 -15 -36 -18 -21 -3 -36 -9 -35 -15 2 -5 -13 -11 -32 -13 -19 -2 -39 -10 -43 -18 -4 -8 -21 -14 -36 -14 -16 0 -31 -7 -35 -15 -3 -8 -17 -15 -31 -15 -15 0 -33 -7 -41 -15 -9 -8 -26 -15 -40 -15 -13 0 -24 -4 -24 -10 0 -5 -15 -10 -34 -10 -19 0 -37 -4 -40 -9 -11 -17 6 -111 20 -111 10 0 14 -13 14 -40 0 -29 4 -40 15 -40 10 0 15 -10 15 -30 0 -20 5 -30 15 -30 10 0 15 -10 15 -30 0 -20 5 -30 15 -30 9 0 15 -10 15 -26 0 -15 4 -23 11 -19 6 4 13 -2 16 -14 3 -12 9 -21 13 -21 5 0 11 -14 15 -30 4 -16 11 -30 16 -30 5 0 9 -9 9 -20 0 -11 9 -28 19 -37 11 -9 18 -20 15 -25 -3 -4 2 -8 10 -8 10 0 16 -9 16 -25 0 -16 6 -25 15 -25 8 0 15 -6 15 -14 0 -8 7 -16 15 -20 8 -3 15 -17 15 -31 0 -16 6 -25 15 -25 8 0 15 -7 15 -15 0 -8 7 -15 15 -15 8 0 15 -7 15 -15 0 -9 9 -15 25 -15 16 0 25 6 25 15 0 8 9 15 20 15 11 0 20 7 20 15 0 8 9 15 20 15 11 0 20 7 20 15 0 8 9 15 21 15 11 0 17 5 14 10 -3 6 2 13 12 17 21 8 37 20 61 46 9 9 22 17 29 17 7 0 13 5 13 10 0 6 9 10 20 10 11 0 19 6 17 12 -1 7 8 14 20 16 13 2 23 10 23 18 0 8 7 14 15 14 8 0 15 7 15 15 0 8 9 15 20 15 11 0 20 7 20 15 0 8 7 15 15 15 8 0 15 -7 15 -15 0 -8 5 -15 10 -15 6 0 10 -7 10 -15 0 -8 7 -15 15 -15 8 0 15 -6 15 -14 0 -8 7 -17 16 -20 8 -3 12 -10 9 -16 -3 -5 0 -10 8 -10 7 0 20 -11 27 -25 7 -14 17 -25 22 -25 4 0 8 -7 8 -15 0 -8 7 -15 15 -15 8 0 15 -7 15 -15 0 -8 7 -15 15 -15 8 0 15 -7 15 -15 0 -8 7 -15 15 -15 8 0 15 -7 15 -15 0 -8 7 -15 15 -15 8 0 15 -7 15 -15 0 -8 5 -15 10 -15 12 0 24 -9 71 -53 16 -15 34 -27 39 -27 6 0 10 -7 10 -15 0 -8 8 -15 18 -15 15 -1 15 -2 1 -13 -8 -7 -18 -20 -22 -30 -4 -11 -12 -15 -19 -11 -7 5 -9 2 -6 -8 6 -15 -23 -48 -42 -48 -6 0 -10 -7 -10 -15 0 -8 -4 -15 -10 -15 -5 0 -10 -3 -9 -7 3 -19 -15 -53 -27 -53 -8 0 -14 -7 -14 -15 0 -8 -7 -15 -15 -15 -8 0 -15 -7 -15 -15 0 -8 -4 -15 -10 -15 -5 0 -12 -11 -16 -25 -3 -14 -13 -25 -21 -25 -8 0 -11 -5 -8 -10 3 -6 -1 -13 -9 -16 -9 -3 -16 -12 -16 -20 0 -8 -6 -14 -14 -14 -14 0 -26 -29 -26 -67 0 -14 6 -23 15 -23 8 0 15 -4 15 -10 0 -5 6 -10 13 -10 7 0 20 -8 29 -17 26 -28 46 -43 58 -43 6 0 13 -7 16 -15 4 -8 12 -15 20 -15 7 0 17 -6 21 -14 4 -8 17 -16 28 -18 11 -2 19 -10 18 -16 -2 -7 8 -12 23 -12 19 0 25 -4 20 -15 -3 -10 1 -15 14 -15 17 0 79 -28 90 -41 3 -4 15 -9 28 -13 12 -4 22 -12 22 -17 0 -5 9 -9 20 -9 10 0 23 -6 27 -14 4 -8 19 -16 33 -18 14 -1 24 -7 22 -13 -1 -5 12 -12 30 -15 19 -3 32 -11 31 -18 -2 -8 10 -12 32 -12 25 0 35 -4 35 -16 0 -11 8 -14 28 -12 21 2 28 9 30 31 2 15 9 27 18 27 9 0 14 11 14 30 0 21 5 30 16 30 10 0 15 8 13 23 -1 12 6 39 15 59 9 21 16 42 16 48 0 5 5 10 10 10 6 0 10 14 10 30 0 20 5 30 15 30 9 0 15 9 15 24 0 33 10 57 21 50 5 -3 9 11 9 30 0 25 4 36 15 36 8 0 14 6 12 12 -3 19 45 22 58 5 6 -9 27 -17 46 -19 18 -2 33 -7 31 -13 -1 -5 19 -12 45 -15 31 -3 47 -9 46 -17 -2 -9 13 -13 52 -13 30 0 55 -4 55 -9 0 -5 26 -11 57 -13 31 -3 59 -10 61 -16 2 -8 28 -12 67 -12 60 0 88 -11 65 -25 -5 -3 -10 -37 -10 -75 0 -73 -7 -103 -21 -94 -5 3 -9 -39 -9 -96 0 -80 -3 -102 -15 -106 -12 -5 -15 -24 -15 -85 l0 -79 415 0 415 0 0 111 c0 61 -4 108 -9 105 -14 -9 -21 32 -21 131 0 62 -4 93 -12 95 -7 3 -13 26 -14 54 -3 59 3 62 99 63 47 1 73 6 83 16 10 9 34 15 65 15 27 0 49 5 49 10 0 6 25 10 55 10 44 0 53 3 49 15 -5 12 3 15 40 15 34 0 46 4 46 15 0 11 11 15 40 15 29 0 40 4 40 15 0 8 7 15 15 15 11 0 15 -11 15 -40 0 -27 5 -43 15 -46 9 -4 15 -19 15 -35 0 -18 5 -28 13 -26 8 1 13 -13 15 -40 2 -29 8 -43 18 -43 9 0 14 -11 14 -30 0 -20 5 -30 15 -30 11 0 15 -11 15 -40 0 -29 4 -40 15 -40 10 0 15 -10 15 -30 0 -16 5 -30 10 -30 6 0 10 -12 10 -27 0 -40 16 -61 32 -45 6 6 29 12 50 12 27 0 38 4 38 15 0 10 11 15 35 15 22 0 34 4 32 12 -1 7 12 15 31 18 18 3 32 10 32 15 0 6 10 12 22 13 13 2 27 10 31 18 4 8 17 14 27 14 11 0 20 4 20 10 0 5 11 12 25 16 14 3 25 10 25 14 0 4 11 11 25 14 14 4 25 11 25 16 0 6 13 10 30 10 22 0 28 4 24 15 -5 11 1 15 20 15 15 0 25 5 23 12 -1 6 7 14 18 16 11 2 24 10 28 18 4 8 15 14 22 14 8 0 15 7 15 15 0 8 7 15 15 15 16 0 34 12 63 43 9 9 22 17 29 17 7 0 13 11 13 25 0 14 -6 25 -13 25 -6 0 -18 13 -25 28 -6 16 -21 38 -32 50 -11 12 -20 26 -20 32 0 5 -7 10 -15 10 -8 0 -15 7 -15 15 0 8 -4 15 -10 15 -5 0 -12 11 -16 25 -3 14 -12 25 -20 25 -8 0 -14 6 -14 14 0 8 -7 17 -16 20 -8 3 -13 10 -10 15 3 5 -1 12 -10 15 -8 3 -12 10 -9 16 3 5 1 10 -4 10 -6 0 -11 6 -11 13 0 8 -11 20 -25 27 -14 7 -25 22 -25 32 0 10 -7 18 -15 18 -8 0 -15 2 -15 5 0 11 36 45 48 45 7 0 10 5 7 11 -4 6 2 13 14 16 12 3 21 12 21 19 0 8 5 14 10 14 6 0 23 11 38 25 15 14 32 25 39 25 7 0 13 7 13 15 0 8 9 15 20 15 17 0 20 7 20 45 0 43 -1 45 -30 45 -20 0 -30 5 -30 15 0 8 -6 15 -14 15 -8 0 -16 7 -20 15 -3 8 -12 15 -21 15 -8 0 -15 5 -15 10 0 6 -7 10 -15 10 -9 0 -18 7 -21 15 -4 8 -13 15 -20 15 -8 0 -17 7 -20 15 -4 8 -12 15 -20 15 -8 0 -14 7 -14 15 0 8 -9 15 -20 15 -11 0 -20 7 -20 15 0 8 -9 15 -20 15 -11 0 -20 7 -20 15 0 8 -7 15 -15 15 -8 0 -15 4 -15 10 0 5 -11 12 -25 16 -14 3 -25 10 -25 15 0 5 -7 9 -15 9 -8 0 -15 6 -15 14 0 7 -9 16 -21 19 -12 3 -18 10 -15 16 4 5 -4 11 -16 13 -13 2 -22 9 -21 16 2 6 -6 12 -17 12 -11 0 -20 7 -20 15 0 8 -9 15 -20 15 -11 0 -20 7 -20 15 0 8 -9 15 -19 15 -10 0 -21 7 -25 15 -3 8 -12 15 -21 15 -8 0 -15 5 -15 10 0 19 -31 10 -54 -15 -13 -14 -31 -25 -40 -25 -9 0 -16 -7 -16 -15 0 -8 -9 -15 -20 -15 -11 0 -19 -6 -17 -12 1 -7 -8 -14 -20 -16 -13 -2 -23 -10 -23 -18 0 -8 -9 -14 -19 -14 -10 0 -21 -7 -25 -15 -3 -8 -14 -15 -25 -15 -10 0 -21 -7 -25 -15 -3 -8 -15 -15 -26 -15 -11 0 -20 -4 -20 -10 0 -5 -11 -10 -25 -10 -14 0 -28 -7 -31 -15 -4 -9 -19 -15 -40 -15 -22 0 -33 -4 -31 -12 1 -8 -13 -15 -36 -18 -21 -3 -37 -9 -37 -15 0 -5 -17 -11 -37 -13 -21 -2 -42 -10 -46 -18 -5 -9 -25 -14 -56 -14 -34 0 -51 -5 -55 -15 -4 -11 -22 -15 -75 -15 -47 0 -71 -4 -73 -12 -4 -10 -58 -13 -228 -13 -170 0 -224 3 -227 13 -3 8 -27 12 -74 12 -53 0 -71 4 -75 15 -4 10 -20 15 -50 15 -27 0 -46 5 -51 14 -4 8 -26 16 -48 18 -25 2 -39 8 -38 16 2 8 -11 12 -38 12 -32 0 -40 3 -35 15 4 11 -2 15 -25 15 -17 0 -37 7 -45 15 -9 8 -24 15 -35 15 -10 0 -19 5 -19 10 0 6 -9 10 -20 10 -11 0 -23 7 -26 15 -4 8 -15 15 -25 15 -11 0 -22 7 -25 15 -4 8 -15 15 -25 15 -10 0 -19 7 -19 15 0 9 -9 15 -25 15 -15 0 -25 6 -25 14 0 7 -9 16 -21 19 -12 3 -18 10 -14 16 3 6 -1 11 -10 11 -17 0 -26 7 -76 53 -16 15 -34 27 -39 27 -6 0 -10 7 -10 15 0 8 -7 15 -15 15 -8 0 -15 7 -15 15 0 8 -7 15 -15 15 -8 0 -15 7 -15 15 0 8 -7 15 -15 15 -8 0 -15 4 -15 10 0 5 -14 23 -30 40 -17 17 -30 37 -30 45 0 8 -7 15 -15 15 -8 0 -15 7 -15 15 0 8 -4 15 -10 15 -5 0 -10 7 -10 15 0 8 -7 15 -15 15 -9 0 -15 9 -15 25 0 14 -7 28 -15 31 -8 4 -15 12 -15 20 0 8 -4 14 -10 14 -5 0 -12 11 -16 24 -3 14 -12 27 -20 30 -8 3 -14 17 -14 31 0 14 -6 25 -14 25 -8 0 -13 11 -13 27 0 15 -6 29 -12 31 -6 2 -11 17 -11 33 0 21 -4 27 -15 23 -12 -5 -15 3 -15 40 0 34 -4 46 -15 46 -11 0 -15 11 -15 40 0 29 -4 40 -15 40 -11 0 -15 12 -15 44 0 26 -5 46 -12 48 -8 3 -14 33 -16 84 -3 44 -9 82 -16 86 -7 5 -12 72 -14 209 -3 165 -1 204 11 218 9 10 16 45 19 90 2 46 8 76 16 79 7 2 12 22 12 48 0 32 4 44 15 44 11 0 15 11 15 40 0 29 4 40 15 40 11 0 15 12 15 46 0 37 3 45 15 40 11 -4 15 2 15 23 0 16 5 31 11 33 6 2 12 16 12 31 0 16 5 27 13 27 8 0 14 11 14 25 0 14 6 28 14 31 8 3 17 16 20 30 4 13 11 24 16 24 6 0 10 5 10 10 0 6 9 19 20 30 11 11 17 26 14 35 -4 10 0 15 10 15 9 0 16 7 16 15 0 8 5 15 10 15 6 0 10 7 10 15 0 8 7 15 15 15 8 0 15 7 15 15 0 8 13 28 30 45 16 17 30 35 30 40 0 6 7 10 15 10 8 0 15 7 15 15 0 8 7 15 15 15 8 0 15 7 15 15 0 8 7 15 15 15 8 0 15 7 15 15 0 8 7 15 15 15 8 0 15 7 15 15 0 8 5 15 11 15 6 0 17 6 24 13 35 31 45 37 60 37 9 0 13 5 10 11 -4 6 2 13 14 16 12 3 21 12 21 19 0 8 10 14 25 14 14 0 24 5 23 12 -2 6 6 14 17 16 11 2 24 10 28 18 4 8 16 14 26 14 11 0 21 7 25 15 3 8 15 15 26 15 11 0 20 5 20 10 0 6 9 10 19 10 11 0 26 7 35 15 8 8 26 15 40 15 16 0 26 6 26 15 0 11 11 15 40 15 27 0 39 4 37 13 -1 7 13 13 38 15 22 2 44 10 48 18 5 8 24 14 48 14 23 0 47 7 55 15 11 10 36 15 80 15 45 0 70 5 80 15 13 12 51 15 219 15 168 0 206 -3 219 -15 10 -10 35 -15 80 -15 44 0 69 -5 80 -15 8 -8 32 -15 55 -15 24 0 43 -6 48 -14 4 -8 26 -16 48 -18 25 -2 39 -8 37 -15 -1 -9 12 -13 39 -13 32 0 40 -3 35 -15 -4 -12 2 -15 28 -15 21 0 36 -6 40 -15 3 -8 17 -15 31 -15 14 0 25 -4 25 -10 0 -5 9 -10 20 -10 11 0 23 -7 26 -15 4 -8 15 -15 25 -15 11 0 22 -7 25 -15 4 -8 15 -15 25 -15 10 0 19 -6 19 -14 0 -8 10 -16 23 -18 12 -2 21 -9 19 -16 -1 -6 7 -12 18 -12 11 0 20 -7 20 -15 0 -8 7 -15 15 -15 17 0 27 -8 75 -52 15 -16 33 -28 39 -28 6 0 11 -7 11 -15 0 -8 7 -15 15 -15 8 0 15 -7 15 -15 0 -8 7 -15 15 -15 8 0 15 -7 15 -15 0 -9 9 -15 25 -15 16 0 25 6 25 15 0 8 7 15 15 15 8 0 15 7 15 15 0 8 7 15 15 15 8 0 15 7 15 15 0 8 7 15 15 15 8 0 15 7 15 15 0 8 7 15 15 15 8 0 15 6 15 14 0 8 13 20 29 27 17 8 27 18 24 26 -3 7 2 13 11 13 9 0 16 7 16 15 0 8 7 15 15 15 8 0 15 7 15 15 0 8 7 15 15 15 8 0 15 7 15 15 0 8 7 15 15 15 8 0 15 7 15 15 0 8 6 15 13 15 7 0 21 11 31 25 10 14 25 25 32 25 8 0 11 6 8 15 -4 9 0 15 10 15 9 0 16 7 16 15 0 8 7 15 15 15 8 0 15 7 15 15 0 8 7 15 15 15 8 0 15 7 15 15 0 8 7 15 15 15 8 0 15 7 15 15 0 8 5 15 10 15 6 0 27 15 45 34 39 37 47 76 15 76 -11 0 -20 7 -20 15 0 8 -7 15 -15 15 -8 0 -15 7 -15 15 0 8 -7 15 -15 15 -8 0 -15 7 -15 15 0 8 -6 15 -13 15 -7 0 -24 11 -39 25 -15 14 -32 25 -38 25 -5 0 -10 6 -10 14 0 7 -9 16 -21 19 -12 3 -18 10 -14 16 3 6 -1 11 -9 11 -9 0 -16 5 -16 10 0 6 7 10 15 10 8 0 15 7 15 16 0 17 52 74 68 74 6 0 13 14 17 30 4 17 11 30 16 30 5 0 9 7 9 15 0 8 7 15 15 15 8 0 15 7 15 15 0 8 6 15 14 15 8 0 17 11 20 25 4 14 11 25 16 25 6 0 10 7 10 15 0 8 7 15 15 15 9 0 12 6 9 15 -4 9 0 15 10 15 9 0 16 7 16 15 0 8 7 15 15 15 8 0 17 14 21 36 5 28 2 39 -14 55 -12 10 -25 19 -29 19 -5 0 -16 8 -25 18 -29 30 -47 42 -63 42 -8 0 -15 7 -15 15 0 8 -7 15 -15 15 -7 0 -18 6 -22 14 -4 8 -17 16 -28 18 -11 2 -19 10 -17 16 1 7 -9 12 -23 12 -16 0 -25 6 -25 15 0 9 -9 15 -25 15 -14 0 -25 4 -25 10 0 5 -11 12 -25 16 -14 3 -25 10 -25 14 0 4 -11 11 -25 14 -14 4 -25 11 -25 16 0 6 -9 10 -20 10 -11 0 -23 7 -26 15 -4 8 -17 15 -30 15 -14 0 -27 7 -30 15 -4 9 -19 15 -36 15 -22 0 -29 4 -25 14 4 11 -4 16 -31 18 -23 2 -36 8 -35 16 5 22 -45 14 -58 -10 -7 -13 -12 -25 -12 -28 1 -3 -3 -4 -8 -3 -5 2 -9 -12 -9 -31 0 -22 -6 -36 -16 -40 -11 -4 -14 -13 -11 -27 3 -12 0 -22 -8 -25 -7 -3 -15 -23 -19 -45 -3 -21 -11 -39 -16 -39 -6 0 -10 -13 -10 -30 0 -20 -5 -30 -15 -30 -10 0 -15 -10 -15 -30 0 -20 -5 -30 -15 -30 -11 0 -15 -11 -15 -40 0 -29 -4 -40 -15 -40 -8 0 -15 -7 -15 -15 0 -10 -10 -15 -30 -15 -20 0 -30 5 -30 15 0 11 -11 15 -40 15 -29 0 -40 4 -40 15 0 11 -12 15 -46 15 -37 0 -45 3 -40 15 4 12 -5 15 -49 15 -30 0 -55 4 -55 9 0 5 -26 11 -57 13 -31 3 -59 10 -61 16 -2 8 -30 12 -73 12 -55 0 -69 3 -69 15 0 8 5 15 10 15 6 0 10 35 10 85 0 67 3 87 15 91 12 5 15 26 15 100 0 75 3 96 15 100 11 5 15 24 15 80 l0 74 -415 0 -415 0 0 -119z"/>
 <path d="M11604 5501 c8 -12 -18 -21 -60 -21 -19 0 -34 -4 -34 -10 0 -5 -11 -12 -25 -16 -14 -3 -25 -10 -25 -15 0 -5 -11 -9 -25 -9 -16 0 -25 -6 -25 -15 0 -8 -9 -15 -20 -15 -11 0 -20 -7 -20 -15 0 -8 -7 -15 -15 -15 -8 0 -15 -7 -15 -15 0 -8 -7 -15 -15 -15 -8 0 -15 -5 -15 -11 0 -7 -11 -22 -25 -35 -20 -19 -25 -33 -25 -74 0 -38 4 -50 15 -50 9 0 18 -7 21 -15 4 -8 18 -15 34 -15 16 0 30 7 34 15 3 8 14 15 25 15 10 0 21 7 25 15 3 8 12 15 20 15 7 0 16 7 20 15 3 8 15 15 26 15 11 0 20 5 20 10 0 6 11 10 25 10 14 0 28 7 31 15 5 12 27 15 110 15 86 0 104 -3 104 -15 0 -8 4 -15 10 -15 5 0 12 -11 16 -24 3 -14 12 -27 20 -30 9 -3 14 -20 14 -46 0 -29 4 -40 15 -40 12 0 15 -14 15 -70 0 -56 3 -70 15 -70 11 0 15 -11 14 -42 0 -24 -3 -37 -6 -30 -2 6 -11 12 -19 12 -8 0 -14 7 -14 15 0 8 -9 15 -20 15 -11 0 -20 6 -20 14 0 8 -10 16 -22 18 -13 2 -22 9 -20 16 1 7 -10 12 -28 12 -20 0 -30 5 -30 15 0 11 -12 15 -45 15 -25 0 -45 5 -45 10 0 6 -22 10 -50 10 -27 0 -50 -4 -50 -10 0 -5 -13 -10 -30 -10 -20 0 -30 -5 -30 -15 0 -8 -7 -15 -15 -15 -8 0 -15 -7 -15 -15 0 -8 -7 -15 -15 -15 -13 0 -15 -21 -15 -130 0 -109 2 -130 15 -130 9 0 15 -9 15 -24 0 -13 7 -26 15 -30 8 -3 15 -17 15 -31 0 -16 6 -25 15 -25 10 0 15 -10 15 -30 0 -20 5 -30 15 -30 8 0 15 -7 15 -15 0 -8 7 -15 15 -15 8 0 15 -7 15 -15 0 -8 5 -15 11 -15 14 0 39 -25 39 -39 0 -6 7 -11 15 -11 8 0 15 -7 15 -15 0 -8 7 -15 15 -15 9 0 18 -7 21 -15 4 -8 15 -15 25 -15 10 0 19 -7 19 -15 0 -8 9 -15 20 -15 11 0 20 -7 20 -15 0 -10 10 -15 30 -15 20 0 30 -5 30 -15 0 -10 10 -15 30 -15 17 0 30 -4 30 -10 0 -6 42 -10 105 -10 63 0 105 4 105 10 0 6 9 10 20 10 11 0 20 7 20 15 0 8 5 15 10 15 6 0 10 7 10 15 0 8 7 15 15 15 12 0 15 16 15 84 0 51 -4 86 -11 88 -5 2 -13 24 -16 48 -4 25 -12 51 -20 58 -8 9 -13 38 -13 83 0 39 -4 69 -10 69 -6 0 -10 48 -10 124 0 101 -3 125 -15 130 -11 4 -15 22 -15 76 0 56 -3 70 -15 70 -11 0 -15 11 -15 40 0 29 -4 40 -15 40 -10 0 -15 10 -15 30 0 20 -5 30 -15 30 -8 0 -15 9 -15 20 0 11 -5 20 -11 20 -5 0 -8 4 -5 9 3 5 -1 12 -10 15 -8 3 -12 10 -9 16 3 5 -1 10 -9 10 -8 0 -19 6 -23 13 -4 7 -25 21 -45 31 -21 9 -38 21 -38 26 0 6 -15 10 -34 10 -19 0 -41 7 -50 15 -16 16 -142 22 -132 6z m82 -686 c4 -8 17 -15 30 -15 15 0 24 -6 24 -15 0 -8 9 -15 20 -15 11 0 20 -7 20 -15 0 -8 7 -15 15 -15 8 0 15 -6 15 -14 0 -8 7 -17 16 -20 8 -3 12 -10 9 -16 -3 -5 -1 -10 4 -10 20 0 51 -35 51 -57 0 -14 6 -23 15 -23 10 0 15 -10 15 -29 0 -16 4 -31 8 -33 5 -1 12 -20 15 -40 l6 -38 -40 0 c-21 0 -39 5 -39 10 0 6 -9 10 -20 10 -11 0 -20 7 -20 15 0 8 -5 15 -11 15 -15 0 -79 65 -79 80 0 5 -7 10 -15 10 -8 0 -15 6 -15 14 0 8 -7 17 -16 20 -9 4 -14 9 -11 12 3 4 1 12 -6 19 -35 37 -47 58 -47 80 0 16 -6 25 -15 25 -10 0 -15 10 -15 30 0 28 2 30 40 30 27 0 43 -5 46 -15z"/>
 <path d="M6506 5095 c-3 -8 -17 -15 -31 -15 -15 0 -36 -11 -49 -25 -13 -14 -28 -25 -35 -25 -6 0 -11 -7 -11 -15 0 -8 -7 -15 -15 -15 -9 0 -15 -9 -15 -22 0 -36 -11 -68 -21 -62 -5 3 -9 -35 -9 -85 0 -74 3 -91 15 -91 11 0 15 -11 15 -41 0 -23 7 -47 15 -55 8 -9 15 -29 15 -45 0 -19 5 -29 15 -29 10 0 15 -10 15 -30 0 -20 5 -30 15 -30 8 0 15 -7 15 -15 0 -8 5 -15 10 -15 6 0 10 -6 10 -14 0 -8 14 -28 30 -44 17 -17 30 -35 30 -40 0 -5 7 -13 16 -16 8 -3 13 -10 10 -15 -3 -5 4 -11 15 -14 12 -3 18 -10 14 -16 -3 -6 1 -11 9 -11 9 0 16 -7 16 -15 0 -8 9 -15 20 -15 11 0 20 -4 20 -10 0 -5 7 -10 15 -10 9 0 18 -7 21 -15 5 -12 25 -15 90 -15 51 0 84 4 84 10 0 6 8 14 17 17 31 12 53 37 53 60 0 14 6 23 15 23 12 0 15 18 15 100 0 82 -3 100 -15 100 -8 0 -15 6 -15 14 0 7 -9 16 -21 19 -12 3 -18 10 -14 16 4 7 -8 11 -35 11 -27 0 -39 -4 -35 -11 4 -6 -2 -13 -14 -16 -15 -4 -21 -13 -21 -34 0 -19 -5 -29 -15 -29 -11 0 -15 -11 -15 -40 0 -29 -4 -40 -15 -40 -8 0 -15 7 -15 15 0 8 -7 15 -15 15 -8 0 -15 7 -15 15 0 8 -4 15 -10 15 -5 0 -12 11 -16 25 -3 14 -12 25 -20 25 -8 0 -14 9 -14 20 0 11 -4 20 -10 20 -6 0 -9 3 -9 8 5 28 -3 62 -13 60 -8 -2 -14 10 -16 30 -2 19 -9 32 -17 32 -10 0 -14 21 -17 85 -3 75 -1 85 14 85 12 0 15 5 11 16 -5 13 2 15 43 12 33 -2 48 -7 47 -15 -2 -9 10 -13 37 -13 22 0 40 -4 40 -10 0 -5 9 -10 19 -10 11 0 26 -6 33 -13 7 -7 21 -16 31 -20 9 -3 17 -10 17 -15 0 -5 14 -12 31 -16 17 -3 28 -10 24 -16 -3 -6 4 -10 18 -10 14 0 27 7 31 15 3 8 12 15 21 15 12 0 15 14 15 70 0 56 -3 70 -15 70 -9 0 -18 7 -21 15 -4 8 -15 15 -25 15 -10 0 -19 7 -19 15 0 8 -9 15 -20 15 -11 0 -20 7 -20 15 0 9 -9 15 -25 15 -14 0 -25 4 -25 9 0 5 -11 12 -25 15 -14 4 -25 11 -25 16 0 6 -18 10 -40 10 -27 0 -43 5 -46 15 -5 12 -24 15 -84 15 -60 0 -79 -3 -84 -15z"/>
 <path d="M8920 5095 c0 -8 -7 -15 -15 -15 -12 0 -15 -14 -15 -62 0 -72 -8 -110 -21 -102 -5 3 -9 -11 -9 -31 0 -20 4 -34 9 -31 16 10 21 -37 21 -200 0 -135 3 -163 15 -168 12 -4 15 -25 15 -100 0 -74 3 -95 15 -100 11 -4 15 -22 15 -76 0 -50 4 -76 15 -86 9 -9 15 -33 15 -58 0 -23 5 -47 12 -54 9 -9 -8 -12 -80 -12 -51 0 -91 -3 -90 -7 3 -8 -19 -37 -54 -75 -10 -10 -18 -22 -18 -28 0 -5 -7 -10 -15 -10 -11 0 -15 -11 -15 -40 0 -29 -4 -40 -15 -40 -8 0 -15 -7 -15 -15 0 -8 -4 -15 -10 -15 -5 0 -12 -11 -16 -25 -3 -14 -11 -25 -18 -25 -6 0 -17 -13 -24 -30 -8 -16 -20 -30 -27 -30 -7 0 -16 -13 -20 -30 -4 -16 -11 -30 -16 -30 -5 0 -9 -7 -9 -15 0 -8 -6 -15 -14 -15 -8 0 -17 -11 -20 -25 -4 -14 -11 -25 -16 -25 -6 0 -10 -5 -10 -11 0 -7 -11 -22 -25 -35 -13 -12 -27 -34 -31 -48 -3 -14 -10 -26 -15 -26 -5 0 -9 -7 -9 -15 0 -8 -5 -15 -11 -15 -5 0 -7 -4 -4 -10 3 -5 1 -10 -4 -10 -6 0 -11 -9 -11 -20 0 -11 -7 -20 -15 -20 -9 0 -15 -9 -15 -25 0 -16 -6 -25 -15 -25 -8 0 -15 -7 -15 -15 0 -8 -7 -15 -15 -15 -10 0 -15 -10 -15 -30 0 -20 -5 -30 -15 -30 -9 0 -15 -10 -15 -26 0 -14 -7 -32 -15 -40 -13 -14 -15 -13 -15 10 0 16 -6 26 -15 26 -12 0 -15 14 -15 70 0 40 -4 70 -10 70 -6 0 -10 38 -10 95 0 76 -3 97 -15 101 -12 5 -15 25 -15 95 0 66 -3 88 -12 86 -10 -1 -14 33 -16 141 -2 117 -5 142 -17 142 -10 0 -15 10 -15 30 0 20 -5 30 -15 30 -8 0 -15 7 -15 15 0 8 -9 15 -20 15 -11 0 -20 7 -20 15 0 12 -14 15 -65 15 -51 0 -65 -3 -65 -15 0 -8 -9 -15 -21 -15 -11 0 -17 -5 -14 -10 3 -6 -1 -13 -9 -16 -11 -4 -16 -19 -16 -50 0 -24 -4 -44 -10 -44 -5 0 -10 -25 -10 -55 0 -30 5 -55 10 -55 6 0 10 -28 10 -65 0 -49 4 -67 15 -71 11 -5 15 -21 15 -60 0 -39 4 -56 15 -60 11 -4 15 -21 15 -59 0 -38 4 -55 15 -59 11 -4 15 -22 15 -71 0 -51 3 -65 15 -65 12 0 15 -14 15 -67 1 -44 6 -75 15 -87 10 -13 15 -44 15 -93 0 -58 3 -73 15 -73 12 0 15 -16 15 -85 0 -50 4 -85 10 -85 6 0 10 -44 10 -111 0 -102 2 -111 20 -116 11 -3 20 -12 20 -19 0 -8 7 -14 15 -14 8 0 15 -4 15 -10 0 -15 143 -12 174 3 14 8 23 17 19 20 -3 4 2 9 11 13 10 4 16 17 16 35 0 19 5 29 15 29 12 0 15 13 15 56 0 48 2 55 16 50 14 -5 16 -1 11 29 -4 25 -2 35 7 35 8 0 16 17 19 42 3 24 11 44 16 46 6 2 11 12 11 23 0 11 7 22 15 25 9 4 15 19 15 35 0 18 5 29 14 29 8 0 17 11 20 25 4 14 11 23 16 20 6 -3 10 5 10 18 0 14 7 27 15 31 8 3 15 15 15 26 0 11 7 20 15 20 9 0 12 6 9 15 -4 9 0 15 10 15 10 0 16 9 16 25 0 14 6 28 14 31 8 3 17 16 20 30 4 13 11 24 16 24 6 0 10 5 10 10 0 6 9 19 20 30 11 11 20 27 20 36 0 8 5 12 10 9 6 -3 10 1 10 11 0 9 11 27 24 39 13 12 27 32 31 45 9 28 29 50 44 50 6 0 11 7 11 15 0 8 7 15 15 15 11 0 15 -13 15 -54 0 -39 4 -55 15 -60 11 -4 15 -22 15 -76 0 -39 4 -69 9 -66 13 8 21 -30 21 -100 0 -46 4 -63 15 -68 12 -4 15 -23 15 -83 1 -53 5 -84 15 -97 11 -15 15 -49 15 -133 0 -69 4 -113 10 -113 6 0 10 -37 10 -90 0 -60 4 -90 11 -90 6 0 29 -18 50 -40 38 -39 40 -40 109 -40 38 0 69 4 68 9 -2 5 9 20 25 34 27 26 27 27 27 157 0 75 -4 129 -9 126 -13 -8 -21 19 -21 70 0 25 -4 43 -9 40 -12 -8 -21 29 -21 85 0 32 -5 49 -15 53 -11 4 -15 22 -15 70 0 36 -5 66 -11 68 -5 2 -12 32 -13 66 -2 35 -9 69 -15 75 -6 6 -11 44 -11 88 0 59 -3 78 -15 83 -12 4 -15 24 -15 90 0 65 -3 85 -15 90 -12 4 -15 25 -15 101 l0 95 40 0 c22 0 40 5 40 10 0 6 7 10 15 10 8 0 15 9 15 20 0 11 7 20 15 20 11 0 15 13 15 54 0 39 -4 55 -15 60 -11 4 -15 20 -15 55 0 27 -5 51 -11 53 -6 2 -13 28 -16 58 -2 30 -8 57 -14 58 -5 2 -9 30 -9 63 0 48 -3 57 -15 53 -13 -5 -15 9 -15 95 0 86 -2 101 -16 101 -14 0 -16 27 -14 238 3 322 4 299 -25 306 -14 4 -25 11 -25 16 0 6 -27 10 -60 10 -47 0 -60 -3 -60 -15z"/>
 <path d="M9350 5095 c0 -8 -7 -15 -15 -15 -13 0 -15 -38 -15 -285 0 -247 2 -285 15 -285 12 0 15 -17 15 -95 0 -71 4 -96 14 -102 10 -5 16 -33 20 -83 7 -94 22 -228 25 -215 4 23 21 -23 21 -58 0 -24 5 -40 15 -43 8 -4 15 -15 15 -25 0 -11 7 -22 15 -25 10 -4 15 -20 15 -50 0 -32 4 -44 15 -44 11 0 15 -13 15 -54 0 -34 5 -56 12 -58 8 -3 14 -33 16 -84 3 -43 9 -82 14 -85 5 -3 11 -48 13 -100 2 -56 7 -95 14 -97 7 -2 11 -40 11 -103 0 -81 3 -99 15 -99 12 0 15 -18 15 -100 0 -82 3 -100 15 -100 11 0 15 -13 15 -54 0 -60 -7 -89 -21 -80 -5 3 -9 -11 -9 -31 0 -22 -6 -38 -15 -41 -9 -4 -15 -19 -15 -39 0 -20 6 -35 15 -39 8 -3 15 -12 15 -21 0 -8 7 -15 15 -15 8 0 15 -7 15 -15 0 -10 11 -15 35 -15 19 0 35 -4 35 -10 0 -14 83 -13 98 2 9 9 17 9 34 0 13 -6 83 -12 157 -14 96 -2 136 -7 139 -15 2 -9 31 -13 98 -13 75 0 96 -3 100 -15 5 -12 25 -15 90 -15 66 0 86 -3 90 -15 4 -11 21 -15 56 -15 27 0 47 4 44 9 -7 11 17 21 50 21 15 0 24 6 24 15 0 8 7 15 15 15 12 0 15 16 15 85 0 50 -4 85 -10 85 -5 0 -10 7 -10 15 0 8 -9 15 -20 15 -11 0 -20 5 -20 10 0 6 -30 10 -70 10 -54 0 -72 4 -76 15 -5 12 -25 15 -94 15 -65 0 -93 4 -104 15 -12 12 -48 15 -195 15 -172 0 -181 1 -191 21 -7 11 -9 27 -6 34 3 8 -1 21 -9 29 -10 10 -15 37 -15 85 0 58 -3 69 -15 65 -12 -5 -15 4 -15 51 0 43 -4 61 -17 71 -15 12 -3 13 87 11 78 -1 104 -5 102 -14 -1 -10 20 -13 83 -13 50 0 85 -4 85 -10 0 -6 31 -10 74 -10 53 0 79 -4 90 -15 15 -16 81 -21 72 -6 -8 12 18 21 60 21 19 0 34 4 34 9 0 5 9 11 20 14 18 5 20 14 20 84 0 81 -8 99 -53 116 -9 3 -17 11 -17 17 0 6 -24 10 -55 10 -37 0 -57 5 -62 15 -6 11 -34 15 -116 17 -65 2 -106 7 -105 13 2 6 -44 12 -117 15 -89 4 -119 8 -117 18 1 8 -16 12 -63 12 -47 0 -65 4 -64 13 1 6 1 38 0 70 -1 42 -5 57 -15 57 -12 0 -15 21 -18 100 l-3 101 130 -3 c80 -2 129 -7 127 -13 -1 -6 38 -12 95 -15 71 -4 97 -8 96 -17 -2 -10 17 -13 72 -13 43 0 75 -4 75 -10 0 -6 33 -10 80 -10 47 0 80 4 80 10 0 6 14 10 30 10 20 0 30 5 30 15 0 8 5 15 10 15 6 0 10 7 10 15 0 8 7 15 15 15 11 0 15 11 15 41 0 23 -7 47 -15 55 -8 9 -15 29 -15 45 0 27 -2 29 -40 29 -24 0 -42 6 -47 14 -6 10 -30 16 -78 18 -40 2 -69 7 -67 13 1 6 -60 12 -163 15 -103 3 -164 9 -163 15 2 6 -41 12 -107 15 -81 4 -109 8 -108 18 2 9 -25 12 -112 12 l-115 0 0 40 c0 29 -4 40 -15 40 -11 0 -15 13 -15 54 0 39 -4 55 -15 60 -11 4 -15 21 -15 61 0 30 -4 55 -10 55 -6 0 -10 42 -10 105 0 89 -2 104 -15 99 -13 -5 -15 17 -15 164 0 138 3 172 15 182 9 8 15 29 15 55 0 29 -5 45 -15 49 -8 3 -15 17 -15 31 0 16 -6 25 -15 25 -9 0 -18 7 -21 15 -5 11 -22 15 -70 15 -50 0 -64 -3 -64 -15z"/>
 <path d="M9892 5095 c-7 -8 -24 -15 -38 -15 -14 0 -32 -6 -39 -12 -33 -30 -45 -38 -55 -38 -5 0 -10 -7 -10 -15 0 -8 -7 -15 -15 -15 -9 0 -15 -9 -15 -24 0 -33 -10 -57 -21 -50 -5 3 -9 -53 -9 -130 0 -104 3 -135 13 -134 8 2 13 -13 15 -44 2 -34 7 -48 18 -48 9 0 14 -11 14 -30 0 -21 5 -30 16 -30 10 0 14 -6 11 -15 -4 -8 6 -27 23 -44 17 -16 30 -34 30 -40 0 -6 5 -11 11 -11 5 0 15 -13 20 -30 6 -16 17 -30 25 -30 8 0 14 -7 14 -15 0 -8 9 -15 20 -15 11 0 20 -7 20 -15 0 -8 9 -15 20 -15 11 0 20 -4 20 -9 0 -5 11 -12 25 -15 14 -4 25 -11 25 -16 0 -6 41 -10 100 -10 55 0 100 4 100 8 0 4 14 13 30 19 19 7 30 18 30 31 0 11 7 22 15 26 11 4 15 22 15 70 0 47 -4 65 -15 70 -8 3 -15 17 -15 31 0 16 -6 25 -15 25 -10 0 -15 10 -15 30 0 20 -5 30 -15 30 -8 0 -15 7 -15 15 0 8 -7 15 -15 15 -8 0 -15 7 -15 15 0 8 -6 15 -14 15 -8 0 -16 7 -20 15 -3 8 -12 15 -21 15 -8 0 -15 5 -15 10 0 6 -7 10 -15 10 -9 0 -18 7 -21 15 -4 8 -13 15 -20 15 -8 0 -17 7 -20 15 -4 8 -14 15 -25 15 -10 0 -22 6 -26 14 -4 8 -17 16 -28 18 -11 2 -19 10 -17 16 1 7 -9 12 -24 12 -20 0 -25 4 -20 16 3 9 6 27 6 40 0 23 2 24 85 24 47 0 85 -4 85 -9 0 -5 11 -12 25 -15 14 -4 25 -11 25 -16 0 -6 7 -10 15 -10 9 0 18 -7 21 -15 4 -8 12 -15 20 -15 8 0 14 -4 14 -10 0 -13 32 -45 54 -53 9 -4 14 -11 11 -17 -4 -6 8 -10 29 -10 25 0 36 4 36 15 0 8 7 15 15 15 12 0 15 14 15 70 0 56 -3 70 -15 70 -8 0 -15 6 -15 14 0 8 -7 17 -16 20 -8 3 -13 10 -10 15 3 5 -4 11 -15 14 -12 3 -18 10 -14 16 3 6 -1 11 -9 11 -9 0 -16 7 -16 15 0 8 -9 15 -20 15 -11 0 -20 7 -20 15 0 9 -9 15 -25 15 -14 0 -25 4 -25 9 0 5 -11 12 -25 15 -14 4 -25 11 -25 16 0 6 -15 10 -34 10 -19 0 -41 7 -50 15 -20 20 -126 20 -144 0z m88 -540 c0 -8 7 -15 15 -15 8 0 15 -7 15 -15 0 -8 7 -15 15 -15 8 0 15 -7 15 -15 0 -8 5 -15 11 -15 10 0 23 -11 47 -41 11 -14 9 -16 -13 -11 -14 2 -25 11 -25 18 0 8 -5 14 -11 14 -13 0 -59 47 -76 78 -16 26 -16 32 -3 32 6 0 10 -7 10 -15z"/>
 <path d="M12444 5101 c7 -11 -17 -21 -51 -21 -13 0 -31 -6 -38 -12 -33 -30 -45 -38 -55 -38 -5 0 -10 -6 -10 -14 0 -8 -6 -16 -14 -19 -7 -3 -16 -24 -20 -46 -3 -23 -11 -41 -16 -41 -14 0 -13 -217 1 -222 5 -2 13 -24 16 -48 4 -25 12 -51 20 -58 7 -7 13 -27 13 -43 0 -20 5 -29 16 -29 9 0 14 -6 12 -12 -3 -7 0 -18 6 -24 27 -28 46 -55 46 -63 0 -5 7 -12 16 -15 8 -3 12 -10 9 -16 -3 -5 0 -10 8 -10 13 0 31 -33 28 -52 -1 -5 10 -8 24 -8 16 0 25 -6 25 -15 0 -8 9 -15 20 -15 11 0 20 -4 20 -9 0 -5 11 -12 25 -15 14 -4 25 -11 25 -16 0 -6 43 -10 105 -10 62 0 105 4 105 10 0 5 11 12 25 16 18 4 25 13 25 29 0 13 7 25 15 29 11 4 15 22 15 76 0 56 -3 70 -15 70 -11 0 -15 11 -15 35 0 22 -6 38 -15 41 -8 4 -15 12 -15 19 0 7 -9 15 -21 18 -12 3 -18 10 -14 16 3 6 -1 11 -9 11 -9 0 -16 7 -16 15 0 8 -7 15 -15 15 -8 0 -15 5 -15 10 0 6 -8 14 -17 17 -10 4 -23 12 -30 17 -34 30 -43 36 -52 36 -6 0 -14 6 -18 14 -4 8 -17 16 -28 18 -11 2 -19 10 -17 16 1 7 -9 12 -23 12 -16 0 -25 6 -25 15 0 9 -9 15 -24 15 -21 0 -23 4 -22 40 l1 40 88 0 c48 0 87 -4 87 -9 0 -5 11 -12 25 -15 14 -4 25 -11 25 -16 0 -6 7 -10 15 -10 9 0 18 -7 21 -15 4 -8 12 -15 20 -15 8 0 14 -4 14 -10 0 -13 32 -45 54 -53 9 -4 14 -11 11 -17 -4 -6 8 -10 29 -10 25 0 36 4 36 15 0 8 7 15 15 15 12 0 15 14 15 70 0 56 -3 70 -15 70 -8 0 -15 5 -15 10 0 6 -12 23 -27 37 -16 14 -27 29 -25 34 1 5 -5 9 -13 9 -8 0 -15 7 -15 15 0 8 -9 15 -20 15 -11 0 -20 7 -20 15 0 8 -9 15 -20 15 -11 0 -20 4 -20 9 0 5 -13 12 -30 16 -16 4 -30 11 -30 16 0 5 -15 9 -34 9 -19 0 -41 7 -50 15 -16 16 -142 22 -132 6z m76 -546 c0 -7 9 -15 21 -18 12 -3 18 -10 14 -16 -3 -6 1 -11 9 -11 9 0 16 -7 16 -15 0 -8 4 -15 10 -15 12 0 50 -32 50 -42 0 -5 -9 -8 -20 -8 -11 0 -20 7 -20 15 0 8 -7 15 -15 15 -8 0 -15 5 -15 10 0 6 -7 10 -15 10 -8 0 -15 9 -15 20 0 11 -4 20 -8 20 -4 0 -16 13 -25 30 -15 25 -16 29 -2 24 8 -3 15 -12 15 -19z"/>
 <path d="M8566 5083 c-23 -6 -46 -27 -46 -42 0 -6 -7 -11 -15 -11 -10 0 -15 -10 -15 -30 0 -21 -5 -30 -16 -30 -13 0 -15 -8 -12 -40 2 -22 2 -40 0 -40 -8 0 -32 29 -32 39 0 6 -7 11 -15 11 -8 0 -15 6 -15 14 0 7 -9 16 -21 19 -12 3 -18 10 -14 16 4 7 -4 11 -20 11 -20 0 -26 4 -21 15 4 11 -1 15 -19 15 -14 0 -25 4 -25 9 0 5 -18 11 -40 15 -22 3 -40 11 -40 16 0 6 -22 10 -50 10 -27 0 -50 -4 -50 -10 0 -5 -9 -10 -19 -10 -11 0 -26 -7 -35 -15 -8 -8 -19 -15 -25 -15 -6 0 -11 -7 -11 -15 0 -8 -7 -15 -15 -15 -13 0 -15 -22 -15 -141 0 -111 3 -144 15 -155 8 -9 15 -28 15 -44 0 -15 6 -30 14 -33 9 -4 12 -14 9 -26 -3 -13 2 -23 16 -31 12 -6 19 -15 16 -21 -4 -5 1 -9 9 -9 9 0 16 -9 16 -20 0 -10 25 -44 55 -74 30 -30 55 -59 55 -65 0 -6 7 -11 15 -11 8 0 15 -7 15 -15 0 -8 7 -15 16 -15 10 0 14 -6 11 -14 -4 -10 2 -16 16 -18 12 -2 21 -9 19 -16 -1 -7 10 -12 28 -12 17 0 30 -4 30 -9 0 -5 16 -12 35 -15 19 -4 35 -11 35 -16 0 -6 25 -10 55 -10 47 0 60 4 79 25 13 14 28 25 35 25 6 0 11 7 11 15 0 8 9 15 20 15 13 0 18 5 14 15 -5 11 1 15 25 15 l31 0 0 130 c0 109 -2 130 -15 130 -22 0 -22 251 0 273 8 8 11 18 7 21 -3 4 4 9 16 13 12 3 19 10 16 15 -3 5 3 12 15 15 17 4 21 13 21 44 0 26 -5 42 -15 45 -8 4 -15 10 -15 16 0 30 -100 56 -154 41z m-313 -253 c14 -16 33 -30 42 -30 16 0 29 -25 23 -44 -2 -5 7 -13 20 -17 13 -5 20 -13 17 -19 -3 -5 1 -10 9 -10 9 0 16 -7 16 -15 0 -8 7 -15 16 -15 10 0 14 -6 10 -15 -3 -9 0 -15 9 -15 13 0 20 -18 16 -42 0 -5 6 -8 14 -8 12 0 15 -14 15 -69 0 -38 3 -76 6 -85 4 -12 0 -16 -15 -16 -12 0 -21 6 -21 15 0 8 -9 15 -20 15 -11 0 -20 5 -20 10 0 6 -7 10 -15 10 -9 0 -20 11 -25 25 -5 14 -21 36 -35 49 -14 13 -25 28 -25 34 0 5 -7 13 -16 16 -8 3 -13 10 -9 16 3 5 -3 18 -15 30 -11 11 -20 29 -20 40 0 11 -7 20 -15 20 -10 0 -15 10 -15 29 0 16 -4 31 -9 33 -8 2 -15 55 -12 81 3 19 51 4 74 -23z"/>
 <path d="M7092 5060 c-7 -12 -17 -18 -22 -15 -6 4 -10 -32 -10 -94 0 -76 3 -100 13 -98 8 1 13 -21 15 -78 2 -57 7 -82 17 -88 11 -6 15 -28 15 -88 0 -62 3 -81 15 -85 12 -5 15 -26 15 -99 0 -73 3 -94 15 -99 12 -4 15 -25 15 -97 0 -69 4 -97 15 -109 12 -14 16 -45 16 -153 0 -137 -6 -187 -22 -187 -14 0 -11 -108 4 -112 9 -3 13 -44 15 -146 3 -100 7 -142 15 -142 9 0 11 -25 9 -88 -3 -71 -1 -92 12 -105 13 -12 16 -39 16 -136 0 -101 2 -121 15 -121 12 0 15 -14 15 -70 0 -54 4 -72 15 -76 12 -5 15 -26 15 -99 0 -73 3 -94 15 -99 8 -3 15 -17 15 -31 0 -16 6 -25 15 -25 9 0 18 -6 21 -14 3 -8 16 -17 30 -20 13 -4 24 -11 24 -16 0 -6 27 -10 60 -10 53 0 64 3 85 26 14 15 25 33 25 40 0 8 5 14 10 14 17 0 13 167 -4 173 -10 4 -12 18 -9 49 4 33 1 49 -11 60 -10 11 -16 34 -16 67 0 39 -4 51 -15 51 -12 0 -15 14 -15 69 0 52 -4 70 -15 75 -12 4 -15 25 -15 100 0 74 -3 95 -15 100 -13 5 -15 51 -15 331 0 282 -2 325 -15 325 -8 0 -15 7 -15 15 0 8 -7 15 -15 15 -12 0 -15 19 -15 115 0 91 -3 115 -14 115 -10 0 -12 11 -9 43 4 32 1 48 -11 59 -10 11 -16 34 -16 68 0 36 -4 52 -15 56 -11 4 -15 21 -15 59 0 38 -4 55 -15 59 -8 3 -15 17 -15 31 0 15 4 24 10 20 6 -4 8 -11 5 -16 -4 -5 -1 -9 4 -9 6 0 11 -7 11 -15 0 -8 7 -15 15 -15 9 0 15 -9 15 -22 0 -14 16 -37 40 -58 22 -19 40 -40 40 -46 0 -7 9 -14 21 -17 12 -3 18 -10 14 -16 -3 -7 2 -11 14 -11 12 0 21 -7 21 -15 0 -9 10 -15 26 -15 19 0 25 -4 20 -15 -4 -13 8 -15 79 -15 66 0 85 3 85 14 0 7 9 16 20 19 13 3 20 14 20 30 0 14 6 27 12 29 8 3 13 28 13 71 0 47 4 67 13 67 9 0 12 26 12 95 0 76 3 97 15 101 10 4 15 20 15 45 0 26 5 42 15 45 8 4 15 12 15 20 0 8 7 14 15 14 12 0 15 14 15 65 0 90 -16 105 -111 105 -47 0 -68 -3 -64 -11 4 -6 -2 -13 -14 -16 -11 -3 -18 -9 -15 -14 3 -5 -2 -12 -10 -15 -9 -3 -16 -12 -16 -20 0 -8 -7 -14 -15 -14 -11 0 -15 -12 -15 -45 0 -43 -12 -60 -23 -32 -3 6 -6 -43 -6 -110 -1 -69 -5 -124 -11 -128 -5 -3 -10 -24 -10 -46 0 -21 -4 -39 -10 -39 -5 0 -10 7 -10 15 0 8 -4 15 -10 15 -5 0 -10 6 -10 14 0 8 -7 17 -16 20 -8 3 -12 10 -9 16 3 5 -1 10 -9 10 -9 0 -16 7 -16 15 0 8 -4 15 -10 15 -5 0 -12 11 -16 25 -3 14 -12 25 -20 25 -8 0 -14 9 -14 20 0 11 -5 20 -11 20 -5 0 -7 5 -4 10 3 6 1 10 -4 10 -6 0 -11 6 -11 14 0 8 -7 17 -16 20 -8 3 -13 10 -9 16 3 5 -3 17 -13 26 -12 10 -18 24 -14 37 3 13 1 18 -6 13 -7 -4 -14 3 -18 19 -3 14 -12 25 -20 25 -9 0 -14 11 -14 30 0 20 -5 30 -15 30 -8 0 -15 7 -15 15 0 8 -7 15 -15 15 -8 0 -15 5 -15 10 0 6 -7 10 -15 10 -9 0 -18 7 -21 15 -5 11 -22 15 -63 15 -46 0 -59 -4 -69 -20z"/>
 <path d="M10530 5070 c0 -5 -7 -10 -15 -10 -8 0 -25 -10 -37 -22 -22 -22 -23 -29 -20 -168 2 -115 6 -146 17 -153 12 -6 15 -37 15 -162 0 -88 4 -155 9 -155 5 0 12 -13 16 -30 4 -16 11 -30 16 -30 5 0 9 -7 9 -15 0 -8 9 -15 20 -15 11 0 20 -7 20 -15 0 -9 9 -15 25 -15 16 0 25 6 25 15 0 10 10 15 30 15 19 0 30 5 30 14 0 8 7 16 15 20 12 4 15 25 15 99 0 51 -4 97 -9 103 -4 5 -13 24 -20 43 -9 28 -9 32 3 21 8 -6 18 -25 21 -41 4 -16 10 -29 15 -29 5 0 11 -13 15 -30 4 -17 13 -30 21 -30 11 0 13 -6 9 -20 -5 -15 -3 -18 9 -14 10 4 16 1 16 -8 0 -20 43 -65 66 -70 10 -2 18 -10 17 -16 -2 -7 9 -12 28 -12 24 0 30 -4 25 -15 -4 -12 6 -15 59 -15 53 0 63 3 59 15 -5 11 1 15 26 15 19 0 29 4 25 11 -4 6 2 13 14 16 14 4 21 13 21 29 0 14 7 27 15 30 10 4 15 20 15 44 0 24 5 40 15 44 12 4 15 25 15 100 0 74 3 95 15 100 11 4 15 21 15 62 l0 56 35 -6 c19 -4 51 -4 70 0 35 6 35 6 35 61 0 40 -5 59 -20 75 -10 12 -17 25 -14 30 3 4 -6 8 -20 8 -16 0 -26 6 -26 15 0 12 -17 15 -90 15 -73 0 -90 -3 -90 -15 0 -9 -9 -15 -25 -15 -21 0 -25 -5 -25 -30 0 -20 -5 -30 -15 -30 -12 0 -15 -14 -15 -69 0 -52 -4 -70 -15 -75 -12 -4 -15 -25 -15 -100 0 -77 -3 -95 -16 -100 -11 -4 -14 -13 -10 -31 5 -18 2 -25 -9 -25 -8 0 -15 7 -15 15 0 8 -6 15 -14 15 -8 0 -17 14 -21 30 -4 17 -13 30 -21 30 -10 0 -13 7 -8 28 4 20 3 23 -5 13 -8 -12 -11 -10 -16 11 -4 15 -13 29 -21 32 -8 3 -14 17 -14 31 0 16 -6 25 -15 25 -10 0 -15 10 -15 30 0 20 -5 30 -15 30 -9 0 -15 9 -15 25 0 16 -6 25 -15 25 -10 0 -15 10 -15 30 0 21 -5 30 -16 30 -9 0 -14 5 -12 12 2 6 -4 20 -14 30 -10 10 -18 25 -18 33 0 8 -7 15 -15 15 -8 0 -15 5 -15 10 0 6 -11 10 -25 10 -14 0 -28 7 -31 15 -7 17 -64 21 -64 5z"/>
 <path d="M5666 5015 c5 -12 -3 -15 -40 -15 -31 0 -45 -4 -43 -12 1 -7 -9 -14 -23 -16 -14 -2 -29 -10 -33 -18 -4 -8 -16 -14 -26 -14 -11 0 -21 -7 -25 -15 -3 -8 -13 -15 -21 -15 -9 0 -13 -5 -10 -10 3 -6 -1 -13 -11 -17 -22 -8 -74 -59 -74 -73 0 -7 -346 -10 -1090 -10 -962 0 -1090 2 -1090 15 0 8 -9 15 -19 15 -10 0 -21 7 -25 15 -3 8 -15 15 -26 15 -11 0 -20 4 -20 9 0 5 -14 11 -31 15 -17 3 -28 10 -24 16 4 6 -12 10 -42 10 -58 0 -95 9 -87 21 3 5 -10 9 -28 9 -22 0 -28 -3 -20 -9 16 -10 -30 -21 -88 -21 -24 0 -40 -5 -44 -15 -3 -8 -17 -15 -31 -15 -14 0 -25 -4 -25 -9 0 -5 -11 -12 -25 -15 -14 -4 -25 -11 -25 -16 0 -6 -7 -10 -15 -10 -8 0 -15 -7 -15 -15 0 -8 -7 -15 -15 -15 -8 0 -15 -7 -15 -15 0 -8 -6 -15 -12 -15 -7 0 -22 -20 -33 -45 -11 -25 -25 -45 -32 -45 -8 0 -13 -13 -13 -34 0 -42 -9 -68 -21 -60 -5 3 -9 -36 -9 -90 0 -55 4 -96 10 -98 6 -2 13 -21 17 -43 3 -22 12 -44 20 -48 7 -4 13 -16 13 -26 0 -11 7 -21 15 -25 8 -3 15 -12 15 -21 0 -8 5 -15 11 -15 5 0 8 -4 5 -9 -3 -5 1 -12 10 -15 8 -3 13 -10 10 -15 -3 -5 4 -11 15 -14 12 -3 18 -10 14 -16 -4 -7 4 -11 19 -11 16 0 26 -6 26 -15 0 -8 9 -15 19 -15 10 0 21 -7 25 -15 3 -9 18 -15 40 -15 19 0 38 -4 41 -10 4 -6 -25 -10 -79 -10 -70 0 -86 -3 -86 -15 0 -9 -10 -15 -26 -15 -14 0 -23 -4 -19 -9 3 -6 -1 -13 -8 -18 -8 -4 -17 -26 -20 -48 -4 -22 -11 -41 -17 -43 -13 -5 -13 -82 0 -82 5 0 12 -17 15 -37 3 -21 10 -46 16 -55 5 -10 9 -47 9 -83 0 -53 3 -63 15 -59 13 5 15 -9 15 -89 0 -75 3 -96 15 -101 12 -4 15 -26 15 -105 0 -69 4 -101 12 -103 8 -3 15 -37 19 -94 3 -49 7 -84 8 -79 1 6 6 1 11 -10 5 -11 9 -77 9 -147 1 -100 -2 -130 -14 -142 -21 -20 -21 -126 -1 -126 9 0 16 -12 18 -27 3 -24 8 -28 41 -31 20 -2 37 -7 37 -13 0 -5 23 -9 50 -9 28 0 50 5 50 10 0 6 9 10 20 10 11 0 20 -4 20 -9 0 -5 66 -11 147 -13 106 -2 148 -6 151 -15 2 -9 28 -13 80 -13 85 0 125 -8 116 -21 -3 -5 31 -9 75 -9 84 0 115 -6 105 -21 -3 -5 18 -9 46 -9 28 0 49 4 46 9 -7 10 17 21 46 21 23 0 48 23 48 44 0 9 7 16 15 16 12 0 15 13 15 55 0 42 -3 55 -15 55 -10 0 -15 10 -15 28 0 35 -35 52 -111 52 -38 0 -63 5 -73 15 -11 11 -37 15 -100 15 -62 0 -89 4 -100 15 -12 12 -48 15 -196 15 -151 0 -182 2 -186 15 -4 8 -12 15 -20 15 -11 0 -14 17 -14 74 0 48 -4 76 -12 78 -6 2 -12 28 -13 61 -1 31 -7 62 -12 69 -6 7 -14 23 -17 36 -7 22 -6 22 93 22 83 0 101 -3 101 -15 0 -12 16 -15 85 -15 50 0 85 -4 85 -10 0 -6 30 -10 69 -10 49 0 74 -5 85 -15 8 -8 24 -15 36 -15 12 0 28 7 36 15 9 8 33 15 55 15 21 0 39 5 39 10 0 6 7 10 15 10 8 0 15 6 15 14 0 8 7 16 15 20 11 4 15 20 15 56 0 36 -4 52 -15 56 -8 4 -15 11 -15 18 0 6 -13 20 -30 29 -16 10 -30 22 -30 28 0 5 -22 9 -49 9 -56 0 -84 8 -75 21 3 5 -38 9 -95 9 -102 0 -135 5 -125 21 3 5 -43 9 -105 9 -92 0 -111 3 -111 15 0 12 -14 15 -64 15 l-64 0 5 43 c3 28 1 37 -5 29 -15 -22 -22 10 -22 99 0 64 -3 79 -15 79 -11 0 -15 12 -15 45 l0 45 136 0 c117 0 135 -2 130 -15 -4 -13 9 -15 90 -15 81 0 95 -2 90 -15 -4 -13 8 -15 79 -15 46 0 87 -5 90 -10 3 -5 37 -10 76 -10 39 0 69 4 69 10 0 6 14 10 30 10 20 0 30 5 30 15 0 8 9 15 20 15 18 0 20 7 20 84 0 77 -2 84 -21 89 -12 3 -18 10 -15 16 4 6 -9 11 -31 13 -21 2 -36 7 -33 13 3 6 -25 12 -70 15 -43 3 -74 9 -72 15 1 6 -61 12 -165 15 -127 4 -167 8 -165 18 1 9 -24 12 -100 12 -57 1 -130 7 -163 14 l-60 14 118 1 c70 1 117 5 117 11 0 6 16 10 35 10 24 0 35 5 35 15 0 9 9 15 25 15 16 0 25 6 25 15 0 8 9 15 20 15 11 0 20 7 20 15 0 8 7 15 15 15 8 0 14 6 13 13 -2 9 219 13 1075 15 917 2 1077 0 1077 -12 0 -8 7 -17 16 -20 8 -3 12 -10 9 -16 -3 -5 -1 -10 4 -10 6 0 11 -7 11 -15 0 -8 6 -15 14 -15 8 0 16 -7 20 -15 3 -8 12 -15 21 -15 8 0 15 -4 15 -10 0 -5 7 -10 15 -10 9 0 18 -7 21 -15 4 -8 12 -15 20 -15 7 0 17 -6 21 -14 4 -8 22 -16 38 -18 17 -1 28 -7 25 -13 -3 -6 18 -12 50 -15 37 -3 54 -9 52 -18 -1 -9 9 -11 35 -8 21 2 29 1 18 -1 -11 -3 -24 -11 -28 -19 -4 -8 -15 -14 -23 -14 -8 0 -25 -11 -38 -25 -13 -14 -28 -25 -34 -25 -6 0 -16 -13 -24 -30 -7 -16 -16 -30 -19 -30 -4 0 -10 -11 -13 -25 -4 -14 -11 -25 -16 -25 -6 0 -10 -20 -10 -44 0 -30 -5 -46 -15 -50 -12 -4 -15 -27 -15 -116 0 -91 3 -110 15 -110 12 0 15 -14 15 -70 0 -56 3 -70 15 -70 11 0 15 -12 15 -45 0 -33 4 -45 15 -45 10 0 15 -10 15 -30 0 -16 4 -30 10 -30 5 0 13 -18 16 -40 4 -24 12 -40 20 -40 8 0 14 -7 14 -15 0 -8 5 -15 10 -15 6 0 10 -9 10 -20 0 -11 9 -28 19 -37 11 -9 17 -22 14 -30 -3 -9 0 -11 10 -8 10 4 17 -2 21 -19 3 -14 11 -26 16 -26 6 0 10 -7 10 -15 0 -8 7 -15 15 -15 8 0 15 -7 15 -15 0 -8 7 -15 15 -15 8 0 15 -7 15 -15 0 -8 5 -15 10 -15 6 0 10 -7 10 -15 0 -8 7 -15 15 -15 8 0 15 -7 15 -15 0 -8 7 -15 15 -15 8 0 15 -7 15 -15 0 -8 7 -15 15 -15 8 0 15 -7 15 -15 0 -8 7 -15 15 -15 8 0 15 -4 15 -10 0 -5 7 -10 15 -10 8 0 15 -7 15 -15 0 -8 7 -15 15 -15 8 0 15 -6 15 -14 0 -7 9 -16 21 -19 12 -3 18 -10 14 -16 -4 -7 4 -11 20 -11 20 0 26 -4 21 -15 -4 -11 1 -15 19 -15 14 0 25 -4 25 -10 0 -5 11 -12 25 -16 14 -3 25 -10 25 -15 0 -5 11 -9 25 -9 14 0 28 -7 31 -15 4 -8 15 -15 25 -15 11 0 22 -7 25 -15 4 -10 20 -15 45 -15 27 0 39 -4 39 -15 0 -10 15 -15 58 -17 39 -2 56 -7 54 -15 -1 -10 29 -13 128 -13 99 0 129 3 128 13 -2 7 13 14 42 17 25 3 43 9 40 15 -3 6 5 11 18 13 12 2 22 10 22 18 0 8 7 14 15 14 8 0 15 7 15 15 0 8 7 15 15 15 12 0 15 16 15 85 0 69 -3 85 -15 85 -10 0 -15 10 -15 30 0 19 -5 29 -12 28 -8 -2 -14 9 -16 25 -2 16 -9 27 -18 27 -8 0 -17 7 -20 15 -5 11 -22 15 -70 15 -50 0 -64 -3 -64 -15 0 -8 -7 -15 -15 -15 -10 0 -15 -10 -15 -31 0 -23 -4 -30 -14 -26 -10 4 -13 1 -9 -9 3 -8 -1 -14 -11 -14 -10 0 -13 -6 -9 -15 5 -14 -6 -15 -78 -13 -61 2 -83 6 -81 16 1 8 -11 12 -38 12 -22 0 -40 4 -40 9 0 5 -13 12 -30 16 -16 4 -30 11 -30 16 0 5 -7 9 -15 9 -9 0 -18 7 -21 15 -4 8 -15 15 -25 15 -11 0 -22 7 -25 15 -4 8 -12 15 -20 15 -8 0 -14 6 -14 14 0 7 -9 16 -21 19 -12 3 -18 10 -14 16 3 6 -1 11 -9 11 -9 0 -16 7 -16 15 0 9 -9 15 -25 15 -14 0 -25 5 -25 10 0 6 -13 24 -30 40 -16 16 -30 36 -30 45 0 8 -7 15 -15 15 -8 0 -15 7 -15 15 0 8 -7 15 -15 15 -8 0 -15 7 -15 15 0 8 -4 15 -10 15 -5 0 -10 7 -10 15 0 8 -4 15 -10 15 -5 0 -12 11 -16 25 -3 14 -12 25 -20 25 -9 0 -14 11 -14 30 0 20 -5 30 -15 30 -10 0 -15 10 -15 30 0 20 -5 30 -15 30 -9 0 -15 9 -15 25 0 14 -4 25 -10 25 -5 0 -10 25 -10 55 0 40 -4 57 -15 61 -12 5 -15 26 -15 101 0 71 4 98 15 109 8 9 15 24 15 35 0 12 7 19 20 19 11 0 20 5 20 10 0 6 38 10 95 10 57 0 95 -4 95 -10 0 -5 15 -10 34 -10 19 0 41 -7 50 -15 8 -8 24 -15 35 -15 11 0 26 -7 35 -15 8 -8 24 -15 36 -15 11 0 23 -7 26 -15 4 -8 15 -15 25 -15 10 0 19 -7 19 -15 0 -9 9 -15 25 -15 16 0 25 -6 25 -15 0 -9 9 -15 21 -15 15 0 19 -5 15 -15 -4 -11 1 -15 19 -15 14 0 25 -4 25 -10 0 -5 5 -10 11 -10 15 0 79 -65 79 -80 0 -5 7 -10 15 -10 11 0 15 -11 15 -37 0 -21 7 -47 15 -57 10 -13 15 -43 15 -82 0 -42 5 -65 15 -74 8 -7 15 -19 15 -26 0 -8 9 -14 20 -14 11 0 20 -4 20 -10 0 -6 38 -10 95 -10 57 0 95 4 95 10 0 6 7 10 15 10 8 0 15 7 15 16 0 8 5 12 10 9 6 -4 10 18 10 59 0 37 -4 66 -10 66 -5 0 -13 18 -16 39 -4 22 -13 42 -20 45 -9 3 -14 21 -14 46 0 29 -4 40 -15 40 -11 0 -15 11 -15 40 0 22 -4 40 -10 40 -6 0 -10 30 -10 69 0 52 -4 70 -15 75 -12 4 -15 26 -15 106 0 72 -3 99 -12 97 -6 -1 -14 6 -16 16 -2 10 2 17 12 17 14 0 16 18 16 125 0 104 -2 125 -15 125 -8 0 -15 7 -15 15 0 8 -9 15 -20 15 -11 0 -20 7 -20 15 0 12 -15 15 -75 15 -60 0 -75 -3 -75 -15 0 -8 -9 -15 -20 -15 -11 0 -20 -7 -20 -15 0 -8 -7 -15 -15 -15 -8 0 -15 -7 -15 -15 0 -8 -7 -15 -15 -15 -21 0 -22 -166 -1 -189 17 -19 27 -153 11 -147 -5 2 -9 9 -8 15 2 6 -8 11 -22 11 -15 0 -25 6 -25 14 0 8 -10 16 -22 18 -13 2 -22 9 -21 16 2 7 -9 12 -27 12 -17 0 -30 5 -30 10 0 6 -9 10 -19 10 -11 0 -26 7 -35 15 -8 8 -21 15 -29 15 -25 0 -47 11 -41 21 3 5 -15 9 -41 9 -31 0 -47 5 -51 15 -5 12 -26 15 -98 15 -89 1 -90 1 -57 15 18 8 44 15 56 15 13 0 25 7 29 15 3 8 12 15 21 15 9 0 26 11 39 25 13 14 29 25 35 25 6 0 14 7 17 15 4 8 13 15 21 15 8 0 11 5 8 10 -3 6 1 13 9 16 9 3 16 12 16 20 0 8 5 14 10 14 6 0 10 7 10 15 0 8 7 15 15 15 11 0 15 11 15 40 l0 40 -199 0 c-153 0 -203 3 -213 13 -7 8 -26 17 -42 21 -15 4 -26 9 -23 12 3 3 -3 14 -14 25 -10 10 -19 26 -19 34 0 8 -7 15 -15 15 -12 0 -15 16 -15 85 0 69 3 85 15 85 10 0 15 10 15 30 0 20 5 30 15 30 8 0 15 7 15 15 0 8 9 15 20 15 11 0 20 5 20 10 0 6 80 10 220 10 l220 0 0 44 c0 31 -5 46 -16 50 -8 3 -13 10 -10 15 6 10 -98 121 -113 121 -6 0 -14 6 -18 14 -4 8 -17 16 -28 18 -11 2 -19 10 -17 16 1 7 -10 12 -28 12 -19 0 -30 5 -30 14 0 10 -14 16 -42 18 -28 2 -42 7 -40 16 1 9 -29 12 -128 12 -111 0 -129 -2 -124 -15z m-2656 -350 c0 -8 6 -14 13 -12 7 1 13 -10 15 -25 2 -16 9 -28 18 -28 9 0 14 -11 14 -30 0 -20 5 -30 15 -30 8 0 15 -7 15 -15 0 -8 5 -15 10 -15 6 0 10 -7 10 -15 0 -8 -4 -15 -10 -15 -5 0 -10 -11 -10 -25 0 -16 -6 -25 -15 -25 -13 0 -20 -18 -16 -43 1 -4 -6 -10 -14 -13 -8 -4 -15 -12 -15 -20 0 -8 -7 -14 -15 -14 -10 0 -15 -10 -15 -30 l0 -31 -127 3 -128 3 -3 28 c-2 16 -9 27 -18 27 -9 0 -14 7 -12 18 2 9 -4 26 -14 36 -9 10 -15 23 -12 28 3 4 -2 8 -10 8 -9 0 -16 9 -16 20 0 11 -7 23 -15 26 -8 4 -15 10 -15 15 0 5 7 9 15 9 8 0 15 7 15 16 0 8 7 22 15 30 8 9 15 24 15 35 0 10 4 19 9 19 5 0 12 11 15 25 4 14 11 25 16 25 6 0 10 7 10 15 0 13 21 15 130 15 109 0 130 -2 130 -15z"/>
 <path d="M3970 4046 c0 -8 -10 -16 -22 -18 -16 -2 -23 -10 -23 -25 0 -13 -6 -28 -13 -35 -15 -15 -17 -214 -2 -223 6 -3 10 -29 10 -56 0 -35 4 -51 15 -55 11 -5 15 -21 15 -60 0 -39 4 -56 15 -60 11 -5 15 -23 15 -71 0 -35 4 -62 9 -59 14 9 21 -20 21 -85 0 -33 4 -58 9 -55 14 9 21 -20 21 -90 0 -50 3 -64 15 -64 12 0 15 -16 15 -84 0 -65 3 -85 15 -90 12 -4 15 -30 15 -146 0 -87 4 -140 10 -140 6 0 10 -11 10 -25 0 -14 8 -29 21 -35 11 -7 18 -14 15 -17 -3 -3 6 -12 20 -20 31 -15 174 -18 174 -3 0 6 7 10 15 10 8 0 15 7 15 15 0 8 7 15 15 15 11 0 15 12 15 45 0 33 4 45 15 45 11 0 15 12 15 50 0 35 5 52 16 58 11 6 15 17 11 31 -3 14 0 24 9 28 8 3 14 18 14 34 0 19 5 29 15 29 9 0 15 9 15 24 0 13 7 26 15 30 8 3 15 17 15 31 0 16 6 25 15 25 10 0 15 10 15 30 0 20 5 30 15 30 9 0 15 9 15 25 0 15 6 25 15 25 9 0 12 6 9 15 -4 9 0 15 10 15 14 0 21 18 17 43 -1 4 6 10 14 13 8 4 15 12 15 20 0 8 7 14 15 14 9 0 15 9 15 21 0 12 14 35 30 51 17 15 30 37 30 48 0 11 7 20 15 20 8 0 15 5 15 11 0 6 7 17 15 25 8 9 15 25 15 36 0 14 5 18 16 14 9 -3 12 -2 8 5 -3 6 3 19 15 30 12 11 21 26 21 34 0 8 8 15 19 15 23 0 31 -26 31 -103 0 -32 4 -56 9 -53 14 9 21 -20 21 -90 0 -50 3 -64 15 -64 12 0 15 -16 15 -85 0 -69 3 -85 15 -85 12 0 15 -16 15 -84 0 -59 4 -86 13 -88 9 -4 13 -49 15 -169 2 -90 8 -168 13 -173 5 -6 9 -16 9 -24 0 -16 39 -56 65 -65 9 -4 13 -11 10 -17 -4 -6 23 -10 74 -10 65 0 81 3 81 15 0 8 7 15 15 15 8 0 15 7 15 15 0 8 7 15 15 15 13 0 15 20 15 121 0 68 -4 118 -9 115 -12 -8 -21 18 -21 64 0 21 -5 40 -12 42 -7 3 -14 32 -16 71 -3 48 -8 67 -18 67 -10 0 -14 16 -14 64 0 40 -5 68 -13 74 -9 8 -12 29 -9 70 3 45 0 62 -12 74 -12 12 -16 36 -16 87 0 58 -3 69 -15 65 -13 -5 -15 8 -15 85 0 67 -3 90 -12 88 -10 -1 -14 37 -16 163 -2 132 -5 166 -17 173 -8 4 -15 19 -15 32 0 20 -5 25 -25 25 -16 0 -25 6 -25 15 0 12 -18 15 -101 15 -68 0 -98 -3 -94 -11 4 -6 -2 -13 -13 -16 -11 -3 -23 -16 -26 -29 -4 -13 -11 -24 -16 -24 -6 0 -10 -7 -10 -15 0 -9 -7 -18 -15 -21 -8 -4 -15 -17 -15 -30 0 -15 -6 -24 -15 -24 -9 0 -15 -10 -15 -26 0 -14 -12 -39 -27 -55 -55 -59 -59 -65 -55 -77 2 -7 -3 -12 -12 -12 -9 0 -16 -7 -16 -15 0 -8 -6 -15 -14 -15 -8 0 -17 -13 -21 -30 -4 -16 -11 -30 -16 -30 -5 0 -9 -7 -9 -15 0 -8 -6 -15 -14 -15 -8 0 -17 -11 -20 -25 -4 -14 -11 -25 -16 -25 -6 0 -10 -7 -10 -15 0 -8 -4 -15 -10 -15 -5 0 -10 -7 -10 -15 0 -8 -5 -15 -11 -15 -5 0 -7 -4 -4 -10 3 -5 1 -10 -4 -10 -6 0 -11 -7 -11 -15 0 -9 -6 -18 -14 -21 -8 -3 -17 -16 -20 -30 -4 -13 -11 -24 -16 -24 -6 0 -10 -6 -10 -14 0 -8 -7 -16 -15 -20 -8 -3 -15 -17 -15 -31 0 -16 -6 -25 -15 -25 -8 0 -16 -7 -16 -15 -3 -35 -6 -40 -18 -37 -9 2 -11 -3 -7 -14 4 -11 0 -18 -15 -21 -16 -4 -19 -11 -15 -29 5 -17 2 -24 -8 -24 -20 0 -26 23 -26 95 0 35 -4 67 -10 70 -5 3 -10 41 -10 85 0 60 -3 79 -15 84 -12 4 -15 25 -15 96 0 67 -3 89 -12 88 -10 -2 -14 37 -16 165 -2 139 -5 167 -17 167 -8 0 -15 7 -15 15 0 8 -7 15 -15 15 -10 0 -15 10 -15 30 0 25 -4 30 -25 30 -16 0 -25 6 -25 15 0 12 -14 15 -65 15 -50 0 -65 -3 -65 -14z"/>
 <path d="M10983 4048 c1 -8 -11 -14 -30 -16 -29 -3 -33 -7 -33 -33 0 -19 -5 -29 -15 -29 -12 0 -15 -16 -15 -84 0 -54 4 -86 11 -88 6 -2 14 -27 17 -56 2 -29 8 -52 13 -52 5 0 9 -29 9 -64 0 -44 5 -69 15 -80 11 -11 15 -38 15 -106 0 -71 3 -92 15 -96 12 -5 15 -26 15 -101 0 -71 4 -98 15 -109 11 -11 15 -38 15 -99 0 -64 3 -84 15 -89 12 -4 15 -26 15 -106 0 -82 -3 -100 -15 -100 -12 0 -15 -16 -15 -85 0 -69 3 -85 15 -85 8 0 15 -7 15 -15 0 -10 11 -15 35 -15 19 0 35 -4 35 -10 0 -5 25 -10 55 -10 30 0 55 5 55 10 0 6 7 10 15 10 8 0 15 -4 15 -10 0 -6 51 -10 134 -10 106 0 138 -3 150 -15 11 -11 38 -15 105 -15 66 0 93 -4 105 -15 10 -10 36 -15 84 -15 75 0 105 -7 96 -21 -3 -5 17 -9 44 -9 35 0 52 4 56 15 3 9 18 15 36 15 20 0 30 5 30 15 0 8 7 15 15 15 9 0 15 9 15 24 0 13 7 26 15 30 19 7 20 72 1 83 -8 4 -16 19 -18 33 -2 17 -10 26 -25 28 -13 2 -23 7 -23 11 0 5 -35 11 -77 13 -45 3 -79 10 -81 17 -2 7 -34 11 -87 11 -61 0 -88 4 -99 15 -12 12 -48 15 -193 15 -208 0 -213 2 -213 90 0 28 -4 50 -10 50 -6 0 -10 27 -10 61 0 40 -5 65 -15 75 -8 9 -15 26 -15 39 0 13 -3 30 -6 39 -5 14 6 16 90 16 79 0 96 -3 96 -15 0 -12 16 -15 85 -15 50 0 85 -4 85 -10 0 -6 30 -10 69 -10 49 0 74 -5 85 -15 19 -20 72 -20 80 0 3 10 19 15 46 15 22 0 40 4 40 9 0 5 9 11 20 14 18 5 20 14 20 84 0 81 -8 99 -53 116 -9 3 -17 11 -17 17 0 6 -24 10 -55 10 -40 0 -57 4 -61 15 -5 12 -27 15 -110 15 -80 0 -105 3 -111 15 -6 11 -34 15 -118 17 -82 2 -109 6 -107 16 1 8 -15 12 -58 12 -47 0 -60 3 -60 15 0 8 -4 15 -10 15 -6 0 -10 30 -10 69 0 46 -4 71 -12 73 -8 3 -14 33 -16 86 l-4 82 130 0 c77 0 133 -4 137 -10 3 -5 0 -11 -7 -12 -7 -1 32 -4 87 -7 72 -4 99 -9 98 -18 -2 -10 17 -13 71 -13 41 0 78 -4 81 -10 3 -5 42 -10 86 -10 46 0 79 4 79 10 0 6 14 10 30 10 26 0 31 5 37 30 3 17 12 30 19 30 10 0 14 15 14 55 0 42 -3 55 -15 55 -10 0 -15 10 -15 30 0 28 -3 30 -35 30 -22 0 -38 6 -41 15 -5 11 -23 15 -73 15 -57 0 -116 15 -86 22 6 1 -63 5 -153 8 -100 3 -161 9 -160 15 2 6 -41 12 -107 15 -81 4 -109 8 -107 18 1 9 -32 12 -143 12 -111 0 -144 -3 -142 -12z"/>
 <path d="M12370 4015 c0 -8 -7 -15 -15 -15 -8 0 -15 -7 -15 -16 0 -9 -6 -14 -14 -11 -9 4 -13 -4 -14 -26 0 -17 -6 -33 -11 -35 -15 -5 -15 -342 -1 -342 6 0 10 -46 10 -119 0 -93 3 -121 15 -131 11 -9 15 -35 15 -105 0 -73 3 -94 15 -99 11 -4 15 -22 15 -75 0 -52 4 -70 15 -75 12 -4 15 -23 15 -81 0 -42 4 -74 9 -71 12 8 21 -19 21 -65 0 -28 -4 -39 -15 -39 -12 0 -15 -16 -15 -81 0 -72 2 -81 20 -86 11 -3 20 -9 20 -14 0 -5 11 -9 24 -9 13 0 29 -7 36 -15 10 -12 37 -15 125 -15 116 0 149 -5 139 -21 -3 -5 94 -9 229 -9 200 0 236 2 241 15 3 9 18 15 40 15 21 0 36 6 40 15 3 8 15 15 26 15 11 0 20 5 20 10 0 6 9 10 21 10 11 0 17 5 14 10 -3 6 4 14 17 19 13 6 19 10 13 10 -5 1 5 14 23 30 17 17 32 34 32 39 0 6 7 12 15 16 8 3 15 16 15 30 0 14 7 31 15 40 11 11 15 40 15 121 0 60 -4 104 -9 101 -11 -7 -21 17 -21 50 0 15 -6 24 -15 24 -9 0 -15 9 -15 24 0 13 -11 31 -25 42 -14 10 -25 24 -25 31 0 7 -7 13 -15 13 -8 0 -15 7 -15 15 0 8 -7 15 -15 15 -8 0 -15 7 -15 15 0 8 -7 15 -15 15 -8 0 -15 6 -15 14 0 7 -9 16 -21 19 -12 3 -18 10 -14 16 4 7 -4 11 -19 11 -16 0 -26 6 -26 15 0 8 -9 15 -20 15 -11 0 -20 5 -20 10 0 6 -11 10 -25 10 -14 0 -28 7 -31 15 -4 8 -16 15 -29 15 -12 0 -28 7 -35 15 -10 13 -9 15 9 15 12 0 21 6 21 15 0 8 6 15 14 15 8 0 16 7 20 15 3 8 13 15 21 15 9 0 13 5 10 10 -3 6 2 13 12 17 10 4 23 12 30 17 35 31 43 36 58 36 8 0 15 7 15 15 0 8 9 15 20 15 11 0 19 6 17 12 -1 7 8 14 21 16 12 2 20 8 16 13 -3 6 3 13 14 16 11 3 23 11 26 19 3 8 12 14 21 14 8 0 15 4 15 10 0 5 11 12 24 16 14 3 27 12 30 20 3 8 12 14 21 14 8 0 15 5 15 10 0 6 11 10 25 10 18 0 23 4 19 15 -4 10 0 15 15 15 13 0 21 6 21 16 0 9 6 14 13 11 10 -4 14 13 16 73 2 70 -1 81 -20 99 -13 12 -19 21 -13 22 5 0 -1 4 -14 10 -13 5 -20 13 -17 19 4 6 -21 10 -69 10 -61 0 -76 -3 -76 -15 0 -9 -9 -15 -24 -15 -13 0 -26 -7 -30 -15 -3 -8 -13 -15 -23 -15 -10 -1 -29 -14 -43 -30 -13 -17 -30 -30 -37 -30 -7 0 -13 -4 -13 -10 0 -5 -9 -10 -20 -10 -11 0 -20 -7 -20 -15 0 -8 -9 -15 -20 -15 -13 0 -18 -5 -14 -15 4 -10 0 -15 -15 -15 -12 0 -21 -6 -21 -15 0 -8 -4 -15 -10 -15 -5 0 -23 -12 -39 -27 -46 -43 -59 -53 -70 -53 -5 0 -11 -7 -15 -15 -3 -8 -12 -15 -21 -15 -8 0 -15 -7 -15 -15 0 -8 -7 -15 -15 -15 -8 0 -15 -7 -15 -15 0 -8 -7 -15 -15 -15 -8 0 -15 -7 -15 -15 0 -8 -9 -15 -19 -15 -10 0 -21 -7 -25 -15 -3 -8 -12 -15 -21 -15 -8 0 -15 -7 -15 -15 0 -8 -7 -15 -15 -15 -8 0 -15 -4 -15 -10 0 -5 -9 -10 -20 -10 -11 0 -20 -7 -20 -15 0 -11 -12 -15 -50 -15 -35 0 -49 -4 -47 -12 1 -8 -11 -14 -30 -16 -21 -2 -33 -9 -33 -18 0 -8 -7 -14 -15 -14 -12 0 -15 16 -15 84 0 59 -4 86 -12 89 -9 2 -13 31 -13 97 0 66 4 95 13 98 15 5 17 172 1 172 -5 0 -15 14 -20 30 -7 19 -18 30 -30 30 -10 0 -19 7 -19 15 0 12 -15 15 -75 15 -60 0 -75 -3 -75 -15z m293 -817 c12 -2 21 -9 20 -16 -2 -9 31 -12 133 -12 114 0 135 -2 131 -14 -4 -11 3 -16 26 -18 19 -2 31 -8 30 -15 -2 -8 8 -13 27 -13 17 0 30 -4 30 -9 0 -5 11 -12 25 -15 14 -4 25 -11 25 -16 0 -6 5 -10 11 -10 15 0 85 -71 82 -82 -2 -4 4 -8 12 -8 8 0 15 -7 15 -16 0 -8 7 -22 15 -30 9 -10 15 -34 15 -65 0 -43 -5 -55 -34 -84 -18 -19 -38 -35 -44 -35 -6 0 -12 -5 -14 -11 -2 -6 -27 -14 -56 -17 -29 -2 -52 -8 -52 -13 0 -5 -22 -9 -50 -9 -27 0 -50 5 -50 10 0 6 -42 10 -105 10 -85 0 -107 3 -111 15 -4 8 -12 15 -20 15 -9 0 -14 11 -14 29 0 16 -5 31 -12 33 -8 3 -12 25 -10 66 2 48 -1 64 -13 68 -12 5 -15 24 -15 90 0 68 -3 84 -15 84 -12 0 -15 13 -14 63 1 34 3 54 6 45 2 -9 14 -18 26 -20z"/>
 </g>

</svg>