<!DOCTYPE svg PUBLIC "-//W3C//DTD SVG 20010904//EN" "http://www.w3.org/TR/2001/REC-SVG-20010904/DTD/svg10.dtd">
<svg version="1.0" xmlns="http://www.w3.org/2000/svg" width="500px" height="500px" viewBox="0 0 5000 5000" preserveAspectRatio="xMidYMid meet">
<g id="layer1" fill="#f9fafa" stroke="none">
 <path d="M2589 3377 c7 -10 19 -17 25 -17 6 0 43 -9 81 -21 39 -11 95 -28 125 -36 108 -31 184 -61 195 -77 7 -11 6 -22 -3 -37 -16 -25 -11 -33 17 -24 26 8 44 40 37 63 -8 23 -62 59 -127 82 -70 26 -248 70 -313 77 -47 6 -50 5 -37 -10z"/>
 <path d="M2240 3310 c-67 -9 -128 -27 -151 -47 -8 -6 -26 -14 -42 -18 -15 -4 -27 -13 -27 -21 0 -10 10 -12 44 -8 43 6 45 5 51 -22 12 -54 38 -105 69 -132 62 -56 106 -112 106 -137 0 -14 -5 -25 -11 -25 -6 0 -9 -8 -7 -17 5 -27 34 -23 30 5 -7 52 57 2 86 -67 17 -43 18 -52 6 -62 -23 -19 -6 -29 52 -29 30 0 68 -7 84 -15 17 -9 62 -16 107 -18 l78 -2 7 63 c14 128 90 300 171 389 27 29 48 55 46 57 -9 7 -144 46 -160 46 -10 0 -20 4 -24 9 -3 6 -27 13 -53 17 -26 4 -64 13 -85 20 -46 16 -290 25 -377 14z"/>
 <path d="M2310 2745 c0 -10 7 -15 18 -13 21 4 19 22 -2 26 -10 2 -16 -3 -16 -13z"/>
 <path d="M2338 2654 c-20 -6 -25 -34 -5 -34 95 -1 244 -24 316 -50 87 -31 101 -31 101 -1 0 48 -94 78 -270 85 -69 3 -133 3 -142 0z"/>
 <path d="M2285 2540 c-16 -5 -48 -13 -71 -19 -22 -6 -60 -22 -85 -35 -37 -21 -48 -34 -64 -77 -10 -29 -33 -69 -51 -89 -35 -39 -97 -150 -108 -195 -4 -15 -2 -33 4 -40 8 -10 7 -21 -4 -42 -23 -46 -3 -168 38 -225 16 -23 18 -32 7 -54 -14 -32 -4 -122 16 -146 11 -12 13 -28 9 -53 -5 -23 -3 -42 5 -51 7 -8 12 -31 11 -50 -1 -25 8 -48 33 -83 19 -27 35 -60 35 -73 0 -14 7 -42 15 -62 9 -20 13 -42 9 -47 -3 -6 3 -24 15 -40 11 -15 21 -33 21 -39 0 -5 3 -10 8 -11 4 0 126 -2 272 -4 244 -3 458 -17 496 -32 18 -7 67 36 60 54 -3 7 -1 47 4 90 8 73 26 132 130 427 87 249 61 444 -86 628 -110 137 -215 199 -439 259 -74 20 -224 24 -280 9z"/>
 </g>
<g id="layer2" fill="#aea59d" stroke="none">
 <path d="M2204 3411 c-64 -11 -154 -41 -274 -93 -59 -25 -94 -75 -85 -117 8 -39 21 -40 28 -1 5 24 17 34 74 60 37 18 76 36 85 41 116 61 384 92 517 59 50 -12 169 -46 216 -62 17 -5 49 -14 73 -20 23 -5 40 -13 37 -18 -5 -7 -28 -3 -140 24 -33 8 -78 19 -100 25 -148 36 -257 40 -406 16 -88 -14 -220 -65 -252 -97 -10 -10 -22 -18 -27 -18 -26 0 -4 -39 59 -105 48 -51 82 -99 110 -156 38 -77 70 -190 71 -246 0 -27 24 -30 77 -11 41 15 53 4 25 -24 -14 -15 -35 -22 -64 -24 -24 0 -46 -2 -50 -3 -13 -2 -48 -45 -48 -58 0 -23 40 -14 49 11 11 28 34 39 50 23 7 -7 26 -13 44 -13 175 -8 297 -23 318 -37 13 -10 38 -17 55 -17 17 0 37 -7 44 -15 18 -22 -7 -20 -78 5 -84 30 -303 29 -404 -1 -117 -36 -297 -174 -285 -220 4 -16 2 -19 -14 -14 -14 5 -19 2 -19 -13 0 -11 -7 -22 -15 -26 -17 -6 -70 -116 -92 -190 -19 -65 -11 -297 12 -332 8 -13 15 -33 15 -45 0 -13 8 -41 18 -63 25 -54 52 -137 52 -156 0 -9 14 -56 31 -105 34 -102 36 -111 38 -218 1 -71 3 -77 19 -69 31 16 107 20 126 6 13 -9 54 -11 167 -7 101 4 233 0 404 -12 l255 -19 25 24 c20 19 25 33 25 71 0 100 24 190 120 449 43 116 70 233 70 305 -1 218 -155 449 -377 565 -67 35 -75 45 -43 53 30 8 27 64 -5 97 -22 23 -24 31 -15 54 5 15 10 40 10 55 0 50 41 185 81 268 24 50 61 105 94 141 30 33 55 64 55 69 0 5 -14 14 -32 21 -42 16 -30 26 22 17 45 -8 60 -27 42 -56 -19 -30 -14 -39 18 -39 36 0 70 31 70 64 0 32 -55 79 -122 104 -29 11 -119 36 -200 56 -132 32 -163 36 -325 40 -98 3 -201 1 -229 -3z m577 -55 c174 -43 271 -87 285 -128 7 -23 -11 -55 -37 -63 -28 -9 -33 -1 -17 24 9 15 10 26 3 37 -11 16 -87 46 -195 77 -30 8 -86 25 -125 36 -38 12 -75 21 -81 21 -6 0 -18 7 -25 17 -13 15 -10 16 37 10 28 -3 98 -17 155 -31z m-164 -60 c21 -7 59 -16 85 -20 26 -4 50 -11 53 -17 4 -5 14 -9 24 -9 16 0 151 -39 160 -46 2 -2 -19 -28 -46 -57 -81 -89 -157 -261 -171 -389 l-7 -63 -78 2 c-45 2 -90 9 -107 18 -16 8 -54 15 -84 15 -58 0 -75 10 -52 29 12 10 11 19 -6 62 -29 69 -93 119 -86 67 4 -28 -25 -32 -30 -5 -2 9 1 17 7 17 6 0 11 11 11 25 0 25 -44 81 -106 137 -31 27 -57 78 -69 132 -6 27 -8 28 -51 22 -34 -4 -44 -2 -44 8 0 8 12 17 27 21 16 4 34 12 42 18 23 20 84 38 151 47 87 11 331 2 377 -14z m-459 -257 c19 -30 8 -34 -12 -4 -9 14 -13 25 -9 25 5 0 14 -9 21 -21z m185 -294 c1 -5 -6 -11 -15 -13 -11 -2 -18 3 -18 13 0 17 30 18 33 0z m317 -111 c61 -18 90 -38 90 -65 0 -30 -14 -30 -101 1 -72 26 -221 49 -316 50 -20 0 -15 28 5 34 33 10 267 -5 322 -20z m-95 -103 c224 -60 329 -122 439 -259 147 -184 173 -379 86 -628 -104 -295 -122 -354 -130 -427 -5 -43 -7 -83 -4 -90 7 -18 -42 -61 -60 -54 -38 15 -252 29 -496 32 -146 2 -268 4 -272 4 -5 1 -8 6 -8 11 0 6 -10 24 -21 39 -12 16 -18 34 -15 40 4 5 0 27 -9 47 -8 20 -15 48 -15 62 0 13 -16 46 -35 73 -25 35 -34 58 -33 83 1 19 -4 42 -11 50 -8 9 -10 28 -5 51 4 25 2 41 -9 53 -20 24 -30 114 -16 146 11 22 9 31 -7 54 -41 57 -61 179 -38 225 11 21 12 32 4 42 -6 7 -8 25 -4 40 11 45 73 156 108 195 18 20 41 60 51 89 16 43 27 56 64 77 25 13 63 29 85 35 23 6 55 14 71 19 56 15 206 11 280 -9z m-669 -330 c-9 -8 -18 -12 -22 -9 -9 10 3 25 21 25 14 0 14 -2 1 -16z m-2 -397 c26 -10 18 -41 -13 -54 -47 -19 -70 10 -35 44 17 18 24 19 48 10z m106 -552 c0 -15 -5 -34 -10 -42 -7 -11 -10 -2 -10 33 0 30 4 46 10 42 6 -3 10 -18 10 -33z"/>
 </g>
<g id="layer3" fill="#dcb345" stroke="none">
 <path d="M3220 2024 c-6 -14 -10 -57 -10 -95 0 -68 1 -71 41 -114 23 -25 45 -45 50 -45 13 0 137 -129 168 -177 50 -75 91 -196 91 -266 0 -160 -72 -250 -228 -287 -63 -14 -164 -1 -226 31 -31 16 -41 18 -47 7 -6 -9 -9 -4 -9 15 0 21 7 31 34 44 46 22 64 64 42 97 -19 31 -52 42 -72 25 -12 -10 -14 -23 -10 -54 5 -28 2 -51 -10 -73 -25 -50 -13 -73 55 -104 91 -41 176 -60 235 -53 58 8 134 28 168 45 41 22 99 84 120 130 30 65 29 191 -2 285 -68 208 -191 390 -295 439 -47 22 -51 35 -25 79 18 30 19 39 9 59 -24 46 -64 52 -79 12z"/>
 <path d="M1632 2028 c-20 -20 -15 -59 8 -65 25 -7 26 -44 2 -66 -10 -9 -37 -19 -60 -23 -23 -4 -45 -11 -48 -15 -3 -5 -14 -9 -24 -9 -10 0 -47 -23 -82 -51 -47 -37 -63 -57 -64 -76 -1 -28 -27 -53 -56 -53 -10 0 -18 -6 -18 -14 0 -7 -7 -19 -15 -26 -8 -7 -15 -28 -15 -46 0 -23 -5 -34 -15 -34 -15 0 -40 -73 -31 -95 2 -7 0 -32 -5 -55 -7 -29 -6 -47 1 -54 5 -5 10 -33 10 -60 0 -28 4 -57 9 -65 6 -9 5 -24 0 -39 -10 -27 14 -81 40 -90 8 -3 11 0 8 5 -3 5 -1 15 4 23 8 13 10 13 18 0 6 -9 6 -19 -1 -27 -8 -10 -6 -13 6 -13 9 0 16 -7 16 -15 0 -8 8 -15 18 -15 10 0 27 -7 39 -15 12 -8 70 -22 130 -31 128 -20 213 -10 303 34 66 33 80 57 80 143 0 57 -3 69 -24 89 -56 51 -119 13 -114 -68 3 -42 0 -47 -31 -69 -52 -36 -135 -56 -201 -50 -69 6 -127 34 -170 83 -50 58 -64 98 -64 194 -1 75 2 92 29 145 38 75 118 154 209 207 197 115 209 128 197 227 -6 49 -13 69 -30 83 -27 21 -42 23 -59 6z"/>
 <path d="M2138 1044 c-161 -14 -218 -25 -218 -41 0 -5 23 -21 50 -38 34 -21 50 -37 50 -51 0 -12 8 -25 18 -29 9 -4 230 -12 490 -18 449 -9 473 -9 492 8 24 21 25 46 6 83 -27 52 -44 59 -161 66 -60 4 -139 11 -175 16 -126 17 -382 19 -552 4z"/>
 <path d="M1915 890 c-17 -7 -15 -9 13 -9 17 -1 32 4 32 9 0 12 -17 12 -45 0z"/>
 </g>
<g id="layer4" fill="#8f7447" stroke="none">
 <path d="M2320 3441 c0 -4 -32 -12 -70 -15 -152 -15 -362 -97 -404 -158 -16 -23 -21 -64 -10 -92 9 -23 39 -20 58 7 11 14 19 18 22 10 3 -6 36 -42 73 -80 102 -103 164 -229 182 -367 l10 -79 -30 -31 c-26 -26 -31 -40 -31 -79 0 -44 -2 -48 -37 -66 -54 -27 -151 -114 -201 -180 -53 -70 -84 -134 -113 -233 -12 -43 -27 -78 -34 -78 -6 0 -22 11 -35 25 -29 31 -64 32 -84 3 -21 -30 -20 -47 5 -74 12 -13 19 -29 17 -36 -3 -7 -37 -21 -76 -31 -154 -40 -293 -178 -354 -351 -24 -71 -28 -96 -28 -198 0 -178 34 -249 150 -308 98 -50 307 -69 399 -36 47 17 81 21 81 9 -1 -5 -7 -19 -15 -33 -18 -31 -19 -84 -2 -98 9 -7 211 -13 612 -18 585 -7 601 -6 624 13 13 11 24 30 24 44 0 35 -54 119 -77 119 -16 0 -15 -3 8 -21 30 -23 56 -69 56 -97 0 -10 -9 -27 -20 -37 -19 -17 -43 -17 -492 -8 -260 6 -481 14 -490 18 -10 4 -18 17 -18 29 0 14 -16 30 -50 51 -27 17 -50 33 -50 38 0 17 57 27 242 42 194 15 361 14 523 -5 99 -11 276 -21 253 -14 -24 7 -23 13 11 49 27 27 30 37 35 120 4 67 3 80 -4 50 -5 -22 -9 -63 -9 -91 -1 -41 -6 -55 -26 -74 l-25 -24 -255 19 c-171 12 -303 16 -404 12 -113 -4 -154 -2 -167 7 -19 14 -95 10 -126 -6 -16 -8 -18 -2 -19 69 -2 107 -4 116 -38 218 -17 49 -31 96 -31 105 0 19 -27 102 -52 156 -10 22 -18 50 -18 63 0 12 -7 32 -15 45 -23 35 -31 267 -12 332 22 74 75 184 92 190 8 4 15 15 15 26 0 15 5 18 19 13 16 -5 18 -2 14 14 -12 46 168 184 285 220 101 30 320 31 404 1 71 -25 96 -27 78 -5 -7 8 -27 15 -44 15 -17 0 -42 7 -55 17 -21 14 -143 29 -318 37 -18 0 -37 6 -44 13 -16 16 -39 5 -50 -23 -9 -25 -49 -34 -49 -11 0 13 35 56 48 58 4 1 26 3 50 3 29 2 50 9 64 24 28 28 16 39 -25 24 -53 -19 -77 -16 -77 11 -1 56 -33 169 -71 246 -28 57 -62 105 -110 156 -63 66 -85 105 -59 105 5 0 17 8 27 18 32 32 164 83 252 97 149 24 258 20 406 -16 22 -6 67 -17 100 -25 112 -27 135 -31 140 -24 3 5 -14 13 -37 18 -24 6 -56 15 -73 20 -47 16 -166 50 -216 62 -133 33 -401 2 -517 -59 -9 -5 -48 -23 -85 -41 -57 -26 -69 -36 -74 -60 -7 -39 -20 -38 -28 1 -5 23 -1 38 16 64 29 42 52 53 249 123 73 26 82 27 295 26 194 0 208 1 115 9 -58 4 -106 12 -108 17 -4 12 -92 13 -92 1z m-10 -861 c12 -8 9 -10 -13 -10 -16 0 -26 4 -22 10 8 12 16 12 35 0z m-619 -558 c17 -14 24 -34 30 -83 12 -99 0 -112 -197 -227 -91 -53 -171 -132 -209 -207 -27 -53 -30 -70 -29 -145 0 -96 14 -136 64 -194 43 -49 101 -77 170 -83 66 -6 149 14 201 50 31 22 34 27 31 69 -5 81 58 119 114 68 21 -20 24 -32 24 -89 0 -86 -14 -110 -80 -143 -90 -44 -175 -54 -303 -34 -60 9 -118 23 -130 31 -12 8 -29 15 -39 15 -10 0 -18 7 -18 15 0 8 -7 15 -16 15 -12 0 -14 3 -6 13 7 8 7 18 1 27 -8 13 -10 13 -18 0 -5 -8 -7 -18 -4 -23 3 -5 0 -8 -8 -5 -26 9 -50 63 -40 90 5 15 6 30 0 39 -5 8 -9 37 -9 65 0 27 -5 55 -10 60 -7 7 -8 25 -1 54 5 23 7 48 5 55 -9 22 16 95 31 95 10 0 15 11 15 34 0 18 7 39 15 46 8 7 15 19 15 26 0 8 8 14 18 14 29 0 55 25 56 53 1 19 17 39 64 76 35 28 72 51 82 51 10 0 21 4 24 9 3 4 25 11 48 15 23 4 50 14 60 23 24 22 23 59 -2 66 -35 9 -21 77 16 77 6 0 22 -8 35 -18z m95 -297 c9 -27 29 -84 45 -126 16 -42 33 -98 39 -125 6 -27 20 -80 31 -117 11 -38 19 -78 17 -89 -3 -21 -4 -20 -34 5 -48 40 -75 43 -113 11 -31 -26 -33 -30 -27 -75 6 -45 5 -48 -26 -67 -51 -31 -145 -55 -198 -50 -106 10 -185 79 -216 187 -48 163 56 340 262 446 45 23 101 63 133 95 l56 55 8 -50 c4 -27 14 -72 23 -100z m199 -675 c-3 -5 -28 -10 -56 -10 -27 0 -49 5 -49 10 0 6 25 10 56 10 34 0 53 -4 49 -10z m-25 -160 c0 -5 -15 -10 -32 -9 -28 0 -30 2 -13 9 28 12 45 12 45 0z"/>
 <path d="M2775 3370 c11 -5 27 -9 35 -9 9 0 8 4 -5 9 -11 5 -27 9 -35 9 -9 0 -8 -4 5 -9z"/>
 <path d="M2914 3236 c11 -9 26 -16 33 -16 24 0 13 -24 -34 -75 -39 -40 -40 -43 -8 -12 44 40 60 45 69 22 16 -44 117 6 115 57 -1 19 -2 18 -10 -7 -11 -37 -34 -55 -71 -55 -30 0 -37 17 -15 39 10 10 9 12 -2 9 -8 -2 -17 6 -19 17 -4 17 -2 18 12 6 10 -8 16 -9 16 -3 0 15 -11 20 -61 27 -41 6 -43 5 -25 -9z"/>
 <path d="M2146 3035 c9 -14 19 -24 21 -21 6 6 -20 46 -30 46 -4 0 0 -11 9 -25z"/>
 <path d="M2825 3030 c-9 -16 -13 -30 -11 -30 3 0 12 14 21 30 9 17 13 30 11 30 -3 0 -12 -13 -21 -30z"/>
 <path d="M2733 2735 c0 -22 2 -30 4 -17 2 12 2 30 0 40 -3 9 -5 -1 -4 -23z"/>
 <path d="M2717 2668 c-5 -16 1 -30 18 -48 32 -34 35 -89 5 -97 -26 -7 -21 -24 11 -35 22 -7 22 -7 6 6 -15 12 -15 15 -2 26 24 20 19 73 -10 100 -18 17 -23 30 -19 47 4 12 4 23 1 23 -2 0 -7 -10 -10 -22z"/>
 <path d="M2780 2476 c0 -3 14 -12 30 -21 17 -9 30 -13 30 -11 0 3 -13 12 -30 21 -16 9 -30 13 -30 11z"/>
 <path d="M2850 2437 c0 -2 19 -19 43 -37 23 -19 36 -26 28 -17 -15 19 -71 61 -71 54z"/>
 <path d="M2970 2335 c19 -19 36 -35 39 -35 3 0 -10 16 -29 35 -19 19 -36 35 -39 35 -3 0 10 -16 29 -35z"/>
 <path d="M1874 2208 c-11 -17 6 -22 22 -7 13 14 13 16 -1 16 -9 0 -18 -4 -21 -9z"/>
 <path d="M3097 2155 c9 -19 18 -33 21 -31 4 5 -26 66 -33 66 -3 0 3 -16 12 -35z"/>
 <path d="M3205 2030 c-19 -37 -40 -38 -54 -2 l-11 27 7 -30 c3 -16 9 -66 13 -110 4 -44 8 -72 8 -62 2 19 32 24 32 5 0 -6 58 -68 129 -137 98 -96 134 -139 154 -182 47 -100 57 -141 57 -229 0 -75 -3 -91 -29 -135 -35 -62 -51 -76 -121 -105 -47 -19 -67 -22 -145 -18 -85 5 -144 22 -160 48 -3 6 10 25 29 44 43 40 46 72 11 110 -29 32 -74 35 -100 6 -21 -23 -33 -158 -18 -198 18 -47 217 -109 316 -98 145 15 241 71 292 171 28 54 30 66 29 154 -1 78 -7 110 -29 171 -76 207 -176 352 -293 424 l-43 27 21 34 c14 23 19 42 15 57 -20 64 -83 80 -110 28z m71 12 c6 -4 16 -17 23 -30 10 -20 9 -29 -9 -59 -26 -44 -22 -57 25 -79 104 -49 227 -231 295 -439 31 -94 32 -220 2 -285 -21 -46 -79 -108 -120 -130 -34 -17 -110 -37 -168 -45 -59 -7 -144 12 -235 53 -68 31 -80 54 -55 104 12 22 15 45 10 73 -4 31 -2 44 10 54 20 17 53 6 72 -25 22 -33 4 -75 -42 -97 -27 -13 -34 -23 -34 -44 0 -19 3 -24 9 -15 6 11 16 9 47 -7 62 -32 163 -45 226 -31 156 37 228 127 228 287 0 70 -41 191 -91 266 -31 48 -155 177 -168 177 -5 0 -27 20 -50 45 -40 43 -41 46 -41 114 0 104 23 142 66 113z m-89 -109 c-3 -10 -5 -2 -5 17 0 19 2 27 5 18 2 -10 2 -26 0 -35z"/>
 <path d="M1846 1794 c-35 -34 -12 -63 35 -44 31 13 39 44 13 54 -24 9 -31 8 -48 -10z"/>
 <path d="M3136 1749 c-8 -42 0 -50 9 -9 4 17 5 34 2 36 -2 3 -7 -10 -11 -27z"/>
 <path d="M1980 1243 c0 -35 3 -44 10 -33 13 20 13 67 0 75 -6 4 -10 -12 -10 -42z"/>
 </g>
<g id="layer5" fill="#b00c1b" stroke="none">
 <path d="M150 2480 l0 -2250 2250 0 2250 0 0 2250 0 2250 -2250 0 -2250 0 0 -2250z m732 1605 c10 -10 -62 -340 -98 -447 -35 -107 -54 -132 -81 -105 -18 17 -213 484 -213 509 0 27 35 23 59 -8 11 -14 27 -47 36 -73 l15 -47 91 -13 c107 -15 102 -19 120 84 7 38 16 78 21 88 8 16 38 23 50 12z m295 -23 c64 -31 73 -79 10 -53 -118 48 -136 47 -156 -10 -24 -69 -8 -167 35 -219 32 -37 58 -38 88 -3 15 17 29 24 39 20 26 -10 20 -32 -14 -61 -86 -73 -196 20 -206 174 -4 54 0 73 19 110 13 25 34 51 48 58 30 15 86 9 137 -16z m408 -83 c-1 -193 -55 -264 -158 -209 l-37 20 0 -121 c0 -127 -8 -159 -40 -159 -19 0 -20 8 -20 203 0 111 -3 232 -6 269 -6 59 -5 68 11 74 24 10 45 -21 45 -66 0 -49 25 -132 51 -164 25 -32 64 -34 80 -5 6 12 15 71 20 132 5 60 14 116 20 124 26 30 34 6 34 -98z m163 -45 c1 -84 -2 -163 -7 -178 -12 -29 -45 -36 -55 -10 -6 15 11 306 20 332 2 8 12 12 21 10 16 -3 18 -20 21 -154z m353 130 c33 -17 40 -54 10 -54 -10 0 -38 7 -61 15 -102 36 -160 5 -160 -85 l0 -50 114 0 c127 0 126 1 126 -72 0 -32 -7 -47 -35 -75 -34 -34 -38 -35 -95 -31 -52 4 -65 9 -95 38 -45 44 -70 110 -70 187 0 107 60 159 174 148 35 -3 77 -13 92 -21z m288 -1 c23 -28 124 -331 115 -345 -3 -4 -14 -8 -24 -8 -19 0 -27 21 -79 195 -30 100 -34 104 -55 43 -25 -77 -98 -221 -118 -232 -12 -7 -21 -7 -28 0 -8 8 4 40 42 115 29 57 60 129 67 159 27 110 42 123 80 73z m466 3 c24 -10 35 -21 35 -35 0 -25 -21 -27 -80 -6 -100 35 -158 6 -163 -80 l-2 -50 110 -3 c121 -3 135 -10 135 -64 0 -128 -177 -162 -253 -50 -48 70 -59 161 -30 233 22 57 75 82 155 75 32 -3 74 -12 93 -20z m473 -92 c4 -141 -4 -190 -33 -220 -34 -34 -62 -30 -101 13 l-33 36 -21 -26 c-28 -35 -56 -42 -86 -22 -14 9 -27 15 -28 13 -1 -2 -7 -15 -14 -30 -7 -18 -19 -28 -33 -28 -24 0 -24 -8 10 117 11 40 23 109 28 155 7 77 10 83 32 86 l23 4 -6 -109 c-10 -158 13 -215 52 -131 11 24 23 77 27 121 4 42 11 78 16 79 33 5 34 2 34 -97 0 -80 4 -107 18 -128 21 -32 42 -35 57 -8 5 11 10 72 10 136 0 115 10 160 33 152 8 -2 13 -40 15 -113z m351 92 c35 -18 47 -44 25 -53 -9 -3 -40 1 -68 11 -113 35 -166 8 -166 -84 l0 -50 114 0 c127 0 126 1 126 -72 0 -32 -7 -47 -34 -74 -29 -29 -41 -34 -80 -34 -96 0 -157 61 -176 174 -22 138 38 212 167 202 34 -3 76 -12 92 -20z m403 -122 c-4 -159 -16 -197 -68 -221 -30 -15 -35 -15 -57 0 -13 8 -32 31 -41 51 -22 47 -34 52 -42 19 -13 -55 -33 -83 -59 -83 -30 0 -31 5 -3 72 16 40 23 83 27 173 6 112 7 120 27 123 19 3 22 -3 27 -70 8 -89 29 -163 60 -209 50 -75 77 -29 77 131 0 89 4 121 16 138 32 46 39 22 36 -124z m208 -28 l0 -164 43 -7 c54 -9 61 -14 46 -31 -6 -8 -29 -14 -50 -14 l-39 0 0 -48 c0 -48 -12 -72 -37 -72 -9 0 -13 18 -13 65 l0 65 -29 0 c-16 0 -42 5 -58 11 -27 10 -28 11 -8 25 14 11 32 14 58 10 l37 -6 0 82 c0 46 3 120 7 166 5 71 8 82 24 82 18 0 19 -11 19 -164z m-2550 -301 c20 -24 3 -57 -28 -53 -27 3 -39 26 -28 54 7 18 40 18 56 -1z m890 -174 c0 -5 19 -12 43 -16 72 -12 299 -76 337 -95 121 -62 135 -169 28 -209 -19 -7 -37 -7 -54 0 -39 14 -59 4 -97 -50 -59 -81 -91 -167 -122 -324 -17 -84 -17 -89 1 -108 11 -12 19 -39 21 -76 2 -31 4 -57 6 -58 1 -1 36 -25 77 -52 124 -83 245 -229 280 -336 13 -41 34 -57 53 -38 22 22 77 13 109 -20 29 -29 30 -33 25 -89 -6 -58 -6 -60 22 -74 66 -35 179 -185 240 -321 34 -75 39 -88 45 -117 4 -16 11 -28 16 -28 6 0 10 -55 10 -140 0 -77 -4 -140 -9 -140 -5 0 -14 -13 -19 -30 -13 -36 -86 -110 -133 -134 -104 -54 -265 -70 -364 -36 -32 11 -62 20 -66 20 -5 0 -6 -20 -2 -45 4 -30 1 -55 -7 -70 l-13 -25 -642 0 -641 0 -12 33 c-7 19 -9 48 -6 65 8 37 2 39 -70 17 -64 -20 -102 -19 -213 5 -168 35 -270 101 -305 197 -7 18 -16 33 -20 33 -4 0 -8 72 -8 160 0 88 4 160 9 160 5 0 13 19 19 43 14 52 68 144 129 214 53 62 137 122 208 148 66 24 69 28 66 78 -2 34 3 47 21 64 34 31 64 37 100 19 17 -9 32 -16 33 -16 1 0 12 30 25 68 12 37 36 93 53 126 38 72 146 189 224 242 52 36 59 44 64 82 3 27 15 53 34 72 l29 30 -12 82 c-17 120 -85 254 -169 335 -35 33 -55 42 -85 36 -36 -7 -88 43 -88 83 0 34 32 85 73 116 37 29 193 93 250 103 20 4 37 11 37 16 0 5 105 9 235 9 135 0 235 -4 235 -9z"/>
 <path d="M630 3839 c0 -23 84 -209 91 -201 14 14 59 186 51 194 -5 5 -38 11 -75 15 -53 5 -67 3 -67 -8z"/>
 <path d="M1902 3828 c6 -18 78 -66 109 -73 32 -8 69 26 69 62 0 22 -3 23 -91 23 -68 0 -90 -3 -87 -12z"/>
 <path d="M2660 3831 c0 -16 58 -59 97 -72 35 -11 38 -10 60 16 42 48 29 60 -70 63 -50 2 -87 -1 -87 -7z"/>
 <path d="M3482 3828 c6 -18 77 -64 110 -72 34 -8 68 22 68 59 0 25 -1 25 -91 25 -68 0 -90 -3 -87 -12z"/>
 <path d="M1710 1795 c-13 -16 -97 -75 -106 -75 -3 0 -35 -20 -73 -44 -89 -59 -171 -149 -193 -213 -42 -119 -9 -242 80 -307 41 -29 50 -31 125 -31 65 0 92 5 130 24 45 22 47 25 41 56 -6 35 12 81 42 106 9 7 40 16 68 19 47 5 51 7 48 30 -4 45 -127 428 -141 443 -4 4 -14 1 -21 -8z"/>
 <path d="M3175 1783 c-15 -70 -78 -257 -114 -338 -16 -35 -42 -127 -38 -132 3 -2 24 -6 48 -9 50 -6 76 -25 95 -71 15 -35 11 -57 -19 -90 -26 -29 -16 -49 30 -62 82 -23 191 -4 256 43 124 91 90 356 -66 516 -76 79 -173 170 -180 170 -4 0 -9 -12 -12 -27z"/>
 </g>
<g id="layer6" fill="#68312b" stroke="none">
 <path d="M3284 3955 c0 -60 1 -84 3 -52 2 32 2 81 0 110 -2 29 -3 3 -3 -58z"/>
 <path d="M3177 4033 c6 -4 13 -26 16 -48 4 -40 4 -40 3 4 -1 30 -6 46 -16 48 -10 3 -11 2 -3 -4z"/>
 <path d="M1533 3965 c0 -27 2 -38 4 -22 2 15 2 37 0 50 -2 12 -4 0 -4 -28z"/>
 <path d="M3843 3945 c0 -27 2 -38 4 -22 2 15 2 37 0 50 -2 12 -4 0 -4 -28z"/>
 <path d="M1833 3935 c0 -22 2 -30 4 -17 2 12 2 30 0 40 -3 9 -5 -1 -4 -23z"/>
 <path d="M4243 3920 c0 -30 2 -43 4 -27 2 15 2 39 0 55 -2 15 -4 2 -4 -28z"/>
 <path d="M1883 3918 c1 -23 7 -33 20 -34 11 -1 12 0 3 3 -8 2 -17 17 -20 34 -6 28 -6 28 -3 -3z"/>
 <path d="M4072 3830 c0 -19 2 -27 5 -17 2 9 2 25 0 35 -3 9 -5 1 -5 -18z"/>
 <path d="M2023 3843 c9 -2 25 -2 35 0 9 3 1 5 -18 5 -19 0 -27 -2 -17 -5z"/>
 <path d="M2770 3846 c0 -2 15 -6 34 -8 19 -2 32 0 30 4 -5 8 -64 12 -64 4z"/>
 <path d="M3603 3843 c9 -2 25 -2 35 0 9 3 1 5 -18 5 -19 0 -27 -2 -17 -5z"/>
 <path d="M4243 3795 c0 -27 2 -38 4 -22 2 15 2 37 0 50 -2 12 -4 0 -4 -28z"/>
 <path d="M1683 3785 c0 -22 2 -30 4 -17 2 12 2 30 0 40 -3 9 -5 -1 -4 -23z"/>
 <path d="M1382 3668 l2 -133 3 128 c3 91 7 126 15 121 7 -4 8 -3 4 4 -20 33 -26 2 -24 -120z"/>
 <path d="M1333 3715 c0 -38 2 -53 4 -32 2 20 2 52 0 70 -2 17 -4 1 -4 -38z"/>
 <path d="M4243 3645 c0 -38 2 -53 4 -32 2 20 2 52 0 70 -2 17 -4 1 -4 -38z"/>
 <path d="M2160 3441 c0 -5 -17 -12 -37 -16 -57 -10 -213 -74 -250 -103 -41 -31 -73 -82 -73 -116 0 -40 52 -90 88 -83 30 6 50 -3 85 -36 84 -81 152 -215 169 -335 l12 -82 -29 -30 c-19 -19 -31 -45 -34 -72 -5 -38 -12 -46 -64 -82 -78 -53 -186 -170 -224 -242 -17 -33 -41 -89 -53 -126 -13 -38 -24 -68 -25 -68 -1 0 -16 7 -33 16 -36 18 -66 12 -100 -19 -18 -17 -23 -30 -21 -64 3 -50 0 -54 -66 -78 -71 -26 -155 -86 -208 -148 -61 -70 -115 -162 -129 -214 -6 -24 -14 -43 -19 -43 -5 0 -9 -43 -9 -95 0 -57 4 -95 10 -95 6 0 10 -9 10 -20 0 -11 -4 -20 -10 -20 -5 0 -10 -20 -10 -45 0 -25 4 -45 8 -45 4 0 13 -15 20 -33 35 -96 137 -162 305 -197 111 -24 149 -25 213 -5 72 22 78 20 70 -17 -3 -17 -1 -46 6 -65 l12 -33 641 0 642 0 13 25 c8 15 11 40 7 70 -4 25 -3 45 2 45 4 0 34 -9 66 -20 99 -34 260 -18 364 36 47 24 120 98 133 134 5 17 14 30 19 30 5 0 9 63 9 140 0 85 -4 140 -10 140 -5 0 -12 12 -16 28 -6 29 -11 42 -45 117 -61 136 -174 286 -240 321 -28 14 -28 16 -22 74 5 56 4 60 -25 89 -32 33 -87 42 -109 20 -19 -19 -40 -3 -53 38 -35 107 -156 253 -280 336 -41 27 -76 51 -77 52 -2 1 -4 27 -6 58 -2 37 -10 64 -21 76 -18 19 -18 24 -1 108 31 157 63 243 122 324 38 54 58 64 97 50 54 -21 126 29 126 89 0 42 -40 89 -100 120 -38 19 -265 83 -337 95 -24 4 -43 11 -43 16 0 5 -49 9 -110 9 -60 0 -110 -4 -110 -9 0 -5 39 -12 88 -15 153 -11 449 -85 521 -131 73 -45 88 -89 46 -130 -28 -28 -82 -34 -91 -10 -10 26 -31 17 -76 -33 -79 -89 -130 -219 -166 -422 -9 -51 -8 -57 14 -81 27 -29 32 -74 9 -99 -13 -14 -8 -20 48 -52 165 -95 285 -238 337 -400 24 -75 41 -85 65 -38 27 52 90 36 110 -28 4 -15 -1 -34 -15 -57 l-21 -34 43 -27 c117 -72 217 -217 293 -424 22 -61 28 -93 29 -171 1 -88 -1 -100 -29 -154 -51 -100 -147 -156 -292 -171 -99 -11 -298 51 -316 98 -15 40 -3 175 18 198 26 29 71 26 100 -6 35 -38 32 -70 -11 -110 -19 -19 -32 -38 -29 -44 16 -26 75 -43 160 -48 78 -4 98 -1 145 18 70 29 86 43 121 105 26 44 29 60 29 135 0 88 -10 129 -57 229 -20 43 -56 86 -154 182 -71 69 -129 131 -129 137 0 7 -6 12 -14 12 -10 0 -18 -20 -26 -57 -12 -62 -40 -149 -115 -357 -37 -104 -48 -151 -56 -240 -10 -104 -13 -113 -42 -143 -35 -37 -31 -47 16 -45 29 1 36 -4 61 -46 16 -26 29 -57 29 -69 0 -13 4 -23 10 -23 11 0 0 -15 -11 -15 -4 -1 -18 -7 -32 -14 -20 -12 -125 -13 -619 -7 -397 5 -600 11 -608 18 -17 14 -16 67 2 98 8 14 14 28 15 33 0 12 -34 8 -81 -9 -92 -33 -301 -14 -399 36 -116 59 -150 130 -150 308 0 102 4 127 28 198 61 173 200 311 354 351 39 10 73 24 76 31 2 7 -5 23 -17 36 -25 27 -26 44 -5 74 20 29 55 28 84 -3 13 -14 29 -25 35 -25 7 0 22 35 34 78 29 99 60 163 113 233 50 66 147 153 201 180 35 18 37 22 37 66 0 39 5 53 31 79 l30 31 -10 79 c-18 138 -80 264 -182 367 -37 38 -70 74 -73 80 -3 8 -11 4 -22 -10 -19 -27 -49 -30 -58 -7 -11 28 -6 69 10 92 42 61 252 143 404 158 38 3 70 11 70 15 0 5 -36 9 -80 9 -44 0 -80 -4 -80 -9z m1028 -1403 c-6 -18 -28 -21 -28 -4 0 9 7 16 16 16 9 0 14 -5 12 -12z m66 -285 c125 -120 168 -170 201 -238 79 -159 70 -324 -22 -391 -65 -47 -174 -66 -256 -43 -46 13 -56 33 -30 62 30 33 34 55 19 90 -19 46 -45 65 -95 71 -24 3 -45 7 -48 9 -4 5 22 97 38 132 36 81 99 268 114 338 3 15 8 27 12 27 3 0 33 -26 67 -57z"/>
 <path d="M2970 3217 c0 -19 16 -31 24 -18 3 5 -1 14 -9 21 -12 10 -15 10 -15 -3z"/>
 <path d="M2275 2580 c-4 -6 6 -10 22 -10 22 0 25 2 13 10 -19 12 -27 12 -35 0z"/>
 <path d="M3182 1950 c0 -19 2 -27 5 -17 2 9 2 25 0 35 -3 9 -5 1 -5 -18z"/>
 <path d="M1699 1820 c-32 -32 -88 -72 -133 -95 -206 -106 -310 -283 -262 -446 31 -108 110 -177 216 -187 53 -5 147 19 198 50 31 19 32 22 26 67 -6 45 -4 49 27 75 38 32 65 29 113 -11 30 -25 31 -26 34 -5 2 11 -6 51 -17 89 -11 37 -25 90 -31 117 -6 27 -23 83 -39 125 -43 116 -60 171 -68 226 l-8 50 -56 -55z m89 -175 c62 -190 81 -254 84 -285 3 -23 -1 -25 -48 -30 -28 -3 -59 -12 -68 -19 -30 -25 -48 -71 -42 -106 6 -31 4 -34 -41 -56 -38 -19 -65 -24 -130 -24 -75 0 -84 2 -125 31 -89 65 -122 188 -80 307 22 64 104 154 193 213 38 24 70 44 73 44 9 0 93 59 106 75 7 9 17 12 21 8 4 -4 30 -75 57 -158z"/>
 <path d="M1880 1050 c0 -5 22 -10 49 -10 28 0 53 5 56 10 4 6 -15 10 -49 10 -31 0 -56 -4 -56 -10z"/>
 </g>
<g id="layer7" fill="#1a2323" stroke="none">
 <path d="M300 4805 l0 -75 2175 0 2175 0 0 -2175 0 -2175 75 0 75 0 0 2250 0 2250 -2250 0 -2250 0 0 -75z"/>
 <path d="M843 4082 c-6 -4 -16 -36 -23 -72 -6 -36 -16 -79 -21 -97 -9 -30 -13 -32 -42 -26 -18 4 -61 11 -96 17 l-64 11 -19 54 c-19 58 -43 91 -65 91 -7 0 -16 -6 -19 -13 -2 -7 42 -125 99 -263 95 -228 106 -249 128 -249 21 0 28 11 57 95 31 87 102 395 102 441 0 19 -16 25 -37 11z m-66 -245 c8 -8 -36 -172 -52 -193 -9 -13 -18 -1 -53 78 -23 52 -45 103 -48 113 -7 16 -1 17 70 13 42 -3 79 -8 83 -11z"/>
 <path d="M1049 4076 c-48 -16 -74 -71 -73 -156 2 -100 53 -192 113 -205 54 -12 143 47 114 76 -13 13 -41 1 -54 -22 -23 -43 -90 -5 -119 68 -19 48 -10 166 15 193 23 25 45 23 122 -11 55 -24 68 -23 57 5 -15 38 -120 70 -175 52z"/>
 <path d="M1930 4077 c-62 -17 -90 -59 -90 -140 0 -76 15 -127 52 -171 51 -62 152 -73 203 -21 29 28 42 88 26 122 -11 25 -12 25 -121 22 -60 -2 -112 -1 -115 3 -13 13 7 110 26 129 24 24 88 25 153 3 35 -12 51 -13 59 -5 18 18 -20 49 -72 56 -25 4 -53 8 -61 10 -8 2 -35 -2 -60 -8z m146 -242 c10 -26 -6 -65 -31 -77 -18 -8 -32 -8 -56 2 -35 15 -89 57 -89 70 0 5 26 11 58 13 31 2 70 4 85 5 17 1 30 -4 33 -13z"/>
 <path d="M2342 4078 c-6 -7 -18 -42 -27 -77 -9 -35 -39 -108 -66 -162 -27 -54 -49 -103 -49 -109 0 -5 9 -10 20 -10 15 0 31 21 63 88 25 48 52 111 62 141 l18 55 17 -35 c10 -19 30 -78 45 -131 15 -54 33 -105 40 -115 16 -22 50 -10 40 15 -4 9 -27 78 -51 152 -42 131 -74 200 -93 200 -5 0 -13 -6 -19 -12z"/>
 <path d="M2690 4080 c-94 -22 -126 -161 -65 -280 33 -63 107 -100 173 -85 64 14 105 90 82 150 l-10 27 -113 -3 c-111 -4 -112 -4 -115 20 -6 38 8 91 29 112 24 24 87 25 153 3 34 -12 51 -13 58 -6 36 36 -107 81 -192 62z m148 -262 c5 -39 -31 -72 -69 -64 -37 7 -109 55 -109 72 0 9 19 14 58 17 107 7 117 5 120 -25z"/>
 <path d="M3511 4076 c-68 -17 -86 -49 -86 -149 0 -65 5 -91 23 -124 44 -85 143 -118 212 -71 41 28 60 82 44 126 l-10 27 -112 0 -112 0 0 56 c0 45 4 60 23 77 28 26 79 29 151 7 51 -16 66 -13 66 11 0 34 -124 59 -199 40z m147 -259 c4 -33 -22 -67 -50 -67 -36 0 -128 59 -128 81 0 8 86 16 145 15 25 -1 31 -5 33 -29z"/>
 <path d="M1546 4064 c-3 -9 -6 -39 -6 -67 0 -125 -30 -213 -68 -200 -53 19 -80 70 -92 170 -9 80 -19 100 -45 89 -15 -5 -16 -16 -10 -79 4 -39 8 -160 9 -267 1 -149 4 -195 14 -194 6 1 17 2 22 3 6 0 10 55 10 141 0 129 6 160 26 129 3 -6 22 -18 42 -26 89 -37 141 58 142 260 0 49 -3 57 -19 57 -10 0 -22 -7 -25 -16z"/>
 <path d="M1695 3914 c-8 -177 -2 -206 33 -171 14 15 18 41 20 153 4 155 0 184 -27 184 -17 0 -19 -13 -26 -166z"/>
 <path d="M3290 3973 c-1 -161 -17 -216 -58 -194 -28 15 -42 70 -42 169 0 74 -2 83 -17 80 -15 -3 -20 -21 -28 -93 -11 -90 -33 -145 -61 -145 -19 0 -27 56 -23 172 4 90 2 103 -13 106 -20 4 -22 -3 -36 -133 -6 -49 -19 -117 -31 -149 -11 -32 -18 -63 -15 -67 10 -17 25 -9 45 26 l21 35 25 -20 c23 -18 28 -18 53 -5 15 8 30 21 33 30 10 24 31 18 50 -15 15 -25 24 -30 57 -30 61 0 73 32 78 203 4 134 4 137 -17 137 -20 0 -21 -5 -21 -107z"/>
 <path d="M3853 4068 c-4 -7 -8 -56 -9 -108 0 -77 -5 -109 -27 -169 -15 -41 -27 -76 -27 -78 0 -3 10 -3 23 -1 21 3 40 32 65 98 8 23 10 22 38 -30 26 -49 33 -55 65 -58 30 -3 41 2 62 27 26 31 34 88 40 266 2 54 0 60 -18 60 -26 0 -32 -31 -34 -168 0 -60 -6 -117 -11 -128 -18 -32 -47 -23 -73 24 -34 59 -47 102 -55 192 -7 76 -20 101 -39 73z"/>
 <path d="M4256 4071 c-4 -5 -7 -80 -7 -166 l-1 -157 -37 5 c-37 5 -71 -6 -71 -22 0 -5 25 -12 55 -16 l55 -6 0 -65 c0 -35 4 -64 10 -64 17 0 30 37 30 85 0 46 1 47 26 41 32 -8 64 1 64 19 0 9 -15 15 -42 17 l-43 3 -3 168 c-2 136 -5 167 -17 167 -7 0 -16 -4 -19 -9z"/>
 <path d="M1690 3615 c-25 -30 15 -70 45 -45 19 16 19 25 -1 44 -19 20 -28 20 -44 1z"/>
 <path d="M3160 2034 c0 -9 5 -14 12 -12 18 6 21 28 4 28 -9 0 -16 -7 -16 -16z"/>
 <path d="M1140 1290 c0 -11 5 -20 10 -20 6 0 10 9 10 20 0 11 -4 20 -10 20 -5 0 -10 -9 -10 -20z"/>
 </g>

</svg>