<!DOCTYPE svg PUBLIC "-//W3C//DTD SVG 20010904//EN" "http://www.w3.org/TR/2001/REC-SVG-20010904/DTD/svg10.dtd">
<svg version="1.0" xmlns="http://www.w3.org/2000/svg" width="500px" height="500px" viewBox="0 0 5000 5000" preserveAspectRatio="xMidYMid meet">
<g id="layer1" fill="#fefafb" stroke="none">
 <path d="M2197 3933 c-9 -15 -23 -144 -32 -296 -3 -44 -7 -82 -9 -85 -2 -4 -1 -15 3 -25 6 -16 22 -19 141 -22 74 -2 164 -6 200 -10 36 -3 74 -7 85 -8 19 -2 20 4 21 103 1 58 4 128 7 155 17 147 18 167 9 178 -12 14 -417 23 -425 10z"/>
 <path d="M2169 2950 c-23 -6 -24 -9 -20 -71 7 -113 6 -610 -2 -712 -4 -54 -12 -107 -17 -117 -10 -19 2 -70 17 -70 46 -2 161 -23 186 -33 111 -48 137 -66 203 -133 130 -135 182 -312 139 -479 -9 -33 -24 -72 -35 -87 -11 -15 -20 -32 -20 -37 0 -6 -24 -35 -54 -65 -52 -52 -145 -106 -211 -122 -51 -12 -189 -9 -225 5 -147 57 -202 105 -255 221 -46 99 -49 189 -9 269 l26 52 -31 44 c-17 24 -31 46 -31 50 0 3 -10 21 -23 38 -27 40 -44 66 -57 92 -6 11 -19 34 -30 50 -11 17 -29 48 -40 70 -27 54 -57 106 -68 117 -5 5 -20 -15 -36 -49 -15 -32 -31 -66 -37 -75 -5 -10 -9 -23 -9 -30 0 -7 -7 -26 -15 -42 -17 -32 -21 -46 -59 -206 -20 -88 -24 -126 -22 -240 2 -144 10 -181 65 -300 25 -54 117 -175 169 -221 84 -74 176 -131 307 -190 44 -19 175 -49 265 -60 81 -9 146 -8 260 6 14 1 73 19 131 38 119 39 224 104 317 196 62 61 146 175 169 231 9 19 19 43 24 52 5 10 14 37 20 60 41 166 45 324 10 462 -13 50 -27 97 -31 105 -4 9 -15 32 -24 51 -42 89 -120 184 -211 260 -40 33 -76 60 -79 60 -3 0 -21 11 -40 24 -19 13 -74 36 -123 51 -86 27 -105 40 -111 80 -1 11 -4 156 -6 323 -2 167 -6 306 -9 308 -3 3 -45 7 -93 10 -49 3 -125 9 -170 13 -44 3 -91 4 -105 1z"/>
 </g>
<g id="layer2" fill="#f5dfab" stroke="none">
 <path d="M2407 4215 c-20 -23 -74 -71 -121 -106 -47 -35 -82 -67 -78 -71 4 -4 46 -3 92 4 76 11 90 16 154 63 139 99 176 129 168 136 -4 4 -46 9 -93 12 l-87 5 -35 -43z"/>
 <path d="M2625 4204 c-150 -113 -177 -136 -169 -144 5 -5 42 -10 81 -11 l73 -4 105 89 c59 49 103 92 98 96 -4 5 -35 11 -68 14 -59 5 -61 5 -120 -40z"/>
 <path d="M2780 4154 c-144 -116 -139 -110 -104 -126 36 -15 45 -28 38 -50 -12 -39 20 -23 108 55 120 108 120 107 116 159 -5 70 -33 63 -158 -38z"/>
 <path d="M2875 4053 c-27 -25 -75 -63 -106 -84 l-57 -39 -7 -74 c-4 -41 -4 -79 0 -86 4 -7 39 20 94 73 48 46 99 92 114 102 25 16 27 23 27 81 0 34 -3 65 -7 67 -5 3 -30 -15 -58 -40z"/>
 <path d="M2184 3936 c-8 -21 -1 -66 11 -69 6 -1 11 10 13 24 2 17 11 29 24 32 11 3 17 10 13 16 -9 16 -55 13 -61 -3z"/>
 <path d="M2425 3930 c-3 -5 0 -13 9 -16 21 -8 61 -1 61 11 0 14 -62 19 -70 5z"/>
 <path d="M2607 3934 c-3 -4 -2 -16 4 -26 13 -24 35 -9 26 16 -7 17 -19 21 -30 10z"/>
 <path d="M2849 3857 c-41 -35 -93 -82 -117 -103 l-43 -39 -3 -90 c-2 -49 -7 -103 -11 -118 -15 -57 10 -49 113 37 56 47 113 93 127 102 26 17 32 38 15 49 -11 7 -26 -2 -82 -45 -16 -12 -28 -19 -28 -16 0 3 24 24 54 46 l53 40 6 93 c3 50 2 95 -2 100 -4 4 -41 -21 -82 -56z"/>
 <path d="M2605 3860 c-4 -6 -3 -16 3 -22 6 -6 12 -6 17 2 4 6 3 16 -3 22 -6 6 -12 6 -17 -2z"/>
 <path d="M2174 3786 c-8 -21 3 -49 16 -41 5 3 10 15 10 25 0 25 -18 36 -26 16z"/>
 <path d="M2594 3766 c-4 -10 -2 -22 4 -28 8 -8 13 -7 18 6 4 10 2 22 -4 28 -8 8 -13 7 -18 -6z"/>
 <path d="M2164 3636 c-4 -10 -2 -22 4 -28 8 -8 13 -7 18 6 4 10 2 22 -4 28 -8 8 -13 7 -18 -6z"/>
 <path d="M2585 3638 c-9 -22 -2 -68 10 -71 14 -3 19 63 6 76 -7 7 -12 5 -16 -5z"/>
 <path d="M2154 3536 c-9 -22 1 -31 35 -34 34 -3 52 15 24 24 -10 3 -26 10 -36 15 -13 7 -19 5 -23 -5z"/>
 <path d="M2345 3521 c-7 -13 17 -24 40 -19 9 1 16 8 16 13 0 14 -48 19 -56 6z"/>
 <path d="M2465 3510 c-8 -12 20 -24 35 -15 6 3 8 11 5 16 -8 12 -32 12 -40 -1z"/>
 <path d="M2545 3500 c-8 -12 20 -24 35 -15 6 3 8 11 5 16 -8 12 -32 12 -40 -1z"/>
 <path d="M2262 3154 c-56 -58 -100 -109 -97 -114 2 -4 29 -2 58 4 49 10 59 17 135 101 45 50 80 95 79 100 -2 6 -19 11 -38 12 -31 2 -43 -7 -137 -103z"/>
 <path d="M2409 3162 c-44 -47 -78 -90 -76 -96 2 -6 35 -12 73 -14 l69 -3 78 91 c47 55 72 92 65 95 -7 2 -39 5 -71 8 l-58 4 -80 -85z"/>
 <path d="M2598 3146 c-43 -46 -78 -87 -78 -90 0 -9 65 -36 87 -36 19 0 196 194 186 204 -4 3 -31 6 -62 5 l-56 0 -77 -83z"/>
 <path d="M2747 3122 l-107 -108 7 -69 c5 -37 13 -70 19 -72 6 -2 39 33 74 77 34 45 77 96 95 113 29 29 33 39 37 96 2 37 -1 65 -7 68 -6 1 -59 -45 -118 -105z"/>
 <path d="M2755 2937 l-100 -112 -5 -100 c-3 -55 -3 -104 1 -108 3 -5 36 27 72 71 37 43 82 91 101 105 l34 26 4 108 c3 59 2 111 -2 115 -3 5 -51 -43 -105 -105z"/>
 <path d="M2135 2951 c-3 -6 -4 -15 -1 -20 8 -12 55 1 56 14 1 14 -47 19 -55 6z"/>
 <path d="M2315 2940 c-3 -5 0 -13 9 -16 21 -8 71 -1 71 11 0 14 -72 19 -80 5z"/>
 <path d="M2445 2930 c-8 -12 20 -24 35 -15 6 3 8 11 5 16 -8 12 -32 12 -40 -1z"/>
 <path d="M2145 2900 c-4 -6 -3 -16 3 -22 6 -6 12 -6 17 2 4 6 3 16 -3 22 -6 6 -12 6 -17 -2z"/>
 <path d="M2525 2859 c-10 -26 -1 -279 10 -279 14 0 19 270 6 283 -7 7 -12 5 -16 -4z"/>
 <path d="M2155 2808 c-9 -24 -2 -93 10 -93 14 0 19 85 6 98 -7 7 -12 5 -16 -5z"/>
 <path d="M2740 2676 l-95 -103 -6 -89 c-3 -49 -3 -93 1 -97 4 -4 45 30 91 76 46 46 96 92 111 103 l27 19 -7 94 c-4 52 -11 96 -17 97 -5 2 -53 -43 -105 -100z"/>
 <path d="M2155 2669 c-10 -26 -1 -399 10 -402 14 -3 19 393 6 406 -7 7 -12 5 -16 -4z"/>
 <path d="M2790 2487 c-100 -86 -136 -125 -124 -135 21 -19 166 -63 177 -54 14 11 190 153 195 157 2 2 -24 22 -57 45 -47 31 -65 39 -78 31 -12 -6 -20 -5 -28 6 -9 12 -23 3 -85 -50z"/>
 <path d="M2524 2427 c-7 -20 -2 -47 11 -50 14 -3 19 43 6 56 -7 7 -12 6 -17 -6z"/>
 <path d="M3034 2419 c-10 -12 -52 -49 -93 -82 -84 -69 -87 -55 27 -128 l62 -41 58 46 c31 25 76 60 100 76 23 17 40 35 37 40 -8 14 -152 110 -163 110 -5 0 -17 -10 -28 -21z"/>
 <path d="M2536 2328 c-8 -22 -2 -58 9 -58 13 0 17 57 5 65 -6 4 -12 0 -14 -7z"/>
 <path d="M3155 2229 c-49 -39 -91 -75 -93 -80 -2 -5 22 -38 54 -73 l57 -64 63 54 c61 51 122 90 130 82 2 -3 -24 -25 -59 -50 -34 -26 -75 -60 -90 -76 l-29 -30 40 -83 c22 -46 42 -92 46 -103 6 -16 14 -12 64 35 31 30 81 75 110 100 l54 46 -30 59 c-53 106 -182 255 -218 254 -5 -1 -49 -33 -99 -71z"/>
 <path d="M2556 2252 c-3 -6 1 -15 9 -22 8 -7 15 -9 15 -5 0 4 6 3 13 -2 23 -18 106 -42 113 -32 6 10 -56 39 -92 43 -13 1 -29 8 -38 15 -8 7 -17 8 -20 3z"/>
 <path d="M2144 2156 c-4 -10 -2 -22 4 -28 8 -8 13 -7 18 6 4 10 2 22 -4 28 -8 8 -13 7 -18 -6z"/>
 <path d="M2856 2112 c-3 -6 1 -15 8 -21 8 -7 17 -8 20 -3 3 6 -1 15 -8 21 -8 7 -17 8 -20 3z"/>
 <path d="M1677 2092 c-3 -4 17 -37 44 -75 l49 -67 128 -1 c83 0 120 -3 107 -9 -11 -5 -62 -9 -113 -8 -51 0 -95 -2 -98 -5 -3 -3 14 -37 39 -75 l45 -69 77 -6 c98 -9 160 -9 168 -1 7 7 -28 79 -42 89 -6 3 -22 45 -36 93 -15 48 -31 91 -36 96 -5 6 -30 9 -56 8 -27 -2 -97 6 -157 18 -128 23 -114 22 -119 12z"/>
 <path d="M2134 2086 c-4 -10 -2 -22 4 -28 8 -8 13 -7 18 6 4 10 2 22 -4 28 -8 8 -13 7 -18 -6z"/>
 <path d="M2896 2082 c-3 -5 5 -19 18 -31 13 -13 26 -18 30 -13 3 5 -5 19 -18 31 -13 13 -26 18 -30 13z"/>
 <path d="M1580 2005 c-6 -15 -13 -31 -15 -36 -3 -4 -1 -10 5 -14 5 -3 15 5 22 19 8 19 14 23 24 15 16 -13 31 8 15 24 -6 6 -11 7 -11 3 0 -5 -7 -3 -15 4 -12 10 -16 8 -25 -15z"/>
 <path d="M2135 1990 c-3 -6 1 -13 9 -16 21 -8 49 3 41 16 -8 13 -42 13 -50 0z"/>
 <path d="M2986 1992 c-3 -5 3 -17 13 -26 11 -10 22 -13 25 -8 3 5 -3 17 -13 26 -11 10 -22 13 -25 8z"/>
 <path d="M2235 1980 c-6 -10 14 -23 31 -19 5 1 22 -3 38 -10 20 -8 33 -8 39 -2 11 11 -38 35 -53 26 -5 -3 -11 -1 -15 5 -8 13 -32 13 -40 0z"/>
 <path d="M2376 1941 c-3 -5 5 -16 19 -25 24 -16 45 -6 22 11 -24 19 -36 23 -41 14z"/>
 <path d="M3026 1942 c-3 -6 1 -15 8 -21 8 -7 17 -8 20 -3 3 6 -1 15 -8 21 -8 7 -17 8 -20 3z"/>
 <path d="M3415 1881 c-126 -108 -128 -110 -115 -162 6 -24 15 -79 20 -122 5 -43 12 -82 16 -88 3 -6 33 15 67 48 34 33 83 74 110 93 54 38 56 50 33 172 -16 82 -32 128 -43 127 -5 0 -44 -31 -88 -68z"/>
 <path d="M1667 1913 c-4 -6 0 -18 7 -28 8 -11 16 -14 19 -8 4 6 0 18 -7 28 -8 11 -16 14 -19 8z"/>
 <path d="M2446 1902 c-3 -6 1 -15 8 -21 8 -7 17 -8 20 -3 3 6 -1 15 -8 21 -8 7 -17 8 -20 3z"/>
 <path d="M3066 1882 c-3 -6 1 -15 8 -21 8 -7 17 -8 20 -3 3 6 -1 15 -8 21 -8 7 -17 8 -20 3z"/>
 <path d="M1520 1860 c-11 -21 -5 -44 9 -35 13 7 20 44 11 50 -5 3 -14 -4 -20 -15z"/>
 <path d="M2486 1872 c-3 -5 3 -17 13 -26 11 -10 22 -13 25 -8 3 5 -3 17 -13 26 -11 10 -22 13 -25 8z"/>
 <path d="M2556 1802 c-3 -6 1 -15 8 -21 8 -7 17 -8 20 -3 3 6 -1 15 -8 21 -8 7 -17 8 -20 3z"/>
 <path d="M3115 1790 c-4 -6 -3 -16 3 -22 6 -6 12 -6 17 2 4 6 3 16 -3 22 -6 6 -12 6 -17 -2z"/>
 <path d="M1485 1760 c-4 -6 -3 -16 3 -22 6 -6 12 -6 17 2 4 6 3 16 -3 22 -6 6 -12 6 -17 -2z"/>
 <path d="M1904 1758 c-3 -5 11 -35 30 -67 20 -32 36 -66 36 -74 0 -9 3 -18 8 -21 16 -9 247 20 245 32 -2 6 -19 36 -38 67 l-36 55 -62 1 c-34 0 -88 4 -120 8 -32 4 -60 3 -63 -1z"/>
 <path d="M2587 1764 c-9 -9 44 -85 54 -78 5 3 1 19 -8 35 -21 36 -38 51 -46 43z"/>
 <path d="M3136 1731 c-4 -5 -2 -12 4 -16 6 -4 8 -10 5 -15 -3 -5 -1 -11 4 -15 6 -3 8 -12 5 -19 -7 -17 12 -30 21 -16 4 6 1 17 -5 25 -7 8 -9 15 -5 15 4 0 1 7 -6 17 -8 9 -12 18 -11 20 2 3 1 7 -1 9 -3 3 -8 1 -11 -5z"/>
 <path d="M1465 1690 c-4 -6 -4 -14 -1 -17 3 -3 1 -12 -5 -19 -6 -7 -8 -18 -4 -24 9 -14 28 -1 21 15 -2 7 1 18 7 24 8 8 8 14 0 22 -8 8 -13 8 -18 -1z"/>
 <path d="M1817 1664 c-3 -5 3 -20 12 -33 11 -14 21 -19 25 -13 3 5 -2 20 -12 33 -11 12 -21 18 -25 13z"/>
 <path d="M2648 1665 c-7 -7 10 -64 23 -79 4 -5 5 -14 3 -21 -3 -7 -1 -16 4 -19 6 -3 8 -15 5 -25 -3 -10 0 -22 6 -26 16 -9 26 22 12 39 -6 7 -8 16 -5 19 3 3 2 12 -2 19 -8 13 -9 17 -12 49 -3 21 -26 52 -34 44z"/>
 <path d="M3474 1591 c-134 -100 -142 -111 -154 -220 -6 -52 -13 -97 -15 -102 -3 -4 0 -11 6 -14 6 -4 32 13 57 37 26 25 76 69 112 97 36 29 71 60 78 69 14 18 17 178 3 186 -5 3 -44 -21 -87 -53z"/>
 <path d="M3165 1620 c-4 -6 -3 -16 3 -22 6 -6 12 -6 17 2 4 6 3 16 -3 22 -6 6 -12 6 -17 -2z"/>
 <path d="M1445 1600 c-4 -6 -3 -16 3 -22 6 -6 12 -6 17 2 4 6 3 16 -3 22 -6 6 -12 6 -17 -2z"/>
 <path d="M1956 1572 c-3 -5 -8 -51 -12 -103 -9 -122 -6 -125 102 -100 43 11 99 22 124 26 57 9 71 21 64 52 -4 13 -7 47 -8 76 l-1 52 -132 3 c-72 1 -134 -1 -137 -6z"/>
 <path d="M3174 1546 c-4 -10 -2 -22 4 -28 8 -8 13 -7 18 6 4 10 2 22 -4 28 -8 8 -13 7 -18 -6z"/>
 <path d="M1434 1526 c-4 -10 -2 -22 4 -28 8 -8 13 -7 18 6 4 10 2 22 -4 28 -8 8 -13 7 -18 -6z"/>
 <path d="M1839 1506 c-1 -3 -2 -9 -3 -13 -1 -5 -5 -14 -9 -20 -5 -7 -5 -18 -2 -23 9 -14 28 -1 21 15 -2 7 0 17 6 23 6 6 6 12 -1 16 -6 4 -12 5 -12 2z"/>
 <path d="M3524 1399 c-11 -12 -69 -63 -130 -115 -101 -84 -113 -98 -129 -146 -9 -29 -32 -82 -51 -117 -18 -35 -31 -68 -28 -72 7 -12 303 230 319 260 7 15 19 51 28 81 32 117 29 151 -9 109z"/>
 <path d="M2685 1400 c-4 -6 -3 -16 3 -22 6 -6 12 -6 17 2 4 6 3 16 -3 22 -6 6 -12 6 -17 -2z"/>
 <path d="M3174 1396 c-4 -10 -2 -22 4 -28 8 -8 13 -7 18 6 4 10 2 22 -4 28 -8 8 -13 7 -18 -6z"/>
 <path d="M2215 1375 c-5 -3 -64 -11 -129 -20 -66 -8 -123 -18 -127 -22 -14 -14 27 -87 69 -125 l40 -36 89 19 c135 30 280 59 292 59 6 0 11 -4 11 -9 0 -12 -150 -47 -254 -60 -43 -5 -83 -14 -88 -19 -18 -18 33 -35 112 -40 104 -6 173 21 246 95 30 31 52 59 48 62 -3 3 -31 6 -62 7 -65 1 -148 32 -183 70 -21 22 -40 28 -64 19z"/>
 <path d="M2676 1351 c-4 -6 -5 -15 -1 -20 3 -5 1 -12 -4 -15 -14 -9 -31 -65 -21 -71 10 -6 28 23 33 52 1 10 6 24 11 31 5 8 4 18 -2 24 -6 6 -12 6 -16 -1z"/>
 <path d="M1825 1340 c-4 -6 -1 -18 7 -27 7 -9 12 -18 11 -20 -2 -1 -1 -3 2 -3 3 0 8 0 12 0 4 0 2 5 -4 11 -6 6 -9 17 -7 24 7 16 -12 29 -21 15z"/>
 <path d="M3164 1316 c-4 -10 -2 -22 4 -28 8 -8 13 -7 18 6 4 10 2 22 -4 28 -8 8 -13 7 -18 -6z"/>
 <path d="M1434 1306 c-4 -10 -2 -22 4 -28 8 -8 13 -7 18 6 4 10 2 22 -4 28 -8 8 -13 7 -18 -6z"/>
 <path d="M3145 1230 c-4 -6 -3 -16 3 -22 6 -6 12 -6 17 2 4 6 3 16 -3 22 -6 6 -12 6 -17 -2z"/>
 <path d="M1455 1210 c-4 -6 -3 -16 3 -22 6 -6 12 -6 17 2 4 6 3 16 -3 22 -6 6 -12 6 -17 -2z"/>
 <path d="M2611 1206 c-7 -8 -8 -17 -3 -20 6 -3 15 1 21 8 7 8 8 17 3 20 -6 3 -15 -1 -21 -8z"/>
 <path d="M1886 1192 c-3 -6 1 -15 8 -21 8 -7 17 -8 20 -3 3 6 -1 15 -8 21 -8 7 -17 8 -20 3z"/>
 <path d="M2561 1146 c-18 -19 -29 -36 -23 -39 5 -4 23 9 41 27 18 19 29 36 23 39 -5 4 -23 -9 -41 -27z"/>
 <path d="M1475 1150 c-4 -6 -3 -16 3 -22 6 -6 12 -6 17 2 4 6 3 16 -3 22 -6 6 -12 6 -17 -2z"/>
 <path d="M1926 1142 c-3 -5 3 -17 13 -26 11 -10 22 -13 25 -8 3 5 -3 17 -13 26 -11 10 -22 13 -25 8z"/>
 <path d="M3115 1140 c-4 -6 -3 -16 3 -22 6 -6 12 -6 17 2 4 6 3 16 -3 22 -6 6 -12 6 -17 -2z"/>
 <path d="M1497 1103 c-4 -6 0 -18 7 -28 8 -11 16 -14 19 -8 4 6 0 18 -7 28 -8 11 -16 14 -19 8z"/>
 <path d="M1986 1091 c-6 -8 5 -20 31 -35 23 -13 22 12 -2 28 -13 9 -26 12 -29 7z"/>
 <path d="M2491 1086 c-7 -8 -8 -17 -3 -20 6 -3 15 1 21 8 7 8 8 17 3 20 -6 3 -15 -1 -21 -8z"/>
 <path d="M3360 1039 c-19 -16 -78 -59 -130 -94 -93 -63 -260 -228 -242 -239 10 -6 164 98 258 175 114 93 195 191 156 189 -4 -1 -23 -14 -42 -31z"/>
 <path d="M1527 1044 c-3 -6 4 -23 17 -39 13 -15 25 -24 29 -19 3 6 -4 23 -17 39 -13 15 -25 24 -29 19z"/>
 <path d="M2375 1031 c-7 -12 12 -24 25 -16 11 7 4 25 -10 25 -5 0 -11 -4 -15 -9z"/>
 <path d="M2135 1021 c-7 -12 12 -24 25 -16 11 7 4 25 -10 25 -5 0 -11 -4 -15 -9z"/>
 <path d="M3036 990 c-29 -44 -18 -66 12 -23 30 44 33 51 23 57 -5 3 -20 -12 -35 -34z"/>
 <path d="M2185 1010 c-8 -12 20 -24 35 -15 6 3 8 11 5 16 -8 12 -32 12 -40 -1z"/>
 <path d="M2275 1010 c-8 -13 20 -24 41 -16 20 8 9 26 -16 26 -10 0 -22 -5 -25 -10z"/>
 <path d="M1576 972 c-3 -5 3 -17 13 -26 11 -10 22 -13 25 -8 3 5 -3 17 -13 26 -11 10 -22 13 -25 8z"/>
 <path d="M2976 911 c-10 -11 -13 -22 -8 -25 5 -3 17 3 26 13 10 11 13 22 8 25 -5 3 -17 -3 -26 -13z"/>
 <path d="M1686 862 c-3 -5 3 -17 13 -26 11 -10 22 -13 25 -8 3 5 -3 17 -13 26 -11 10 -22 13 -25 8z"/>
 <path d="M2901 836 c-13 -13 -18 -26 -13 -30 5 -3 19 5 31 18 13 13 18 26 13 30 -5 3 -19 -5 -31 -18z"/>
 <path d="M1735 821 c-3 -6 15 -24 39 -40 25 -17 47 -27 51 -22 3 6 -15 24 -39 40 -25 17 -47 27 -51 22z"/>
 <path d="M2807 767 c-31 -21 -55 -43 -52 -47 6 -10 95 41 114 64 25 29 -6 21 -62 -17z"/>
 <path d="M1845 750 c-3 -5 12 -18 34 -30 23 -11 42 -16 46 -10 3 5 -12 18 -34 30 -23 11 -42 16 -46 10z"/>
 <path d="M1945 701 c-7 -12 12 -24 25 -16 11 7 4 25 -10 25 -5 0 -11 -4 -15 -9z"/>
 <path d="M2645 689 c-27 -11 -57 -22 -65 -26 -8 -3 -20 -5 -27 -4 -16 2 -26 -16 -13 -24 5 -3 15 -3 22 1 7 4 21 9 33 10 32 4 120 41 118 50 -3 14 -16 13 -68 -7z"/>
 <path d="M2006 681 c-4 -5 -2 -12 4 -16 5 -3 10 -3 10 1 0 3 7 1 15 -6 8 -7 15 -9 15 -5 0 4 7 2 15 -5 9 -7 18 -10 22 -7 3 4 12 2 19 -4 7 -6 18 -8 24 -4 14 9 1 28 -16 21 -7 -3 -16 -1 -20 5 -3 6 -12 8 -19 5 -7 -2 -18 1 -24 7 -6 6 -11 7 -11 3 0 -5 -6 -3 -14 3 -9 8 -16 8 -20 2z"/>
 <path d="M2155 640 c-8 -12 20 -24 35 -15 6 3 8 11 5 16 -8 12 -32 12 -40 -1z"/>
 <path d="M2485 641 c-7 -12 12 -24 25 -16 11 7 4 25 -10 25 -5 0 -11 -4 -15 -9z"/>
 <path d="M2225 631 c-7 -13 17 -24 40 -19 9 1 16 8 16 13 0 14 -48 19 -56 6z"/>
 <path d="M2405 630 c-8 -13 20 -24 41 -16 20 8 9 26 -16 26 -10 0 -22 -5 -25 -10z"/>
 </g>
<g id="layer3" fill="#b00c1b" stroke="none">
 <path d="M2230 4714 c-19 -3 -96 -16 -171 -29 -853 -153 -1564 -797 -1803 -1632 -69 -240 -81 -336 -81 -643 0 -307 12 -403 81 -643 216 -754 827 -1365 1581 -1581 241 -69 335 -81 648 -80 262 0 289 2 416 27 270 53 511 142 730 270 642 374 1061 1008 1149 1737 14 122 12 447 -4 570 -97 718 -511 1337 -1140 1704 -225 131 -466 221 -735 273 -121 23 -164 26 -386 28 -137 2 -266 1 -285 -1z m710 -407 l55 -13 6 -50 c14 -107 20 -335 11 -439 -7 -78 -6 -115 2 -127 8 -13 8 -23 0 -36 -14 -22 -127 -110 -273 -212 -98 -69 -116 -78 -134 -69 -11 7 -118 20 -236 30 -119 10 -228 24 -243 30 -29 12 -41 37 -58 129 -25 125 -4 404 33 449 7 8 11 22 9 33 -5 25 41 77 139 159 46 38 96 80 111 94 20 19 44 27 105 34 103 13 403 5 473 -12z m-160 -1007 c66 -11 128 -39 135 -60 2 -8 11 -71 20 -140 19 -157 19 -299 0 -415 -13 -83 -13 -91 2 -102 9 -7 23 -13 30 -13 28 0 172 -64 243 -108 215 -132 353 -342 417 -634 27 -126 24 -452 -5 -561 -99 -362 -520 -704 -892 -724 -52 -2 -129 -12 -170 -21 -104 -23 -326 -22 -440 2 -328 70 -613 274 -725 519 -66 143 -98 383 -76 562 27 224 97 386 218 503 51 49 56 52 106 52 68 0 226 -27 295 -50 47 -15 57 -16 82 -4 l27 14 7 285 c4 156 5 288 2 293 -2 4 0 69 6 143 5 73 10 146 9 160 -1 30 41 90 144 205 108 120 97 117 320 110 105 -3 215 -10 245 -16z"/>
 <path d="M2174 1837 c-7 -20 81 -204 105 -219 26 -16 27 -24 1 -31 -27 -7 -33 -28 -21 -75 15 -54 47 -92 78 -92 21 0 23 -3 14 -14 -20 -24 41 -49 131 -54 77 -4 78 -4 88 22 17 46 12 150 -11 211 -24 64 -109 163 -173 200 -81 47 -202 77 -212 52z"/>
 </g>
<g id="layer4" fill="#1e201f" stroke="none">
 <path d="M2300 4864 c-19 -3 -96 -16 -171 -29 -564 -101 -1071 -415 -1429 -885 -119 -157 -271 -423 -252 -442 7 -7 17 2 32 32 90 177 299 436 470 584 333 289 680 459 1109 543 128 26 152 27 421 27 269 0 293 -1 421 -27 675 -133 1227 -522 1564 -1101 158 -272 259 -579 295 -895 17 -142 8 -516 -15 -641 -25 -137 -70 -307 -109 -410 -18 -50 -29 -93 -24 -96 4 -3 24 28 42 68 82 180 144 380 181 588 23 125 32 499 15 641 -83 729 -504 1370 -1144 1743 -225 131 -466 221 -735 273 -121 23 -164 26 -386 28 -137 2 -266 1 -285 -1z"/>
 <path d="M2467 4339 l-78 -9 -122 -105 c-133 -113 -180 -165 -175 -194 2 -10 -2 -24 -9 -32 -21 -25 -44 -172 -45 -279 0 -109 14 -212 37 -267 22 -52 52 -61 295 -82 121 -10 224 -22 227 -25 4 -3 -51 -6 -121 -6 -92 0 -135 -4 -155 -15 -33 -17 -163 -153 -227 -239 -28 -37 -44 -68 -43 -85 1 -14 -4 -87 -9 -160 -6 -74 -8 -139 -6 -143 3 -5 2 -134 -1 -287 -8 -269 -8 -278 -29 -287 -14 -6 -36 -4 -71 8 -67 22 -226 48 -293 48 -52 0 -57 -2 -109 -52 -170 -165 -256 -425 -239 -724 10 -191 62 -355 150 -478 148 -206 399 -363 676 -422 114 -24 336 -25 440 -2 41 9 118 19 170 21 374 20 812 377 912 744 29 109 32 435 5 561 -65 294 -213 517 -437 654 -72 45 -216 108 -245 108 -22 0 -23 10 -9 95 18 108 17 265 -1 415 -21 170 -21 168 -70 190 -45 20 -145 40 -210 40 -40 1 -40 1 -18 18 11 9 81 60 154 112 205 147 250 193 220 226 -5 5 -4 67 2 144 12 166 -5 446 -29 470 -8 8 -38 21 -67 28 -67 16 -369 24 -470 11z m82 -109 l46 0 -25 -20 c-14 -11 -61 -46 -105 -78 -71 -51 -88 -58 -153 -68 -40 -6 -69 -7 -65 -4 5 4 35 27 68 52 34 25 76 64 95 87 29 34 40 40 64 36 16 -3 49 -5 75 -5z m213 -9 c26 -6 24 -9 -63 -81 l-90 -75 -62 3 c-34 2 -63 5 -64 6 -2 1 43 37 100 78 102 76 120 83 179 69z m158 -40 c0 -36 -6 -45 -86 -117 l-86 -78 -20 27 c-11 15 -26 27 -35 27 -25 0 -12 14 92 98 116 94 135 100 135 43z m-97 -296 c-54 -51 -100 -91 -101 -90 -2 2 -1 32 3 67 7 62 9 65 48 91 23 14 65 46 92 70 l50 45 3 -45 3 -45 -98 -93z m-381 34 c175 -2 178 -2 173 -23 -12 -50 -25 -209 -25 -299 l0 -99 -37 6 c-91 15 -283 26 -332 20 l-53 -7 5 29 c3 16 12 109 18 207 l13 179 30 -6 c17 -3 111 -6 208 -7z m470 -114 l-5 -80 -95 -75 c-53 -41 -100 -77 -105 -79 -5 -2 -6 29 -2 70 7 82 -3 68 134 187 40 35 74 62 75 60 1 -2 0 -39 -2 -83z m-2 -139 c-53 -50 -213 -177 -217 -172 -10 10 10 28 115 107 100 74 136 97 102 65z m-538 -483 c-77 -88 -104 -111 -142 -118 -36 -6 -36 -6 50 84 67 71 91 90 113 90 l29 1 -50 -57z m189 37 l39 0 -62 -75 -63 -74 -64 -1 -64 0 24 28 c72 82 125 132 137 127 8 -3 31 -5 53 -5z m138 -92 c-40 -46 -80 -84 -89 -86 -9 -2 -29 2 -45 8 l-28 11 69 73 c66 71 71 74 117 75 l48 1 -72 -82z m154 20 c-3 -29 -10 -55 -15 -56 -4 -2 -43 -48 -87 -102 l-78 -99 -7 62 -6 62 93 93 c52 50 97 92 100 92 3 0 3 -24 0 -52z m-11 -225 c-4 -94 -5 -99 -33 -121 -16 -13 -54 -53 -84 -88 l-55 -65 0 85 0 85 88 100 c48 55 87 100 87 101 0 0 -2 -44 -3 -97z m-467 2 c61 -4 120 -9 133 -12 l23 -5 -2 -262 c-1 -296 5 -377 32 -401 9 -9 54 -29 98 -45 45 -15 114 -47 153 -70 86 -51 209 -172 257 -254 110 -186 140 -442 76 -661 -99 -340 -386 -563 -751 -582 -435 -23 -834 229 -924 583 -25 96 -27 267 -4 384 17 93 67 251 112 355 25 57 32 66 38 50 12 -33 92 -171 176 -307 l80 -128 -24 -47 c-18 -38 -23 -64 -23 -129 0 -72 4 -87 37 -155 100 -202 328 -292 547 -214 92 32 209 142 254 238 33 70 51 160 43 223 -31 263 -241 477 -493 501 -70 7 -78 17 -61 80 14 50 22 740 10 816 l-9 58 56 -5 c31 -3 106 -8 166 -11z m462 -340 c-7 -6 -50 -48 -97 -92 l-85 -82 5 81 5 82 85 90 85 91 7 -80 c4 -56 3 -83 -5 -90z m38 -75 c4 -7 13 -7 26 0 15 9 28 5 64 -20 25 -17 45 -32 45 -34 0 -4 -128 -109 -162 -134 -15 -11 -30 -9 -93 14 -88 31 -89 24 28 125 69 60 81 67 92 49z m265 -136 c39 -26 70 -48 70 -49 0 -1 -19 -15 -42 -30 -24 -16 -64 -46 -91 -68 l-47 -40 -32 23 c-17 13 -49 33 -70 45 l-39 22 53 41 c29 22 66 54 82 71 17 17 33 31 38 31 5 0 40 -21 78 -46z m181 -145 l52 -51 -44 -25 c-24 -13 -69 -46 -99 -72 l-55 -48 -49 54 c-42 46 -47 56 -35 68 33 32 155 124 166 125 6 0 35 -23 64 -51z m122 -167 l38 -71 -43 -38 c-23 -21 -66 -60 -94 -86 l-52 -48 -42 87 -42 87 24 23 c41 40 153 123 163 120 5 -1 27 -35 48 -74z m-1491 -20 c41 3 48 0 53 -19 2 -11 8 -28 11 -37 5 -14 -9 -16 -119 -16 l-124 0 -29 42 c-16 24 -32 48 -36 54 -5 7 27 5 95 -8 56 -10 123 -18 149 -16z m93 -152 c4 -16 12 -33 19 -37 16 -10 39 -53 32 -60 -3 -3 -52 -2 -109 2 l-103 7 -32 51 -32 52 94 5 c52 3 98 8 102 12 11 12 22 0 29 -32z m1487 -105 l12 -88 -39 -31 c-22 -17 -65 -55 -96 -84 -61 -57 -69 -55 -69 13 0 19 -7 64 -16 101 l-15 67 28 28 c15 16 57 53 93 82 l65 54 12 -27 c7 -15 18 -67 25 -115z m-1227 18 c65 -23 120 -60 168 -113 58 -64 87 -140 87 -225 0 -91 -3 -95 -64 -95 -62 0 -129 17 -120 31 9 15 -16 39 -42 39 -27 0 -48 34 -59 93 -6 29 -4 37 8 37 8 0 21 7 28 16 12 14 10 19 -13 38 -20 16 -108 180 -108 201 0 7 74 -8 115 -22z m-206 -73 c43 0 47 -2 71 -43 14 -23 26 -45 28 -48 1 -4 -35 -10 -80 -13 -46 -4 -93 -10 -105 -13 -15 -3 -23 -1 -23 7 0 7 -13 35 -30 62 -16 26 -30 51 -30 55 0 3 28 3 61 -1 34 -3 83 -6 108 -6z m1451 -182 c0 -40 -4 -77 -8 -83 -4 -5 -34 -32 -67 -59 -33 -27 -80 -68 -104 -90 l-43 -41 5 40 c4 22 9 65 12 96 5 44 12 62 34 83 36 35 154 125 164 126 4 0 7 -33 7 -72z m-1342 -36 c0 -27 3 -58 6 -69 6 -18 1 -21 -41 -28 -26 -3 -73 -12 -103 -20 -122 -29 -110 -31 -110 17 0 24 3 67 6 96 l7 52 117 0 118 0 0 -48z m1302 -230 c-11 -39 -28 -79 -38 -90 -17 -19 -216 -182 -240 -196 -7 -5 -2 14 11 41 14 27 33 72 42 100 15 45 28 61 115 132 54 45 104 89 111 98 23 27 23 -7 -1 -85z m-1229 52 c14 -14 51 -35 82 -48 l55 -22 -66 -12 c-37 -7 -116 -23 -175 -36 l-108 -24 -33 29 c-43 37 -65 87 -45 100 8 5 28 9 44 9 17 1 66 7 110 14 44 7 87 14 94 15 8 0 27 -11 42 -25z m149 -139 c-22 -27 -117 -55 -183 -54 -95 1 -115 14 -32 22 54 6 161 27 224 46 2 1 -2 -6 -9 -14z m885 -233 c-58 -54 -176 -147 -240 -188 -24 -15 -19 -7 24 44 30 34 57 62 61 62 4 0 52 31 106 70 55 38 101 70 104 70 3 -1 -22 -26 -55 -58z"/>
 </g>

</svg>