<!DOCTYPE svg PUBLIC "-//W3C//DTD SVG 20010904//EN" "http://www.w3.org/TR/2001/REC-SVG-20010904/DTD/svg10.dtd">
<svg version="1.0" xmlns="http://www.w3.org/2000/svg" width="500px" height="500px" viewBox="0 0 5000 5000" preserveAspectRatio="xMidYMid meet">
<g id="layer1" fill="#af9f47" stroke="none">
 <path d="M1817 3334 c-9 -10 42 -106 53 -99 6 4 -1 27 -15 56 -27 51 -28 53 -38 43z"/>
 <path d="M1805 3268 c-2 -7 -3 -47 -2 -88 2 -59 5 -75 17 -75 8 0 15 -5 15 -12 0 -11 24 -42 26 -33 0 3 2 13 4 22 2 9 -6 24 -16 34 -23 21 -26 66 -4 58 8 -3 13 -10 12 -14 -1 -4 2 -9 7 -9 19 -3 14 28 -10 63 -13 19 -24 39 -24 45 0 16 -20 23 -25 9z"/>
 <path d="M1805 3031 c-3 -6 4 -15 15 -21 11 -6 18 -15 16 -19 -7 -11 29 -43 37 -34 4 3 2 12 -4 20 -6 7 -8 13 -4 13 11 0 -15 29 -36 41 -11 6 -20 6 -24 0z"/>
 <path d="M1805 2930 c-3 -5 6 -17 20 -26 13 -9 23 -20 20 -24 -3 -4 2 -13 10 -20 8 -7 16 -10 16 -6 5 25 3 33 -10 49 -22 26 -48 39 -56 27z"/>
 <path d="M1796 2892 c-2 -4 -4 -58 -3 -120 1 -105 2 -113 23 -127 29 -19 40 -4 15 19 -24 21 -17 56 10 51 29 -6 31 10 4 35 -31 29 -36 63 -6 36 11 -10 22 -13 25 -8 3 5 -1 15 -9 22 -8 7 -13 16 -10 20 3 4 -2 13 -10 20 -8 7 -15 21 -15 31 0 20 -16 34 -24 21z"/>
 <path d="M1809 2609 c0 -2 -2 -11 -4 -21 -2 -9 9 -28 24 -42 23 -22 30 -24 39 -13 9 11 4 21 -23 47 -19 19 -35 32 -36 29z"/>
 <path d="M1812 2507 c-9 -11 -5 -20 17 -41 23 -22 30 -24 39 -13 9 11 5 20 -17 41 -23 22 -30 24 -39 13z"/>
 <path d="M1795 2398 c-2 -7 -4 -31 -2 -53 2 -33 -1 -39 -15 -37 -9 1 -19 -2 -22 -7 -9 -15 13 -24 28 -12 9 8 22 1 51 -29 54 -55 66 -38 13 18 -23 26 -31 37 -17 24 14 -12 29 -19 33 -15 4 5 6 4 4 -2 -1 -5 1 -11 7 -12 22 -6 7 37 -23 62 -17 15 -32 35 -32 45 0 23 -18 36 -25 18z"/>
 <path d="M1507 2309 c-10 -6 -25 -8 -32 -5 -8 3 -17 1 -20 -3 -7 -12 45 -45 68 -44 9 1 15 -2 12 -7 -8 -13 40 -42 62 -38 18 3 26 39 9 37 -5 0 -13 6 -18 15 -5 9 -13 14 -19 11 -5 -4 -9 1 -9 11 0 13 3 14 15 4 8 -7 15 -9 15 -4 0 5 7 -1 15 -13 13 -18 22 -20 54 -14 2 1 -2 8 -9 16 -7 9 -15 13 -18 10 -3 -2 -10 3 -17 12 -15 20 -82 27 -108 12z"/>
 <path d="M1655 2309 c-8 -11 48 -47 64 -41 8 3 11 0 7 -6 -10 -17 10 -23 23 -8 10 11 7 18 -11 30 -13 9 -22 20 -20 24 3 10 -57 11 -63 1z"/>
 <path d="M1797 2274 c-4 -4 -2 -13 4 -21 8 -9 8 -13 1 -13 -6 0 -14 5 -17 10 -8 13 -37 -8 -32 -23 4 -14 85 -19 93 -6 8 13 -39 63 -49 53z"/>
 <path d="M1660 2245 c-7 -8 -11 -15 -9 -16 31 -6 40 -6 44 1 3 4 -1 13 -9 19 -10 9 -16 8 -26 -4z"/>
 </g>
<g id="layer2" fill="#4b8b78" stroke="none">
 <path d="M3065 3410 c-8 -13 20 -24 41 -16 20 8 9 26 -16 26 -10 0 -22 -5 -25 -10z"/>
 <path d="M2171 3396 c-7 -8 -8 -17 -3 -20 6 -3 15 1 21 8 7 8 8 17 3 20 -6 3 -15 -1 -21 -8z"/>
 <path d="M2555 3390 c-4 -6 -3 -16 3 -22 6 -6 12 -6 17 2 4 6 3 16 -3 22 -6 6 -12 6 -17 -2z"/>
 <path d="M1525 3371 c-7 -12 12 -24 25 -16 11 7 4 25 -10 25 -5 0 -11 -4 -15 -9z"/>
 <path d="M2616 3352 c-3 -6 1 -15 8 -21 8 -7 17 -8 20 -3 3 6 -1 15 -8 21 -8 7 -17 8 -20 3z"/>
 <path d="M2591 3286 c-16 -19 -6 -37 16 -29 10 4 14 2 10 -4 -8 -13 27 -46 37 -36 4 5 6 1 5 -7 -2 -8 0 -17 6 -20 5 -3 9 9 9 25 1 17 -3 31 -7 32 -5 0 -21 13 -36 27 -24 23 -30 25 -40 12z"/>
 <path d="M2895 3239 c-10 -26 -1 -259 10 -259 14 0 19 250 6 263 -7 7 -12 5 -16 -4z"/>
 <path d="M1774 3226 c-4 -10 -2 -22 4 -28 8 -8 13 -7 18 6 4 10 2 22 -4 28 -8 8 -13 7 -18 -6z"/>
 <path d="M2586 3191 c-8 -12 63 -73 75 -65 6 3 -6 21 -25 40 -38 37 -42 39 -50 25z"/>
 <path d="M2585 3100 c-10 -17 56 -83 69 -70 7 7 -1 22 -26 46 -24 25 -38 32 -43 24z"/>
 <path d="M2154 2986 c-4 -10 -2 -22 4 -28 8 -8 13 -7 18 6 4 10 2 22 -4 28 -8 8 -13 7 -18 -6z"/>
 <path d="M2576 2993 c-12 -12 -6 -71 9 -83 8 -7 12 -16 10 -21 -3 -4 6 -16 20 -25 14 -9 23 -19 21 -22 -8 -8 14 -43 24 -37 18 11 5 48 -25 71 -21 16 -31 33 -33 54 -2 28 0 30 17 21 10 -6 22 -18 25 -27 5 -13 10 -14 18 -6 9 9 8 16 -5 29 -22 25 -73 54 -81 46z"/>
 <path d="M2575 2831 c-3 -6 6 -18 20 -27 13 -9 22 -20 20 -25 -3 -4 3 -14 13 -20 12 -8 17 -20 14 -35 -4 -20 -7 -22 -23 -13 -11 5 -17 14 -14 18 2 5 -1 14 -9 20 -21 17 -38 -11 -34 -56 3 -40 20 -48 28 -13 4 19 7 19 24 7 11 -8 21 -22 22 -31 12 -80 32 -49 31 46 -2 76 -4 83 -22 83 -11 0 -20 6 -20 12 0 17 -42 46 -50 34z"/>
 <path d="M1764 2796 c-8 -21 3 -49 16 -41 5 3 10 15 10 25 0 25 -18 36 -26 16z"/>
 <path d="M2534 2766 c-4 -10 -2 -22 4 -28 8 -8 13 -7 18 6 4 10 2 22 -4 28 -8 8 -13 7 -18 -6z"/>
 <path d="M2566 2631 c-8 -12 74 -82 86 -75 5 4 -9 24 -31 45 -43 42 -47 44 -55 30z"/>
 <path d="M1405 2618 c-9 -22 -2 -68 10 -71 14 -3 19 63 6 76 -7 7 -12 5 -16 -5z"/>
 <path d="M2565 2560 c-10 -17 22 -47 35 -34 7 7 4 16 -9 28 -14 12 -21 14 -26 6z"/>
 <path d="M2524 2516 c-4 -10 -2 -22 4 -28 8 -8 13 -7 18 6 4 10 2 22 -4 28 -8 8 -13 7 -18 -6z"/>
 <path d="M2606 2502 c-3 -5 3 -17 13 -26 11 -10 22 -13 25 -8 3 5 -3 17 -13 26 -11 10 -22 13 -25 8z"/>
 <path d="M2558 2493 c-2 -5 -5 -34 -7 -66 -3 -57 -2 -58 40 -97 30 -28 43 -47 43 -67 1 -47 21 -31 21 17 0 25 -4 43 -8 42 -5 -2 -22 9 -38 24 -21 20 -29 37 -29 61 0 21 4 32 10 28 6 -4 8 -10 6 -14 -3 -4 8 -20 23 -35 27 -26 38 -26 37 0 -1 15 -94 116 -98 107z"/>
 <path d="M1765 2350 c-4 -6 -3 -16 3 -22 6 -6 12 -6 17 2 4 6 3 16 -3 22 -6 6 -12 6 -17 -2z"/>
 <path d="M1406 2342 c-3 -6 1 -15 8 -21 8 -7 17 -8 20 -3 3 6 -1 15 -8 21 -8 7 -17 8 -20 3z"/>
 <path d="M1525 2341 c-7 -13 17 -24 40 -19 9 1 16 8 16 13 0 14 -48 19 -56 6z"/>
 <path d="M1675 2340 c-8 -12 20 -24 35 -15 6 3 8 11 5 16 -8 12 -32 12 -40 -1z"/>
 <path d="M2134 2327 c-7 -20 -2 -47 11 -50 14 -3 19 43 6 56 -7 7 -12 6 -17 -6z"/>
 <path d="M2554 2289 c-4 -6 13 -31 38 -56 59 -59 69 -42 13 20 -28 30 -46 43 -51 36z"/>
 <path d="M2549 2218 c-1 -1 -3 -31 -4 -65 -2 -59 -1 -63 34 -95 20 -19 42 -34 49 -34 13 1 17 14 5 19 -4 1 -22 18 -39 37 -25 28 -31 42 -27 63 l6 28 32 -31 c18 -18 35 -28 38 -22 4 5 -16 30 -43 56 -28 27 -51 46 -51 44z"/>
 <path d="M2125 2080 c-4 -6 -3 -16 3 -22 6 -6 12 -6 17 2 4 6 3 16 -3 22 -6 6 -12 6 -17 -2z"/>
 <path d="M2504 2016 c-8 -21 3 -49 16 -41 5 3 10 15 10 25 0 25 -18 36 -26 16z"/>
 <path d="M2295 1990 c-8 -12 20 -24 35 -15 6 3 8 11 5 16 -8 12 -32 12 -40 -1z"/>
 <path d="M2587 1993 c-4 -3 3 -17 15 -30 12 -13 22 -36 22 -51 1 -15 6 -28 11 -30 13 -4 19 24 9 46 -4 9 -7 20 -6 23 2 11 -44 49 -51 42z"/>
 <path d="M2435 1981 c-7 -12 12 -24 25 -16 11 7 4 25 -10 25 -5 0 -11 -4 -15 -9z"/>
 <path d="M2535 1970 c-4 -7 5 -25 23 -42 38 -39 48 -23 12 20 -19 23 -30 30 -35 22z"/>
 <path d="M2146 1963 c-3 -3 -1 -12 5 -19 7 -9 19 -10 41 -4 25 8 33 6 49 -13 18 -22 20 -26 23 -49 1 -10 27 -13 96 -13 78 0 95 3 95 15 0 8 -6 14 -14 12 -8 -2 -41 -4 -73 -4 -48 -1 -63 3 -83 22 -18 17 -22 27 -14 36 5 7 6 14 2 17 -13 7 -120 7 -127 0z"/>
 <path d="M2395 1950 c-4 -6 -1 -18 6 -26 12 -14 14 -14 26 2 7 9 10 21 7 25 -7 12 -31 11 -39 -1z"/>
 <path d="M2465 1942 c-10 -10 56 -80 73 -77 9 2 19 4 21 4 2 1 -2 8 -9 16 -7 8 -16 13 -20 10 -15 -9 -22 15 -10 30 10 12 9 16 -1 19 -17 5 -47 4 -54 -2z"/>
 <path d="M2894 1827 c-7 -20 -2 -47 11 -50 14 -3 19 43 6 56 -7 7 -12 6 -17 -6z"/>
 <path d="M1495 1621 c-7 -12 12 -24 25 -16 11 7 4 25 -10 25 -5 0 -11 -4 -15 -9z"/>
 <path d="M1685 1621 c-7 -12 12 -24 25 -16 11 7 4 25 -10 25 -5 0 -11 -4 -15 -9z"/>
 <path d="M1395 1600 c-4 -6 -3 -16 3 -22 6 -6 12 -6 17 2 4 6 3 16 -3 22 -6 6 -12 6 -17 -2z"/>
 <path d="M1404 1516 c-4 -10 -2 -22 4 -28 8 -8 13 -7 18 6 4 10 2 22 -4 28 -8 8 -13 7 -18 -6z"/>
 <path d="M1407 1373 c-8 -14 -5 -63 4 -69 14 -8 30 6 22 19 -4 7 -6 19 -5 29 3 17 -13 34 -21 21z"/>
 <path d="M1515 1351 c-7 -12 12 -24 25 -16 11 7 4 25 -10 25 -5 0 -11 -4 -15 -9z"/>
 <path d="M1675 1351 c-7 -12 12 -24 25 -16 11 7 4 25 -10 25 -5 0 -11 -4 -15 -9z"/>
 <path d="M1865 1331 c-7 -12 12 -24 25 -16 11 7 4 25 -10 25 -5 0 -11 -4 -15 -9z"/>
 <path d="M2436 1332 c-3 -6 1 -15 8 -21 8 -7 17 -8 20 -3 3 6 -1 15 -8 21 -8 7 -17 8 -20 3z"/>
 <path d="M1935 1321 c-7 -12 12 -24 25 -16 11 7 4 25 -10 25 -5 0 -11 -4 -15 -9z"/>
 <path d="M1985 1311 c-7 -12 12 -24 25 -16 11 7 4 25 -10 25 -5 0 -11 -4 -15 -9z"/>
 <path d="M2566 1222 c-3 -6 1 -15 8 -21 8 -7 17 -8 20 -3 3 6 -1 15 -8 21 -8 7 -17 8 -20 3z"/>
 <path d="M2606 1182 c-3 -6 1 -15 8 -21 8 -7 17 -8 20 -3 3 6 -1 15 -8 21 -8 7 -17 8 -20 3z"/>
 <path d="M2476 1102 c-3 -6 1 -15 8 -21 8 -7 17 -8 20 -3 3 6 -1 15 -8 21 -8 7 -17 8 -20 3z"/>
 <path d="M2676 1102 c-3 -6 1 -15 8 -21 8 -7 17 -8 20 -3 3 6 -1 15 -8 21 -8 7 -17 8 -20 3z"/>
 <path d="M2556 1032 c-3 -5 5 -19 18 -31 13 -13 26 -18 30 -13 3 5 -5 19 -18 31 -13 13 -26 18 -30 13z"/>
 <path d="M3045 870 c-4 -6 -3 -16 3 -22 6 -6 12 -6 17 2 4 6 3 16 -3 22 -6 6 -12 6 -17 -2z"/>
 <path d="M2748 773 c-7 -14 -3 -33 6 -33 12 -1 17 28 6 35 -5 3 -10 2 -12 -2z"/>
 <path d="M3035 690 c-4 -6 -3 -16 3 -22 6 -6 12 -6 17 2 4 6 3 16 -3 22 -6 6 -12 6 -17 -2z"/>
 <path d="M3024 516 c-4 -10 -2 -22 4 -28 8 -8 13 -7 18 6 4 10 2 22 -4 28 -8 8 -13 7 -18 -6z"/>
 </g>
<g id="layer3" fill="#a54fa1" stroke="none">
 <path d="M3366 3370 c-10 -30 -1 -105 13 -102 7 1 19 -3 27 -9 8 -6 14 -10 15 -8 6 31 4 40 -12 55 -10 9 -19 22 -19 28 0 5 20 -9 44 -33 24 -24 46 -39 49 -34 4 6 -14 29 -38 53 -25 24 -45 40 -45 35 0 -5 -6 0 -14 11 -12 16 -15 16 -20 4z"/>
 <path d="M3367 3233 c-8 -18 -6 -193 3 -198 6 -4 8 -10 5 -15 -3 -4 2 -13 10 -20 8 -7 13 -16 10 -20 -2 -4 4 -15 15 -25 11 -10 20 -16 21 -14 0 2 2 11 4 21 2 9 -10 28 -25 43 -18 17 -26 33 -23 46 5 18 7 17 37 -8 17 -14 32 -30 32 -34 1 -5 2 -12 3 -16 0 -4 6 -2 13 5 13 13 22 178 11 202 -3 8 -7 18 -7 23 -1 4 -5 6 -11 5 -5 -2 -9 -21 -7 -43 l2 -40 -44 48 c-25 26 -46 44 -49 40z m97 -157 c1 -33 0 -34 -19 -21 -11 7 -19 18 -18 23 1 5 -7 18 -17 27 -12 11 -20 31 -20 49 l0 31 36 -37 c28 -27 37 -45 38 -72z"/>
 <path d="M3369 2948 c-7 -30 -3 -42 21 -60 16 -12 27 -24 25 -28 -3 -4 2 -13 10 -20 8 -7 15 -11 16 -9 7 34 3 42 -27 65 -18 15 -32 30 -29 34 3 5 1 11 -5 15 -5 3 -10 5 -11 3z"/>
 <path d="M3376 2822 c-3 -5 8 -21 23 -36 16 -15 31 -23 35 -18 3 5 -8 21 -23 36 -16 15 -31 23 -35 18z"/>
 <path d="M3455 2810 c-4 -6 -6 -25 -5 -43 1 -17 2 -52 1 -76 -1 -36 -3 -41 -15 -32 -10 8 -16 8 -25 -3 -9 -10 -8 -16 3 -25 10 -8 16 -9 21 -1 4 6 14 9 23 8 15 -3 17 9 19 84 2 80 -6 114 -22 88z"/>
 <path d="M3366 2721 c-4 -5 -2 -12 4 -16 6 -4 8 -10 5 -15 -3 -4 2 -13 10 -20 8 -7 15 -11 16 -9 6 31 4 40 -11 54 -11 10 -20 12 -24 6z"/>
 <path d="M3367 2622 c-4 -5 7 -22 23 -37 16 -15 27 -31 25 -35 -2 -4 7 -18 20 -30 14 -13 25 -22 26 -19 0 2 2 11 4 20 3 20 -90 116 -98 101z"/>
 <path d="M3366 2522 c-3 -5 3 -17 14 -27 11 -10 17 -21 15 -26 -3 -4 7 -17 22 -29 16 -12 28 -26 28 -31 0 -17 18 -14 21 3 1 10 -10 27 -27 39 -16 11 -27 24 -24 28 2 5 -6 18 -19 30 -13 13 -27 18 -30 13z"/>
 <path d="M3365 2401 c-3 -6 4 -15 15 -21 11 -6 18 -15 15 -19 -2 -5 2 -14 10 -21 8 -7 16 -10 16 -6 5 25 3 34 -15 54 -21 24 -32 27 -41 13z"/>
 <path d="M3437 2334 c-4 -4 -3 -12 1 -18 4 -6 7 -14 7 -18 0 -15 19 -9 21 6 2 17 -20 39 -29 30z"/>
 <path d="M3366 2311 c-4 -5 -2 -12 4 -16 6 -4 8 -10 5 -15 -3 -5 4 -15 15 -23 11 -7 17 -16 14 -20 -3 -3 5 -13 19 -21 21 -14 23 -21 17 -54 -3 -21 -5 -51 -3 -66 2 -16 1 -36 -3 -45 -13 -29 -12 -40 1 -51 10 -9 16 -7 23 7 12 25 14 174 1 189 -7 8 -7 14 1 19 13 8 13 42 -1 50 -6 4 -13 -2 -16 -14 -3 -11 -9 -18 -14 -15 -5 3 -7 9 -4 14 3 5 -4 15 -15 23 -11 7 -18 16 -15 19 3 3 -1 11 -9 17 -9 8 -16 8 -20 2z"/>
 <path d="M3365 2201 c-3 -6 4 -15 15 -21 11 -6 19 -14 17 -18 -1 -4 3 -8 8 -9 15 -4 13 20 -3 40 -17 19 -28 22 -37 8z"/>
 <path d="M3365 2101 c-4 -8 2 -23 18 -38 32 -33 43 -15 13 22 -17 21 -25 25 -31 16z"/>
 <path d="M3366 1991 c-4 -5 7 -19 24 -31 17 -12 28 -25 25 -29 -2 -5 4 -16 15 -26 11 -10 21 -15 21 -12 5 26 3 34 -10 51 -26 30 -69 57 -75 47z"/>
 <path d="M3367 1913 c-2 -5 -4 -48 -5 -97 -2 -66 2 -95 13 -113 8 -12 16 -26 16 -30 0 -5 10 -18 21 -30 16 -17 24 -20 35 -12 13 12 8 33 -6 24 -5 -2 -16 4 -26 15 -10 11 -14 20 -10 20 5 0 4 5 -3 12 -7 7 -12 21 -12 32 0 18 1 18 19 2 11 -10 21 -13 25 -7 4 5 2 12 -4 16 -6 4 -8 10 -5 14 2 5 -4 16 -15 26 -20 18 -29 72 -11 60 19 -11 20 13 1 30 -11 10 -17 21 -15 26 3 4 1 10 -4 13 -5 4 -11 3 -14 -1z"/>
 <path d="M3377 1622 c-4 -5 9 -23 27 -41 19 -18 36 -29 39 -23 4 5 -9 23 -27 41 -19 18 -36 29 -39 23z"/>
 <path d="M3327 1543 c-4 -6 11 -27 32 -47 21 -21 41 -34 44 -29 4 6 -11 27 -32 47 -21 21 -41 34 -44 29z"/>
 <path d="M3377 1543 c-4 -6 11 -27 32 -47 21 -21 41 -34 44 -29 4 6 -11 27 -32 47 -21 21 -41 34 -44 29z"/>
 <path d="M2914 1529 c-7 -12 17 -22 55 -22 24 0 41 -7 49 -19 7 -10 17 -16 22 -13 5 3 11 1 14 -4 14 -21 -34 -17 -55 5 -12 13 -26 21 -31 18 -5 -4 2 -19 17 -34 23 -24 34 -27 81 -26 30 0 54 6 54 11 0 6 -9 10 -20 10 -11 0 -20 5 -21 10 0 6 -7 17 -15 27 -11 11 -12 18 -4 23 23 14 -3 23 -70 22 -39 0 -73 -4 -76 -8z"/>
 <path d="M3099 1538 c-7 -28 -2 -41 26 -68 18 -17 35 -28 39 -22 3 5 -8 22 -24 37 -16 15 -27 32 -24 36 2 4 0 10 -6 14 -5 3 -10 5 -11 3z"/>
 <path d="M3167 1532 c-4 -5 12 -26 33 -47 22 -22 40 -35 40 -31 0 5 7 2 16 -5 19 -15 131 -22 140 -8 3 5 -6 13 -19 18 -14 6 -28 15 -32 21 -5 8 -15 4 -31 -11 l-24 -23 -30 29 c-17 16 -30 25 -30 20 0 -5 -13 4 -29 19 -16 15 -31 24 -34 18z"/>
 <path d="M3245 1530 c-3 -4 2 -13 10 -20 8 -7 15 -9 15 -5 0 4 6 2 14 -4 8 -7 17 -8 20 -3 7 11 -19 35 -40 38 -8 1 -16 -1 -19 -6z"/>
 </g>
<g id="layer4" fill="#af5a67" stroke="none">
 <path d="M2425 3401 c-7 -12 12 -24 25 -16 11 7 4 25 -10 25 -5 0 -11 -4 -15 -9z"/>
 <path d="M2545 3000 c-4 -6 -3 -16 3 -22 6 -6 12 -6 17 2 4 6 3 16 -3 22 -6 6 -12 6 -17 -2z"/>
 <path d="M3334 2826 c-4 -10 -2 -22 4 -28 8 -8 13 -7 18 6 4 10 2 22 -4 28 -8 8 -13 7 -18 -6z"/>
 <path d="M2145 2770 c-4 -6 -3 -16 3 -22 6 -6 12 -6 17 2 4 6 3 16 -3 22 -6 6 -12 6 -17 -2z"/>
 <path d="M2515 2270 c-4 -6 -3 -16 3 -22 6 -6 12 -6 17 2 4 6 3 16 -3 22 -6 6 -12 6 -17 -2z"/>
 <path d="M1564 1719 c-3 -5 -2 -9 2 -9 4 0 -3 -11 -16 -25 -27 -28 -52 -35 -27 -7 25 27 8 36 -19 11 -18 -17 -21 -26 -13 -40 14 -27 24 -24 72 20 27 25 47 37 56 32 9 -6 5 -13 -14 -25 -20 -13 -24 -21 -16 -29 15 -15 58 27 56 56 -1 18 -8 22 -39 23 -20 1 -39 -3 -42 -7z"/>
 <path d="M1665 1721 c-3 -5 0 -13 6 -16 7 -5 3 -15 -11 -30 l-22 -23 22 -12 c12 -6 37 -9 56 -7 19 3 37 1 40 -4 3 -5 15 -9 27 -9 12 0 33 -1 47 -2 18 -2 24 1 21 12 -3 15 -9 41 -10 49 -1 3 -12 -5 -24 -18 -19 -17 -26 -19 -35 -9 -10 12 -12 19 -12 35 0 3 -10 -3 -23 -15 -14 -13 -27 -18 -36 -13 -9 6 -10 11 -2 15 6 4 9 11 6 16 -3 5 -1 11 5 15 16 10 1 25 -25 25 -13 0 -26 -4 -30 -9z"/>
 <path d="M1801 1696 c-7 -8 -8 -17 -3 -20 6 -3 15 1 21 8 7 8 8 17 3 20 -6 3 -15 -1 -21 -8z"/>
 <path d="M1917 1694 c-3 -3 -3 -13 0 -22 4 -10 2 -13 -5 -8 -17 10 -48 -42 -33 -57 9 -9 13 -7 17 11 4 12 10 20 14 17 11 -6 24 13 25 38 2 19 -8 30 -18 21z"/>
 <path d="M1946 1681 c-3 -4 6 -19 19 -31 14 -13 25 -22 26 -19 0 2 2 12 4 22 4 23 -37 48 -49 28z"/>
 <path d="M2017 1664 c-3 -3 -3 -12 -1 -19 3 -7 0 -16 -6 -20 -8 -5 -8 -10 0 -20 6 -7 9 -19 8 -26 -2 -8 4 -14 12 -14 8 -1 24 -6 35 -12 11 -6 23 -11 28 -12 4 0 21 -8 37 -16 17 -9 30 -13 30 -9 0 4 7 1 15 -6 8 -7 15 -9 15 -5 0 5 8 1 18 -7 27 -25 80 -49 86 -40 10 17 -23 50 -45 45 -19 -5 -20 -4 -8 15 7 11 16 19 20 16 17 -10 17 14 1 28 -32 29 -63 41 -75 29 -8 -8 -2 -14 21 -22 26 -9 30 -14 22 -28 -6 -11 -19 -17 -37 -16 -26 1 -28 4 -28 45 0 41 -3 45 -39 61 -39 17 -73 19 -69 4 1 -5 10 -10 19 -11 8 -1 23 -9 32 -17 10 -8 23 -12 30 -10 15 6 16 -13 2 -22 -8 -5 -7 -12 2 -23 12 -14 10 -14 -9 -3 -13 6 -23 9 -23 6 0 -4 -12 2 -27 13 -16 11 -32 20 -38 21 -5 0 -10 16 -10 35 -1 36 -7 51 -18 40z"/>
 <path d="M3334 1656 c-4 -10 -2 -22 4 -28 8 -8 13 -7 18 6 4 10 2 22 -4 28 -8 8 -13 7 -18 -6z"/>
 <path d="M1455 1650 c-4 -6 -3 -16 3 -22 6 -6 12 -6 17 2 4 6 3 16 -3 22 -6 6 -12 6 -17 -2z"/>
 <path d="M1916 1622 c-3 -3 -1 -11 5 -19 9 -10 15 -11 26 -1 11 9 13 8 11 -2 -2 -8 5 -14 15 -15 9 0 17 5 17 10 0 6 -3 10 -7 10 -5 0 -15 5 -23 10 -19 12 -37 15 -44 7z"/>
 <path d="M2076 1602 c-3 -6 1 -15 8 -21 8 -7 17 -8 20 -3 3 6 -1 15 -8 21 -8 7 -17 8 -20 3z"/>
 <path d="M2286 1522 c-3 -6 1 -15 8 -21 8 -7 17 -8 20 -3 3 6 -1 15 -8 21 -8 7 -17 8 -20 3z"/>
 <path d="M2336 1523 c-9 -9 35 -54 45 -47 5 3 5 13 -1 23 -10 20 -35 33 -44 24z"/>
 <path d="M2326 1481 c-4 -5 -2 -13 4 -16 8 -5 8 -11 0 -20 -7 -8 -7 -15 -1 -19 5 -4 12 -2 16 4 3 5 3 10 -1 10 -3 0 -1 6 5 14 8 10 8 16 -3 25 -9 8 -16 8 -20 2z"/>
 <path d="M2406 1481 c-9 -14 33 -46 45 -34 7 7 2 15 -15 26 -14 9 -27 13 -30 8z"/>
 <path d="M2375 1438 c-15 -22 -15 -24 16 -50 31 -26 34 -26 51 -11 9 8 15 20 12 25 -4 6 -10 6 -17 -1 -12 -12 -47 3 -47 20 0 6 4 8 9 4 16 -9 22 12 7 24 -11 10 -18 7 -31 -11z"/>
 <path d="M2455 1430 c-3 -5 -2 -10 2 -12 13 -7 33 -3 36 6 3 12 -31 17 -38 6z"/>
 <path d="M2506 1411 c-4 -5 -2 -12 3 -16 6 -3 8 -12 5 -20 -4 -8 -10 -13 -14 -10 -5 3 -12 1 -15 -5 -5 -8 -11 -8 -20 0 -8 7 -16 7 -19 2 -3 -6 10 -22 28 -36 19 -14 37 -22 41 -17 3 5 1 12 -4 16 -11 6 19 44 31 38 19 -10 14 17 -6 36 -14 13 -26 18 -30 12z"/>
 <path d="M2547 1340 c-30 -35 -27 -48 17 -90 l27 -24 6 22 c3 12 9 19 14 17 4 -3 13 4 20 16 10 19 7 26 -23 56 l-35 35 -26 -32z m63 -47 c0 -8 -4 -12 -9 -8 -5 3 -13 1 -16 -5 -5 -8 -11 -7 -21 1 -15 13 -20 44 -5 34 5 -3 13 -1 16 5 9 14 35 -7 35 -27z"/>
 <path d="M2641 1243 c-5 -10 -12 -17 -15 -15 -3 1 -6 -1 -6 -5 -1 -15 31 -10 40 7 13 25 -5 37 -19 13z"/>
 <path d="M2697 1214 c-3 -3 -3 -12 -1 -19 3 -8 -4 -19 -16 -25 l-22 -12 23 -24 c22 -23 50 -24 30 0 -5 6 -6 17 -2 24 6 10 12 7 23 -10 8 -13 16 -27 17 -33 4 -18 23 -35 32 -29 5 3 8 2 7 -3 -2 -4 0 -9 5 -10 20 -7 18 0 -8 27 -16 17 -25 30 -21 30 4 0 -7 20 -24 45 -33 48 -33 48 -43 39z"/>
 <path d="M2736 1082 c-3 -6 1 -15 8 -21 8 -7 17 -8 20 -3 3 6 -1 15 -8 21 -8 7 -17 8 -20 3z"/>
 <path d="M2786 1041 c-16 -17 -15 -20 10 -50 19 -23 30 -29 39 -21 9 8 14 6 19 -6 4 -11 2 -15 -8 -11 -20 8 -27 -3 -16 -24 9 -16 24 -18 69 -10 2 1 -3 8 -10 17 -7 9 -14 22 -15 29 -3 21 -36 65 -45 60 -4 -3 -6 -11 -3 -19 3 -7 -1 -13 -9 -13 -18 0 -19 34 -1 41 9 3 12 10 9 16 -9 15 -20 12 -39 -9z"/>
 <path d="M3124 999 c-3 -5 -12 -8 -19 -7 -8 2 -13 -1 -12 -7 1 -5 6 -9 10 -7 5 1 6 -2 3 -7 -4 -5 -2 -12 4 -16 6 -3 13 1 16 10 6 13 8 14 15 3 11 -16 11 -29 2 -25 -5 1 -9 -1 -10 -5 -2 -5 -12 -17 -22 -27 -11 -11 -25 -38 -31 -59 -11 -44 -8 -109 6 -104 5 2 8 10 6 19 -2 8 1 12 7 9 5 -4 12 -2 15 3 4 5 2 12 -4 16 -5 3 -10 12 -10 18 1 7 12 -1 25 -18 22 -26 25 -27 31 -11 4 10 2 27 -5 38 -9 14 -9 23 -2 32 6 7 8 16 4 19 -10 10 -32 -13 -27 -27 3 -7 -2 -13 -10 -13 -11 0 -13 5 -5 19 5 10 7 18 4 18 -4 0 7 12 23 28 23 21 29 35 28 66 -1 29 -6 40 -19 42 -9 1 -20 -2 -23 -7z"/>
 <path d="M3010 958 c-17 -10 -30 -15 -30 -13 0 3 -11 -2 -25 -11 -14 -9 -25 -13 -25 -9 0 4 -7 2 -15 -5 -20 -17 -8 -34 13 -18 15 12 16 11 3 -4 -7 -10 -10 -18 -6 -18 4 0 2 -6 -4 -14 -19 -22 5 -30 27 -8 10 10 24 16 30 14 7 -2 23 3 35 11 12 8 25 15 30 15 4 1 21 9 38 18 l31 16 -21 22 c-26 27 -42 28 -81 4z m21 -31 c-6 -8 -9 -16 -6 -19 3 -2 -2 -5 -9 -5 -11 0 -13 5 -5 19 5 10 15 18 21 18 7 0 7 -4 -1 -13z"/>
 <path d="M2876 892 c-3 -6 1 -15 8 -21 8 -7 17 -8 20 -3 3 6 -1 15 -8 21 -8 7 -17 8 -20 3z"/>
 <path d="M2689 795 c-1 -5 -1 -13 -1 -16 1 -4 -12 -6 -29 -5 -20 2 -33 -4 -40 -15 -9 -18 2 -34 15 -22 10 10 35 12 41 3 2 -4 -3 -7 -13 -6 -22 1 -32 -16 -10 -20 9 -1 24 6 34 17 9 10 20 16 25 14 17 -11 16 12 -2 35 -10 14 -19 21 -20 15z"/>
 <path d="M3087 720 c-16 -24 -17 -45 -2 -45 6 0 9 3 8 7 -1 3 5 9 13 12 12 4 15 2 11 -9 -10 -23 11 -28 23 -4 11 20 6 58 -7 46 -3 -4 -12 -2 -19 4 -9 7 -16 4 -27 -11z"/>
 <path d="M2601 711 c-7 -13 -8 -22 -1 -26 14 -9 29 2 26 20 -4 25 -14 28 -25 6z"/>
 <path d="M3065 648 c-7 -20 1 -68 11 -68 5 1 8 8 6 16 -2 8 1 14 5 13 4 -1 11 0 16 1 4 1 13 3 20 4 6 0 12 8 12 16 0 8 -6 14 -13 12 -7 -1 -22 2 -33 8 -14 8 -20 8 -24 -2z"/>
 <path d="M3090 566 c-7 -9 -9 -16 -5 -16 4 0 2 -6 -4 -14 -19 -22 2 -26 29 -6 23 17 24 20 9 35 -14 14 -17 14 -29 1z"/>
 </g>
<g id="layer5" fill="#fae95c" stroke="none">
 <path d="M1817 3323 c-11 -10 -8 -81 3 -88 8 -5 7 -11 0 -20 -7 -8 -10 -31 -9 -52 2 -21 0 -43 -3 -48 -3 -6 -6 -122 -6 -260 0 -215 2 -253 16 -268 14 -15 14 -18 2 -15 -13 2 -15 -16 -15 -112 -1 -63 -4 -121 -9 -128 -11 -18 74 -106 88 -92 6 6 6 18 0 32 -6 13 -9 54 -7 92 2 55 -1 74 -14 89 -14 14 -14 18 -3 15 22 -5 24 40 4 64 -14 15 -15 19 -4 16 13 -2 15 21 16 152 1 85 -2 160 -8 167 -5 7 -5 13 1 17 5 4 9 78 9 179 -1 161 -2 175 -25 220 -25 50 -26 51 -36 40z"/>
 <path d="M1542 2309 c-13 -5 -34 -6 -47 -3 -43 11 -34 -14 18 -48 40 -27 63 -35 97 -35 25 -1 50 4 57 9 7 6 14 5 18 -2 8 -13 72 -13 80 0 4 6 13 5 24 -2 10 -6 26 -8 35 -5 15 6 14 11 -9 41 -29 38 -67 51 -114 41 -17 -3 -32 -2 -36 4 -8 14 -62 14 -70 1 -4 -7 -11 -8 -18 -2 -7 6 -21 6 -35 1z"/>
 </g>
<g id="layer6" fill="#73fad8" stroke="none">
 <path d="M2587 3384 c-11 -12 -8 -79 5 -92 8 -8 8 -15 1 -24 -7 -8 -11 -69 -12 -148 0 -74 -3 -193 -6 -265 -3 -71 -7 -193 -10 -270 -5 -133 -10 -269 -20 -520 l-5 -111 44 -43 c33 -33 46 -40 52 -29 5 7 9 107 10 221 1 115 5 211 8 214 10 10 7 51 -4 58 -7 4 -8 11 -1 18 5 7 9 91 9 192 0 99 3 188 6 197 4 9 3 26 -3 37 -7 12 -7 22 -2 26 5 3 10 91 10 198 0 105 3 206 6 222 4 25 -2 38 -38 78 -23 27 -46 45 -50 41z"/>
 <path d="M2164 1948 c-4 -5 11 -27 32 -49 36 -37 62 -48 77 -32 9 8 185 8 194 -1 10 -10 51 -7 58 4 4 6 13 5 25 -2 13 -9 23 -9 30 -2 7 7 -1 21 -24 43 -31 30 -41 34 -99 36 -35 1 -68 4 -73 8 -17 10 -214 6 -220 -5z"/>
 </g>
<g id="layer7" fill="#fb738e" stroke="none">
 <path d="M1620 1720 c-14 -4 -35 -5 -47 -3 -15 3 -36 -7 -67 -33 -49 -41 -49 -63 1 -47 43 14 174 8 303 -13 58 -10 64 -11 83 -19 10 -4 21 -5 24 -1 3 3 11 1 18 -4 6 -5 20 -11 31 -13 10 -2 26 -7 34 -10 8 -4 24 -8 35 -10 21 -4 34 -9 144 -59 35 -16 70 -27 78 -24 8 3 12 2 8 -3 -4 -8 85 -71 100 -71 3 0 40 -26 82 -57 103 -76 212 -181 284 -273 32 -41 65 -83 74 -92 8 -10 12 -18 9 -18 -3 0 3 -12 14 -27 11 -16 22 -37 26 -48 3 -11 15 -31 25 -45 l20 -25 23 21 c13 12 29 19 35 17 7 -3 16 2 19 11 3 8 12 12 19 10 7 -3 22 3 32 13 43 42 60 22 54 -64 -1 -17 3 -34 9 -38 6 -4 5 -14 -4 -28 -9 -13 -15 -51 -15 -97 -1 -41 -3 -105 -6 -142 -2 -37 -1 -69 4 -72 4 -3 18 6 31 19 18 19 22 32 17 58 -3 19 -2 39 3 43 5 5 11 38 15 74 12 123 14 145 20 167 3 12 0 25 -5 28 -8 5 -7 11 1 21 6 8 9 28 6 46 -2 18 -1 43 4 55 8 22 -13 53 -25 35 -3 -5 -18 -9 -33 -9 -14 0 -32 -9 -40 -19 -7 -9 -16 -14 -20 -11 -3 4 -17 0 -30 -8 -13 -9 -23 -12 -23 -9 0 4 -9 -1 -20 -11 -11 -10 -23 -15 -27 -12 -3 4 -12 2 -20 -4 -10 -9 -18 -8 -32 5 -10 9 -18 22 -18 29 0 18 -84 147 -96 147 -6 0 -7 3 -4 6 4 4 -6 23 -21 43 -15 20 -36 50 -47 66 -40 64 -234 245 -262 245 -5 0 -18 9 -28 20 -10 12 -25 18 -32 16 -7 -3 -13 -1 -13 3 0 13 -89 63 -99 56 -5 -3 -13 0 -16 5 -9 15 -115 63 -123 56 -3 -3 -13 1 -23 10 -9 8 -23 17 -31 18 -7 2 -26 8 -42 15 -22 9 -32 9 -43 0 -11 -10 -13 -10 -11 1 2 8 -6 15 -17 17 -11 2 -30 9 -42 15 -17 8 -26 8 -38 -2 -13 -11 -16 -11 -13 1 4 18 -39 24 -58 8 -12 -10 -15 -10 -12 2 2 11 -12 14 -65 15 -37 1 -73 4 -80 6 -6 3 -23 1 -37 -2z"/>
 <path d="M2676 783 c-4 -4 -15 -8 -24 -8 -22 0 -56 -65 -41 -80 7 -7 16 -4 27 11 10 11 23 19 30 16 6 -2 15 3 18 12 3 9 10 14 14 11 5 -3 11 -1 14 4 7 11 -28 43 -38 34z"/>
 </g>
<g id="layer8" fill="#5b5150" stroke="none">
 <path d="M2935 3421 c-7 -13 17 -24 40 -19 9 1 16 8 16 13 0 14 -48 19 -56 6z"/>
 <path d="M2536 3411 c-4 -5 -1 -13 6 -18 8 -4 13 -26 13 -48 0 -22 5 -40 10 -40 6 0 10 25 10 55 0 43 -4 55 -17 58 -9 2 -19 -1 -22 -7z"/>
 <path d="M3105 3411 c-3 -5 -2 -12 3 -15 6 -4 213 -9 256 -7 5 1 3 8 -4 16 -10 12 -38 15 -131 15 -65 0 -120 -4 -124 -9z"/>
 <path d="M2165 3399 c-7 -11 6 -16 40 -15 17 1 30 6 30 11 0 12 -63 16 -70 4z"/>
 <path d="M2355 3400 c-3 -5 0 -13 9 -16 21 -8 71 -1 71 11 0 14 -72 19 -80 5z"/>
 <path d="M1685 3380 c-3 -5 0 -13 8 -16 23 -8 102 0 102 11 0 14 -102 19 -110 5z"/>
 <path d="M1485 3370 c-8 -13 20 -24 41 -16 20 8 9 26 -16 26 -10 0 -22 -5 -25 -10z"/>
 <path d="M3376 3372 c-3 -6 1 -15 8 -21 8 -7 17 -8 20 -3 3 6 -1 15 -8 21 -8 7 -17 8 -20 3z"/>
 <path d="M1401 3356 c-14 -17 -11 -111 4 -111 11 0 24 114 14 121 -4 2 -12 -3 -18 -10z"/>
 <path d="M1805 3327 c-9 -22 -2 -62 10 -60 6 1 11 14 13 29 4 32 -14 56 -23 31z"/>
 <path d="M3365 3311 c-7 -12 12 -24 25 -16 11 7 4 25 -10 25 -5 0 -11 -4 -15 -9z"/>
 <path d="M2585 3300 c-4 -6 -3 -16 3 -22 6 -6 12 -6 17 2 4 6 3 16 -3 22 -6 6 -12 6 -17 -2z"/>
 <path d="M3364 3266 c-8 -21 3 -49 16 -41 5 3 10 15 10 25 0 25 -18 36 -26 16z"/>
 <path d="M1859 3265 c-1 -5 0 -20 1 -33 1 -13 -4 -29 -10 -37 -13 -16 -4 -39 12 -29 6 4 8 -1 3 -16 -4 -13 -7 -53 -7 -89 l0 -66 -20 28 c-32 43 -48 21 -46 -64 1 -67 9 -91 23 -69 4 6 12 7 18 3 7 -4 17 -8 22 -8 6 0 10 -6 9 -12 -1 -7 -2 -25 -2 -40 l-2 -26 -23 21 c-36 33 -41 14 -7 -25 27 -30 43 -92 21 -78 -19 11 -21 -14 -3 -27 12 -8 17 -19 13 -31 -6 -16 -9 -16 -30 7 -13 14 -28 23 -32 20 -5 -3 -9 8 -9 24 0 18 5 29 13 28 6 0 12 4 12 9 0 6 -11 10 -25 10 -23 -1 -25 -5 -25 -45 0 -34 4 -44 15 -43 13 2 15 -19 15 -140 0 -99 3 -141 11 -140 21 4 53 -42 57 -80 6 -58 22 -49 22 13 0 30 -3 55 -7 55 -3 0 -18 11 -32 24 -22 20 -25 32 -26 90 0 36 -1 73 -2 81 0 8 0 28 0 44 l2 29 21 -27 c14 -18 20 -38 18 -66 -2 -21 0 -42 3 -45 20 -21 26 59 26 377 0 277 -3 351 -14 365 -7 10 -14 14 -15 8z m-7 -280 c2 2 5 -17 6 -43 l2 -47 -20 25 c-23 29 -29 90 -7 71 8 -6 16 -9 19 -6z"/>
 <path d="M3416 3261 c-3 -5 10 -21 28 -35 39 -29 58 -20 23 11 -31 28 -45 35 -51 24z"/>
 <path d="M1807 3244 c-3 -3 1 -17 10 -31 11 -17 19 -21 27 -13 7 7 4 16 -10 30 -11 11 -23 18 -27 14z"/>
 <path d="M2646 3231 c-4 -6 -3 -17 2 -24 5 -7 7 -20 3 -30 -6 -16 -9 -16 -30 7 -39 41 -44 18 -7 -26 19 -22 36 -49 38 -60 2 -10 8 -20 13 -21 15 -3 15 129 0 149 -9 13 -14 14 -19 5z"/>
 <path d="M1774 3197 c-8 -23 0 -127 11 -130 5 -1 12 11 15 27 4 26 6 27 19 13 7 -9 18 -14 23 -11 5 3 2 14 -8 25 -9 10 -21 16 -25 13 -5 -3 -9 11 -9 30 0 36 -16 57 -26 33z"/>
 <path d="M3366 3202 c-3 -5 8 -18 24 -30 31 -23 51 -14 22 10 -27 23 -40 29 -46 20z"/>
 <path d="M3436 3142 c-3 -5 5 -19 18 -31 13 -13 26 -18 30 -13 3 5 -5 19 -18 31 -13 13 -26 18 -30 13z"/>
 <path d="M3366 3131 c-3 -5 15 -34 41 -64 39 -47 49 -54 65 -46 22 12 18 35 -5 31 -8 -1 -33 18 -55 43 -22 25 -43 42 -46 36z"/>
 <path d="M2575 3090 c-13 -21 -1 -101 16 -110 9 -5 20 -6 24 -2 5 4 5 1 1 -6 -9 -15 22 -55 35 -46 5 3 7 10 3 15 -3 5 -10 7 -15 4 -5 -3 -6 0 -4 8 3 7 -3 22 -15 32 -14 13 -20 31 -20 61 0 42 -12 64 -25 44z"/>
 <path d="M2155 3078 c-9 -24 -2 -93 10 -93 14 0 19 85 6 98 -7 7 -12 5 -16 -5z"/>
 <path d="M2645 3040 c-4 -6 -3 -16 3 -22 6 -6 12 -6 17 2 4 6 3 16 -3 22 -6 6 -12 6 -17 -2z"/>
 <path d="M3365 3030 c-4 -7 1 -20 13 -32 26 -26 36 -9 13 21 -13 17 -20 20 -26 11z"/>
 <path d="M3466 3003 c-3 -3 -6 -17 -6 -30 0 -14 -4 -21 -10 -18 -24 15 -31 -8 -9 -31 29 -31 49 -16 49 37 0 37 -10 55 -24 42z"/>
 <path d="M2544 2976 c-10 -25 0 -71 15 -68 7 2 21 -4 31 -13 9 -8 20 -12 24 -8 4 4 4 0 1 -9 -7 -19 10 -34 20 -17 8 12 -44 71 -57 63 -4 -3 -8 8 -8 25 0 33 -17 51 -26 27z"/>
 <path d="M3367 2934 c-3 -5 7 -25 22 -43 17 -21 31 -30 35 -23 4 6 -6 25 -22 43 -16 18 -31 28 -35 23z"/>
 <path d="M2145 2838 c-9 -22 -2 -68 10 -71 14 -3 19 63 6 76 -7 7 -12 5 -16 -5z"/>
 <path d="M3436 2841 c-3 -4 3 -16 13 -25 22 -20 40 -4 21 19 -14 17 -26 19 -34 6z"/>
 <path d="M2595 2821 c-6 -11 43 -81 57 -81 19 0 13 19 -17 53 -19 22 -36 34 -40 28z"/>
 <path d="M3367 2822 c-4 -5 16 -30 42 -56 32 -32 51 -44 56 -36 9 15 -25 52 -42 45 -8 -2 -12 -1 -9 4 3 4 -5 18 -18 30 -13 13 -26 18 -29 13z"/>
 <path d="M3335 2788 c-3 -7 -4 -265 -3 -573 2 -442 6 -559 16 -558 6 2 12 -7 13 -20 3 -75 5 -93 14 -97 6 -3 12 6 13 19 l4 23 28 -27 c19 -18 30 -23 35 -15 4 7 -7 24 -29 42 -27 22 -36 37 -36 61 l0 31 29 -28 c18 -17 31 -24 35 -17 7 11 0 15 -19 11 -5 -1 -7 2 -3 6 9 8 -52 80 -64 77 -4 -2 -8 14 -8 34 l0 36 23 -21 c13 -12 27 -19 30 -15 9 9 -33 54 -44 47 -5 -3 -9 16 -9 42 0 38 3 44 13 35 8 -6 17 -8 20 -4 9 9 -13 34 -24 27 -5 -3 -9 16 -9 43 l0 48 23 -29 c14 -17 26 -25 30 -19 8 13 -31 65 -44 58 -5 -4 -9 32 -9 84 0 83 8 108 25 81 4 -6 10 -8 15 -5 5 3 1 19 -9 36 -22 35 -18 82 4 53 8 -12 14 -14 19 -6 4 7 -4 23 -17 36 -20 20 -24 31 -18 58 4 18 10 32 14 31 17 -6 17 -2 3 19 -9 12 -16 38 -16 58 l1 35 28 -33 c18 -21 31 -29 36 -23 3 6 -14 34 -39 62 -43 48 -57 81 -37 93 4 3 18 -6 31 -19 13 -13 27 -22 32 -19 6 4 -5 21 -23 40 -18 18 -36 31 -41 28 -4 -3 -8 16 -8 42 0 39 2 45 14 35 8 -7 17 -8 20 -3 7 12 -18 35 -27 25 -4 -3 -7 12 -7 35 0 40 -16 65 -25 40z"/>
 <path d="M2565 2780 c-4 -6 -3 -16 3 -22 6 -6 12 -6 17 2 4 6 3 16 -3 22 -6 6 -12 6 -17 -2z"/>
 <path d="M2535 2738 c-9 -23 -2 -83 10 -83 14 0 19 75 6 88 -7 7 -12 5 -16 -5z"/>
 <path d="M2587 2734 c-3 -3 1 -17 10 -31 11 -17 19 -21 27 -13 7 7 4 16 -10 30 -11 11 -23 18 -27 14z"/>
 <path d="M3395 2671 c-7 -12 12 -24 25 -16 11 7 4 25 -10 25 -5 0 -11 -4 -15 -9z"/>
 <path d="M2565 2650 c-7 -12 53 -85 69 -85 6 0 11 -8 11 -17 0 -10 5 -19 10 -20 13 -4 13 86 0 90 -5 1 -11 -7 -13 -18 -3 -20 -4 -20 -24 5 -11 14 -24 23 -29 20 -5 -4 -6 0 -3 8 6 18 -12 32 -21 17z"/>
 <path d="M3425 2632 c-3 -3 1 -12 9 -21 8 -9 16 -32 18 -51 5 -54 23 -37 23 22 0 46 -2 52 -23 53 -12 1 -24 -1 -27 -3z"/>
 <path d="M1405 2548 c-9 -23 -2 -83 10 -83 14 0 19 75 6 88 -7 7 -12 5 -16 -5z"/>
 <path d="M2554 2536 c-3 -9 -4 -25 -1 -37 4 -16 3 -18 -9 -8 -16 13 -28 -6 -22 -41 4 -27 22 -27 28 0 3 12 10 21 15 21 10 -1 11 2 14 37 1 13 10 8 35 -21 22 -25 37 -34 41 -27 7 12 -54 84 -63 75 -3 -3 -11 0 -18 6 -10 9 -15 7 -20 -5z"/>
 <path d="M1860 2461 c-6 -12 -6 -22 -1 -26 6 -3 15 3 21 14 6 12 6 22 1 26 -6 3 -15 -3 -21 -14z"/>
 <path d="M2135 2468 c-9 -24 -1 -143 10 -143 13 0 19 135 6 148 -7 7 -12 5 -16 -5z"/>
 <path d="M1764 2376 c-3 -8 -3 -19 0 -24 3 -4 -7 -16 -23 -25 -18 -11 -27 -24 -26 -41 0 -25 20 -38 20 -13 0 6 11 20 24 29 14 10 25 29 27 47 4 32 -12 52 -22 27z"/>
 <path d="M1405 2368 c-9 -25 2 -51 23 -54 25 -4 40 14 18 22 -9 3 -16 12 -16 19 0 19 -19 29 -25 13z"/>
 <path d="M2557 2373 c-9 -8 74 -93 85 -87 5 3 -6 22 -23 42 -36 42 -53 54 -62 45z"/>
 <path d="M3415 2351 c-4 -8 1 -21 13 -33 26 -26 38 -7 14 23 -14 16 -21 19 -27 10z"/>
 <path d="M1575 2340 c-3 -5 0 -13 8 -16 23 -8 102 0 102 11 0 14 -102 19 -110 5z"/>
 <path d="M1457 2314 c-3 -4 -2 -15 4 -26 8 -15 13 -17 24 -8 17 14 37 4 33 -15 -2 -8 2 -14 7 -13 6 0 9 4 8 9 -2 4 3 6 11 3 8 -3 17 -1 21 5 3 6 -2 14 -12 18 -10 4 -21 11 -25 17 -8 12 -61 20 -71 10z"/>
 <path d="M1675 2301 c-7 -12 12 -24 25 -16 11 7 4 25 -10 25 -5 0 -11 -4 -15 -9z"/>
 <path d="M1776 2302 c-3 -6 1 -15 8 -21 8 -7 17 -8 20 -3 3 6 -1 15 -8 21 -8 7 -17 8 -20 3z"/>
 <path d="M1595 2291 c-7 -12 12 -24 25 -16 11 7 4 25 -10 25 -5 0 -11 -4 -15 -9z"/>
 <path d="M2541 2268 c-4 -11 -11 -19 -16 -19 -6 1 -10 -16 -10 -36 0 -31 4 -37 23 -38 12 -1 33 -12 46 -24 13 -12 26 -18 30 -13 3 5 -7 21 -23 36 -21 20 -26 33 -23 57 l4 31 33 -32 c18 -17 32 -37 31 -43 0 -7 4 -13 9 -15 10 -2 16 46 8 61 -3 4 -12 2 -21 -5 -9 -7 -13 -8 -9 -2 7 13 -36 57 -59 60 -8 1 -19 -7 -23 -18z"/>
 <path d="M1565 2261 c-7 -12 12 -24 25 -16 11 7 4 25 -10 25 -5 0 -11 -4 -15 -9z"/>
 <path d="M1639 2263 c-1 -5 -1 -12 0 -16 1 -5 -7 -6 -18 -2 -30 9 -36 -14 -7 -25 33 -12 186 -8 185 5 -1 6 -5 9 -10 8 -4 -2 -14 7 -20 19 -10 19 -13 20 -23 6 -18 -24 -65 -29 -77 -7 -10 19 -28 26 -30 12z"/>
 <path d="M3425 2230 c-10 -17 22 -47 35 -34 7 7 4 16 -9 28 -14 12 -21 14 -26 6z"/>
 <path d="M3406 2151 c-8 -12 21 -34 34 -26 6 4 9 2 8 -3 -3 -9 2 -12 19 -12 3 0 -4 11 -17 25 -25 27 -35 30 -44 16z"/>
 <path d="M2125 2137 c-9 -22 -2 -62 10 -60 6 1 11 14 13 29 4 32 -14 56 -23 31z"/>
 <path d="M3387 2084 c-8 -9 32 -66 42 -60 4 3 9 -18 10 -47 2 -54 16 -82 26 -55 8 21 0 124 -9 120 -4 -2 -20 8 -35 22 -15 15 -30 23 -34 20z"/>
 <path d="M2606 2052 c-3 -5 3 -17 13 -26 11 -10 22 -13 25 -8 3 5 -3 17 -13 26 -11 10 -22 13 -25 8z"/>
 <path d="M2542 2018 c-7 -7 -12 -18 -12 -26 0 -7 -4 -11 -9 -8 -5 3 -14 -1 -20 -8 -8 -9 -8 -16 -2 -20 5 -4 13 -1 16 5 4 5 13 8 21 5 9 -4 18 4 25 21 11 30 -1 49 -19 31z"/>
 <path d="M2116 2002 c-3 -6 1 -15 8 -21 8 -7 17 -8 20 -3 3 6 -1 15 -8 21 -8 7 -17 8 -20 3z"/>
 <path d="M2269 1998 c-8 -26 -2 -50 17 -63 21 -14 24 -13 34 4 12 23 0 34 -27 25 -17 -5 -17 -5 0 6 19 12 14 30 -9 30 -8 0 -14 -1 -15 -2z"/>
 <path d="M2405 1980 c-3 -5 1 -13 9 -16 9 -3 14 -10 11 -14 -7 -12 13 -23 25 -15 7 4 8 11 1 18 -5 7 -9 17 -10 22 0 14 -28 18 -36 5z"/>
 <path d="M2215 1960 c-4 -7 5 -25 23 -42 38 -39 48 -23 12 20 -19 23 -30 30 -35 22z"/>
 <path d="M2385 1950 c-8 -13 16 -42 57 -71 45 -32 40 -5 -7 40 -27 25 -46 37 -50 31z"/>
 <path d="M2476 1921 c-9 -15 23 -36 35 -24 8 8 5 14 -9 22 -12 6 -23 7 -26 2z"/>
 <path d="M2586 1912 c-3 -6 1 -15 8 -21 8 -7 17 -8 20 -3 3 6 -1 15 -8 21 -8 7 -17 8 -20 3z"/>
 <path d="M2345 1890 c-4 -6 -3 -16 3 -22 6 -6 12 -6 17 2 4 6 3 16 -3 22 -6 6 -12 6 -17 -2z"/>
 <path d="M2562 1879 c-13 -5 -20 -13 -17 -19 8 -13 42 -13 51 1 10 17 -9 28 -34 18z"/>
 <path d="M3406 1851 c-8 -12 31 -44 44 -36 8 5 6 13 -6 26 -19 21 -30 24 -38 10z"/>
 <path d="M2895 1778 c-9 -24 -1 -103 10 -103 14 0 19 95 6 108 -7 7 -12 5 -16 -5z"/>
 <path d="M3427 1734 c-3 -3 -2 -14 3 -23 5 -9 11 -25 15 -35 4 -14 9 -16 16 -9 8 8 8 21 2 39 -9 28 -24 40 -36 28z"/>
 <path d="M1531 1716 c-16 -18 -3 -26 25 -15 14 5 29 8 33 6 5 -1 11 2 13 7 5 14 -59 17 -71 2z"/>
 <path d="M1626 1701 c-35 -36 -20 -48 20 -16 20 17 26 27 18 34 -7 8 -18 3 -38 -18z"/>
 <path d="M1735 1720 c-8 -12 20 -24 35 -15 6 3 8 11 5 16 -8 12 -32 12 -40 -1z"/>
 <path d="M1790 1704 c-12 -13 2 -29 14 -17 4 4 16 8 26 8 11 0 21 5 22 10 4 15 -50 14 -62 -1z"/>
 <path d="M1860 1695 c-7 -8 -11 -15 -9 -16 31 -6 40 -6 44 1 3 4 -1 13 -9 19 -10 9 -16 8 -26 -4z"/>
 <path d="M1924 1687 c-8 -22 5 -40 19 -29 13 10 47 12 44 3 -1 -3 1 -7 6 -8 18 -7 19 -2 2 17 -10 11 -22 17 -27 14 -5 -3 -15 0 -23 6 -12 10 -16 9 -21 -3z"/>
 <path d="M1524 1655 c-10 -8 -17 -15 -14 -15 52 -11 73 -3 47 19 -10 8 -19 7 -33 -4z"/>
 <path d="M2029 1663 c-1 -4 -2 -17 -3 -28 0 -11 -7 -20 -13 -20 -7 0 -13 -3 -13 -7 0 -5 0 -11 0 -14 0 -4 6 -1 13 5 8 6 16 8 19 6 3 -3 13 6 22 19 15 24 15 26 -4 36 -11 6 -20 7 -21 3z"/>
 <path d="M1954 1649 c-4 -7 -7 -21 -8 -32 -1 -11 -7 -22 -15 -25 -8 -3 -11 0 -7 6 12 20 -9 21 -34 2 -19 -14 -21 -20 -10 -23 8 -2 70 -22 137 -44 68 -22 125 -37 128 -34 3 3 -4 14 -17 24 -16 13 -18 17 -6 13 10 -3 20 -1 23 4 9 15 -5 31 -18 23 -7 -4 -16 -8 -22 -8 -5 -1 -8 -7 -7 -15 2 -8 0 -11 -5 -7 -4 5 -8 20 -8 33 -1 13 -5 24 -10 23 -6 0 -9 -6 -7 -14 4 -23 -13 -25 -61 -9 -37 13 -45 19 -43 38 2 13 6 28 10 34 3 6 2 13 -3 16 -5 4 -13 1 -17 -5z"/>
 <path d="M1445 1640 c-8 -13 34 -43 51 -36 16 6 16 8 0 25 -16 18 -43 24 -51 11z"/>
 <path d="M1727 1633 c-29 -15 -28 -33 3 -33 20 0 46 35 33 43 -5 2 -20 -3 -36 -10z"/>
 <path d="M1870 1635 c-6 -8 -9 -19 -5 -24 3 -6 0 -8 -8 -5 -18 7 -32 -12 -16 -21 12 -8 71 44 63 57 -8 12 -20 10 -34 -7z"/>
 <path d="M2086 1641 c-4 -5 -2 -12 3 -16 6 -3 8 -12 5 -19 -7 -17 12 -30 21 -16 4 6 2 17 -4 24 -6 7 -8 15 -5 18 3 3 1 9 -5 12 -5 4 -12 2 -15 -3z"/>
 <path d="M2135 1620 c-3 -6 1 -13 10 -16 10 -4 15 -14 12 -25 -3 -11 -1 -21 3 -24 11 -7 29 26 23 43 -7 19 -40 34 -48 22z"/>
 <path d="M1415 1611 c-7 -12 12 -24 25 -16 11 7 4 25 -10 25 -5 0 -11 -4 -15 -9z"/>
 <path d="M1775 1610 c-8 -12 20 -24 35 -15 6 3 8 11 5 16 -8 12 -32 12 -40 -1z"/>
 <path d="M1395 1580 c-4 -6 -3 -16 3 -22 6 -6 12 -6 17 2 4 6 3 16 -3 22 -6 6 -12 6 -17 -2z"/>
 <path d="M2225 1580 c-3 -5 9 -17 27 -26 18 -9 40 -25 48 -35 14 -17 18 -18 35 -5 18 13 15 16 -42 45 -35 17 -65 27 -68 21z"/>
 <path d="M2897 1564 c-17 -17 12 -24 99 -24 52 0 93 -4 92 -8 -5 -14 80 -104 87 -93 3 6 -12 30 -35 55 -38 41 -39 44 -19 49 12 3 18 10 14 16 -7 12 -227 16 -238 5z"/>
 <path d="M2219 1534 c-7 -8 -21 -13 -31 -11 -23 6 -35 -11 -13 -19 9 -4 14 -13 11 -20 -3 -8 6 -20 23 -29 32 -16 47 -9 29 13 -19 22 -18 41 3 53 11 5 17 14 14 20 -9 13 -21 11 -36 -7z"/>
 <path d="M3295 1540 c-3 -6 0 -12 7 -15 18 -7 49 0 49 10 0 13 -48 17 -56 5z"/>
 <path d="M3176 1532 c-3 -5 3 -17 13 -26 11 -10 22 -13 25 -8 3 5 -3 17 -13 26 -11 10 -22 13 -25 8z"/>
 <path d="M3256 1532 c-7 -11 58 -75 67 -66 11 12 -14 46 -29 40 -8 -3 -13 -2 -10 3 3 5 -1 14 -8 20 -8 7 -17 8 -20 3z"/>
 <path d="M2996 1521 c-9 -15 23 -36 35 -24 8 8 5 14 -9 22 -12 6 -23 7 -26 2z"/>
 <path d="M2266 1501 c-17 -19 -17 -20 4 -41 11 -11 18 -25 15 -29 -6 -11 56 -52 67 -45 4 3 5 11 1 19 -3 8 -1 15 5 15 5 0 9 -11 8 -25 -1 -30 16 -39 19 -10 1 11 4 27 6 35 3 11 -4 15 -26 14 -17 0 -29 -6 -27 -13 1 -8 -3 -8 -18 1 -23 15 -27 30 -6 22 18 -7 32 14 18 28 -6 6 -12 6 -16 -1 -4 -5 -13 -8 -22 -4 -11 4 -12 8 -3 20 20 23 -4 37 -25 14z"/>
 <path d="M2936 1512 c-3 -6 1 -15 8 -21 8 -7 17 -8 20 -3 3 6 -1 15 -8 21 -8 7 -17 8 -20 3z"/>
 <path d="M1405 1488 c-10 -24 -1 -123 10 -121 14 4 19 113 6 126 -7 7 -12 5 -16 -5z"/>
 <path d="M2345 1490 c-4 -6 -3 -16 3 -22 6 -6 12 -6 17 2 4 6 3 16 -3 22 -6 6 -12 6 -17 -2z"/>
 <path d="M2396 1491 c-4 -5 -2 -12 3 -16 6 -3 8 -12 5 -19 -7 -17 12 -30 21 -16 4 6 2 17 -4 24 -6 7 -8 15 -5 18 3 3 1 9 -5 12 -5 4 -12 2 -15 -3z"/>
 <path d="M3055 1471 c-7 -12 35 -42 47 -35 5 3 2 15 -8 25 -19 21 -30 24 -39 10z"/>
 <path d="M3399 1480 c0 -3 -2 -13 -4 -22 -4 -22 13 -34 28 -19 8 8 7 16 -6 28 -9 10 -17 15 -18 13z"/>
 <path d="M2456 1452 c-3 -6 1 -15 8 -21 8 -7 17 -8 20 -3 3 6 -1 15 -8 21 -8 7 -17 8 -20 3z"/>
 <path d="M2436 1411 c-10 -11 -23 -19 -28 -18 -20 4 -15 -44 5 -58 11 -8 23 -12 27 -10 8 5 5 49 -5 64 -3 6 0 8 8 5 18 -7 33 14 20 27 -6 6 -16 2 -27 -10z"/>
 <path d="M2511 1373 c-29 -20 -16 -38 14 -19 21 14 24 14 38 -7 11 -16 18 -19 26 -11 8 8 6 16 -9 29 -27 24 -44 26 -69 8z"/>
 <path d="M1535 1350 c-3 -5 0 -13 8 -16 23 -9 142 0 142 11 0 14 -142 19 -150 5z"/>
 <path d="M1451 1339 c-32 -13 -14 -31 22 -21 28 7 37 26 15 29 -7 1 -24 -2 -37 -8z"/>
 <path d="M1755 1340 c-3 -6 1 -13 9 -16 21 -8 49 3 41 16 -8 13 -42 13 -50 0z"/>
 <path d="M1845 1331 c-7 -12 12 -24 25 -16 11 7 4 25 -10 25 -5 0 -11 -4 -15 -9z"/>
 <path d="M1915 1321 c-7 -12 12 -24 25 -16 11 7 4 25 -10 25 -5 0 -11 -4 -15 -9z"/>
 <path d="M2515 1317 c-12 -10 -14 -16 -7 -21 15 -9 54 12 47 25 -8 12 -18 11 -40 -4z"/>
 <path d="M2466 1312 c-3 -5 3 -17 13 -26 11 -10 22 -13 25 -8 3 5 -3 17 -13 26 -11 10 -22 13 -25 8z"/>
 <path d="M2025 1300 c-7 -11 33 -29 74 -33 15 -2 32 -7 39 -11 7 -4 12 -4 12 0 0 3 6 1 14 -5 10 -8 16 -9 21 -1 3 5 4 11 1 11 -16 4 -26 7 -31 9 -3 1 -8 3 -12 5 -5 1 -19 6 -33 12 -45 18 -79 23 -85 13z"/>
 <path d="M2591 1281 c-16 -12 -20 -20 -12 -25 6 -4 9 -12 5 -17 -4 -6 -15 -2 -29 11 -13 12 -25 17 -29 12 -3 -5 5 -19 18 -31 17 -16 26 -19 31 -11 5 8 21 -2 49 -29 23 -23 45 -39 47 -36 3 3 6 -2 6 -10 0 -12 -5 -11 -23 6 -12 11 -24 16 -28 11 -3 -5 5 -19 17 -30 l23 -22 32 33 c34 35 33 54 0 36 -15 -8 -24 -7 -39 7 -25 22 -24 28 7 42 14 7 23 8 19 3 -3 -5 -1 -12 4 -15 19 -12 20 12 1 29 -18 17 -21 17 -46 0 -20 -13 -29 -14 -38 -5 -16 16 22 44 40 29 8 -6 14 -6 18 0 7 10 -10 24 -34 28 -8 1 -26 -6 -39 -16z"/>
 <path d="M2215 1241 c-7 -12 12 -24 25 -16 11 7 4 25 -10 25 -5 0 -11 -4 -15 -9z"/>
 <path d="M2265 1220 c-3 -5 23 -24 57 -41 35 -17 82 -45 105 -60 23 -16 44 -25 48 -20 3 6 -14 23 -37 39 -66 45 -166 93 -173 82z"/>
 <path d="M2704 1089 c-10 -11 -12 -19 -5 -24 11 -6 15 1 12 19 -1 5 4 5 11 0 12 -9 30 -11 43 -4 3 1 10 3 15 4 6 0 10 5 10 10 0 17 -70 13 -86 -5z"/>
 <path d="M2496 1082 c-3 -6 1 -15 8 -21 8 -7 17 -8 20 -3 3 6 -1 15 -8 21 -8 7 -17 8 -20 3z"/>
 <path d="M2794 1066 c-4 -9 -13 -15 -20 -12 -7 3 -16 1 -20 -5 -4 -7 -10 -6 -18 0 -17 14 -29 1 -15 -16 9 -10 15 -10 25 -2 9 8 15 5 24 -11 11 -20 22 -22 22 -3 -1 4 7 16 15 26 13 13 14 20 5 29 -8 8 -13 7 -18 -6z"/>
 <path d="M3080 995 c-14 -7 -25 -17 -25 -22 0 -4 -4 -13 -8 -20 -4 -6 -3 -14 3 -18 10 -6 11 -5 14 17 0 6 8 14 16 16 12 4 12 1 -1 -19 -9 -13 -20 -24 -25 -24 -17 0 -34 -16 -28 -26 3 -5 11 -6 17 -2 20 12 38 12 34 0 -3 -7 -10 -11 -16 -9 -18 4 -92 -38 -86 -48 3 -5 21 -2 40 6 30 12 34 12 29 -1 -4 -8 -3 -23 1 -32 6 -17 8 -17 21 2 8 11 18 20 22 20 4 0 6 3 5 6 -1 4 7 15 17 24 11 10 20 25 21 34 1 9 4 6 7 -7 8 -28 26 -30 30 -4 4 27 -16 74 -29 67 -6 -4 -8 -14 -5 -22 3 -8 2 -11 -4 -8 -5 3 -14 -4 -20 -16 -16 -30 -23 -17 -9 17 14 33 19 73 10 78 -4 3 -17 -2 -31 -9z"/>
 <path d="M2786 981 c-11 -13 -14 -21 -7 -26 11 -6 15 1 12 18 -1 5 3 6 8 3 5 -4 12 -2 15 3 12 19 -12 20 -28 2z"/>
 <path d="M2996 951 c-9 -9 -16 -23 -16 -29 0 -17 -17 -15 -24 4 -8 20 -25 9 -22 -14 4 -24 54 -24 67 0 6 10 7 24 3 30 -4 6 -3 8 4 4 6 -3 13 -2 16 3 12 18 -11 20 -28 2z"/>
 <path d="M2636 942 c-3 -6 1 -15 8 -21 8 -7 17 -8 20 -3 3 6 -1 15 -8 21 -8 7 -17 8 -20 3z"/>
 <path d="M2850 930 c-6 -11 -8 -26 -5 -33 4 -6 -3 0 -15 16 -33 41 -44 22 -14 -23 15 -22 31 -37 36 -34 5 4 16 -3 24 -15 9 -12 20 -19 25 -15 5 3 8 1 7 -4 -2 -6 1 -10 7 -11 5 -1 9 9 9 22 0 12 -6 21 -13 19 -8 -1 -11 6 -9 20 2 18 -1 22 -16 20 -15 -3 -17 1 -12 22 8 31 -9 43 -24 16z"/>
 <path d="M2667 904 c-3 -5 3 -20 12 -33 11 -14 21 -19 25 -13 3 5 -2 20 -12 33 -11 12 -21 18 -25 13z"/>
 <path d="M2925 881 c-3 -6 3 -15 14 -21 12 -6 22 -6 26 -1 3 6 -3 15 -14 21 -12 6 -22 6 -26 1z"/>
 <path d="M2717 823 c-4 -6 0 -18 7 -28 8 -11 16 -14 19 -8 4 6 0 18 -7 28 -8 11 -16 14 -19 8z"/>
 <path d="M2866 822 c-3 -6 1 -15 8 -21 8 -7 17 -8 20 -3 3 6 -1 15 -8 21 -8 7 -17 8 -20 3z"/>
 <path d="M2666 790 c-13 -4 -20 -17 -21 -39 -1 -17 2 -34 6 -37 7 -4 26 21 28 39 1 4 3 7 6 7 3 0 4 -2 3 -4 -2 -2 6 -13 16 -25 14 -16 22 -18 32 -10 8 6 11 15 8 21 -3 5 -12 4 -22 -4 -13 -11 -14 -10 -4 8 10 19 8 24 -11 37 -12 8 -30 11 -41 7z"/>
 <path d="M3139 783 c-1 -4 -1 -11 0 -15 0 -4 -8 -12 -19 -18 -11 -6 -18 -15 -15 -21 4 -5 14 -5 26 2 12 6 18 13 15 16 -3 4 -1 12 5 19 7 8 7 14 -1 19 -5 3 -11 3 -11 -2z"/>
 <path d="M2619 766 c-1 -3 -2 -9 -3 -13 -1 -5 -5 -13 -8 -19 -4 -6 1 -19 11 -28 11 -10 22 -13 25 -8 3 5 -1 15 -9 22 -11 9 -12 16 -5 25 8 9 8 15 0 20 -5 3 -11 4 -11 1z"/>
 <path d="M3066 711 c-4 -5 -3 -17 0 -26 5 -12 2 -16 -12 -13 -14 2 -20 -4 -22 -21 -5 -33 17 -53 24 -23 4 12 10 20 14 17 5 -3 15 8 23 25 14 28 14 31 -3 40 -11 6 -21 6 -24 1z"/>
 <path d="M2639 686 c-20 -14 -36 -32 -36 -41 0 -19 153 -100 162 -85 5 9 -36 34 -114 70 l-35 16 37 23 c20 12 35 27 31 32 -7 12 -4 13 -45 -15z"/>
 <path d="M3129 696 c-1 -3 -2 -10 -3 -16 0 -5 -10 -15 -20 -23 -14 -10 -16 -16 -7 -21 12 -8 46 13 36 22 -3 3 0 11 6 18 7 8 7 14 -1 19 -5 3 -11 4 -11 1z"/>
 <path d="M3071 616 c-9 -10 -9 -16 -1 -21 17 -10 37 12 24 25 -8 8 -15 6 -23 -4z"/>
 <path d="M3115 620 c-4 -6 -4 -14 -1 -17 3 -3 1 -12 -5 -19 -6 -8 -6 -14 0 -18 5 -4 12 -2 16 4 3 5 3 10 -1 10 -3 0 -1 7 6 15 9 11 10 19 3 26 -8 8 -13 7 -18 -1z"/>
 <path d="M3068 533 c-8 -10 -8 -17 0 -25 8 -8 13 -7 18 6 5 12 10 14 19 6 10 -8 15 -8 20 0 15 24 -37 36 -57 13z"/>
 <path d="M2825 531 c-5 -10 8 -22 42 -40 37 -19 35 6 -2 28 -19 11 -37 16 -40 12z"/>
 <path d="M3024 486 c-4 -9 -4 -20 0 -23 3 -3 1 -12 -5 -19 -7 -8 -7 -14 1 -19 5 -3 11 -4 11 -1 3 13 6 22 14 39 4 11 3 23 -3 29 -8 8 -13 7 -18 -6z"/>
 <path d="M3076 475 c-16 -13 -24 -25 -18 -29 6 -3 23 4 38 17 36 31 18 42 -20 12z"/>
 </g>
<g id="layer9" fill="#f570f5" stroke="none">
 <path d="M3377 3363 c-3 -4 -6 -78 -7 -163 -3 -195 -3 -1292 0 -1502 l2 -156 38 -37 c21 -20 40 -33 43 -28 2 4 5 100 5 213 0 174 -3 208 -16 223 -14 15 -14 18 -2 15 12 -2 15 15 17 102 0 58 4 188 7 289 5 166 4 186 -11 203 -14 15 -14 19 -3 16 16 -3 17 7 25 445 2 126 6 231 9 235 3 3 6 15 6 27 0 23 -104 133 -113 118z"/>
 <path d="M2925 1530 c-3 -4 19 -28 48 -52 45 -39 56 -44 80 -37 16 4 39 4 52 -1 28 -11 205 -8 223 4 7 4 9 13 5 19 -3 7 3 4 14 -5 19 -18 54 -24 66 -12 3 4 -10 26 -31 50 -29 34 -44 43 -69 44 -17 0 -35 -5 -38 -10 -5 -8 -11 -8 -19 -1 -12 10 -241 9 -251 -1 -3 -3 -22 -2 -41 2 -19 4 -36 4 -39 0z"/>
 </g>
<g id="layer10" fill="#5b171c" stroke="none">
 <path d="M2355 4201 c-9 -15 12 -23 53 -20 21 2 43 0 49 -4 6 -4 14 -3 18 3 6 10 5 11 -14 14 -5 0 -13 4 -17 9 -11 10 -82 9 -89 -2z"/>
 <path d="M2291 4189 c-16 -6 -21 -13 -14 -20 13 -13 67 7 58 21 -7 12 -12 12 -44 -1z"/>
 <path d="M2487 4174 c-3 -3 7 -24 22 -46 16 -23 26 -49 24 -59 -3 -9 0 -20 6 -24 16 -10 25 23 11 40 -7 8 -10 15 -6 15 9 0 -20 54 -37 68 -8 7 -16 9 -20 6z"/>
 <path d="M2232 4146 c-38 -48 -10 -92 37 -59 30 20 16 36 -15 17 -29 -20 -31 -6 -4 29 11 14 16 28 11 31 -5 4 -18 -5 -29 -18z"/>
 <path d="M2362 4158 c-7 -7 -12 -9 -12 -5 0 4 -14 0 -30 -8 -17 -9 -28 -20 -25 -25 4 -6 19 -3 38 7 39 20 90 21 113 3 21 -18 38 -59 35 -87 -1 -11 3 -24 8 -28 15 -8 25 20 16 43 -4 9 -9 25 -10 35 -2 21 -45 68 -56 62 -4 -3 -10 -1 -14 5 -9 14 -48 13 -63 -2z"/>
 <path d="M1620 4015 c-13 -16 -6 -50 9 -41 12 8 21 45 11 51 -4 3 -13 -2 -20 -10z"/>
 <path d="M1945 4020 c-3 -6 -10 -8 -15 -5 -4 3 -13 -2 -19 -9 -7 -8 -8 -17 -3 -20 6 -3 15 1 22 9 7 8 17 12 22 9 5 -3 1 -12 -8 -18 -22 -17 -6 -26 25 -15 20 8 22 11 10 26 -8 9 -13 19 -11 22 6 11 -16 12 -23 1z"/>
 <path d="M2026 4021 c-4 -5 -2 -12 4 -16 5 -3 10 -3 10 1 0 4 9 -1 19 -10 11 -10 22 -13 25 -8 3 5 -1 15 -9 22 -8 7 -15 9 -15 5 0 -4 -6 -2 -14 4 -9 8 -16 8 -20 2z"/>
 <path d="M2654 4018 c-11 -17 7 -29 23 -16 9 7 18 12 20 11 1 -2 2 0 1 4 -4 10 -38 11 -44 1z"/>
 <path d="M2943 4011 c-26 -16 -38 -34 -48 -71 -1 -3 -5 -12 -9 -22 -10 -22 -3 -84 9 -80 6 1 10 21 11 45 1 57 26 102 64 116 18 6 29 15 25 21 -9 14 -15 13 -52 -9z"/>
 <path d="M3065 4020 c-6 -10 15 -23 31 -18 5 1 19 -3 30 -10 12 -6 24 -8 28 -4 4 3 4 -1 1 -9 -5 -13 -41 -18 -52 -9 -2 2 -6 3 -10 4 -5 1 -13 5 -20 9 -6 4 -14 3 -18 -3 -3 -5 -4 -11 -1 -11 16 -4 26 -7 31 -9 3 -1 10 -4 15 -5 6 -1 11 -4 13 -5 1 -1 15 -4 30 -6 41 -4 47 23 13 53 -15 13 -31 21 -36 18 -5 -3 -11 -1 -15 5 -8 13 -32 13 -40 0z"/>
 <path d="M3274 4011 c-20 -12 -30 -26 -29 -40 2 -29 10 -34 34 -21 25 13 19 32 -7 24 -14 -5 -14 -3 2 10 22 18 41 21 31 7 -9 -15 8 -20 33 -10 13 5 20 14 17 20 -4 6 -13 8 -21 5 -8 -3 -13 0 -11 6 4 19 -17 18 -49 -1z"/>
 <path d="M3369 4023 c-5 -29 -3 -40 9 -54 7 -9 14 -27 16 -40 3 -34 18 -39 22 -7 1 16 -6 38 -17 52 -12 15 -16 27 -9 31 6 4 8 11 5 16 -7 11 -25 12 -26 2z"/>
 <path d="M3575 4020 c-3 -6 -10 -8 -15 -5 -5 3 -18 -7 -30 -22 -17 -22 -19 -29 -7 -40 11 -12 22 -10 65 13 28 15 49 31 46 36 -3 5 -12 7 -20 4 -8 -3 -13 0 -11 6 3 14 -20 22 -28 8z m-2 -36 c-27 -20 -39 -17 -18 6 10 11 22 17 27 14 5 -3 1 -12 -9 -20z"/>
 <path d="M3645 4020 c-3 -5 8 -16 24 -25 18 -9 32 -11 36 -5 3 5 -8 16 -24 25 -18 9 -32 11 -36 5z"/>
 <path d="M1185 4008 c-10 -24 -1 -123 10 -121 14 4 19 113 6 126 -7 7 -12 5 -16 -5z"/>
 <path d="M1654 4006 c-8 -21 3 -49 16 -41 5 3 10 15 10 25 0 25 -18 36 -26 16z"/>
 <path d="M2365 4010 c-7 -12 20 -24 34 -16 5 4 12 2 16 -4 4 -6 11 -8 16 -4 5 3 7 10 3 15 -3 5 -9 7 -14 4 -5 -3 -11 -1 -15 5 -8 13 -32 13 -40 0z"/>
 <path d="M2309 3992 c-29 -24 -11 -36 20 -13 14 11 19 21 13 25 -5 3 -20 -2 -33 -12z"/>
 <path d="M3407 4004 c-3 -5 3 -20 12 -33 11 -14 21 -19 25 -13 3 5 -2 20 -12 33 -11 12 -21 18 -25 13z"/>
 <path d="M2005 3990 c-3 -6 2 -13 12 -17 27 -9 64 -45 74 -72 7 -17 13 -21 20 -14 15 15 -1 42 -46 82 -38 33 -50 37 -60 21z"/>
 <path d="M2975 3981 c-7 -12 12 -24 25 -16 11 7 4 25 -10 25 -5 0 -11 -4 -15 -9z"/>
 <path d="M3656 3982 c-3 -6 0 -15 8 -21 25 -21 -1 -81 -35 -81 -29 0 -31 -16 -4 -34 19 -13 30 -14 45 -6 11 6 18 15 15 21 -4 5 -12 6 -18 2 -10 -5 -1 8 32 47 2 3 1 -3 -2 -12 -8 -24 10 -33 21 -11 12 24 10 83 -3 82 -5 0 -9 -12 -8 -26 2 -24 1 -24 -12 -7 -7 10 -11 22 -9 25 2 4 -3 12 -10 18 -8 7 -17 8 -20 3z"/>
 <path d="M1860 3948 c-11 -18 -20 -38 -20 -45 0 -20 20 -25 26 -6 3 10 11 30 19 45 20 40 -1 45 -25 6z"/>
 <path d="M2535 3968 c-9 -24 -2 -93 10 -93 14 0 19 85 6 98 -7 7 -12 5 -16 -5z"/>
 <path d="M2335 3947 c-20 -29 -18 -73 5 -125 23 -51 46 -49 24 3 -20 48 -19 111 2 119 18 7 62 -17 69 -37 22 -62 26 -70 36 -60 14 14 -10 71 -41 98 -30 27 -77 28 -95 2z"/>
 <path d="M2456 3962 c-3 -5 3 -17 13 -26 11 -10 22 -13 25 -8 3 5 -3 17 -13 26 -11 10 -22 13 -25 8z"/>
 <path d="M2644 3957 c-7 -20 -2 -47 11 -50 14 -3 19 43 6 56 -7 7 -12 6 -17 -6z"/>
 <path d="M2119 3953 c-1 -5 0 -12 2 -18 1 -5 5 -32 8 -58 7 -55 25 -63 29 -13 4 40 -34 124 -39 89z"/>
 <path d="M2275 3950 c-4 -6 -3 -16 3 -22 6 -6 12 -6 17 2 4 6 3 16 -3 22 -6 6 -12 6 -17 -2z"/>
 <path d="M2685 3948 c-9 -24 -1 -103 10 -103 14 0 19 95 6 108 -7 7 -12 5 -16 -5z"/>
 <path d="M2940 3940 c-11 -21 -5 -44 9 -35 13 7 20 44 11 50 -5 3 -14 -4 -20 -15z"/>
 <path d="M1899 3946 c-1 -3 -2 -9 -3 -13 -1 -5 -5 -14 -9 -20 -5 -7 -5 -18 -2 -23 9 -14 28 -1 21 15 -2 7 0 17 6 23 6 6 6 12 -1 16 -6 4 -12 5 -12 2z"/>
 <path d="M1604 3927 c-7 -20 -2 -47 11 -50 14 -3 19 43 6 56 -7 7 -12 6 -17 -6z"/>
 <path d="M1644 3926 c-8 -21 3 -49 16 -41 5 3 10 15 10 25 0 25 -18 36 -26 16z"/>
 <path d="M3424 3895 c-8 -20 -45 -41 -42 -23 2 8 -5 12 -17 10 -35 -5 -46 -12 -40 -22 8 -13 -8 -13 -22 1 -8 8 -17 8 -33 -1 -19 -10 -20 -23 -2 -26 4 0 15 -4 24 -8 22 -10 54 -3 51 11 -1 6 4 14 12 17 8 3 14 2 14 -2 -3 -20 4 -21 31 -7 34 17 56 50 40 60 -6 3 -13 -1 -16 -10z"/>
 <path d="M1227 3884 c-4 -4 -7 -31 -7 -59 0 -57 25 -93 55 -81 21 8 8 29 -14 23 -14 -3 -15 4 -13 51 4 51 -6 81 -21 66z"/>
 <path d="M2275 3860 c-3 -5 -3 -16 2 -22 4 -7 9 -21 10 -31 4 -26 34 -68 44 -61 5 3 -1 24 -13 47 -12 23 -21 47 -20 54 3 15 -15 26 -23 13z"/>
 <path d="M2634 3856 c-8 -21 3 -49 16 -41 5 3 10 15 10 25 0 25 -18 36 -26 16z"/>
 <path d="M3559 3865 c-1 -3 -2 -8 -3 -12 -1 -5 -7 -18 -14 -30 -8 -14 -9 -24 -2 -28 6 -3 13 1 16 9 3 9 17 16 29 16 34 0 39 15 10 34 -25 17 -34 19 -36 11z"/>
 <path d="M3521 3846 c-7 -8 -8 -17 -3 -20 6 -3 15 1 21 8 7 8 8 17 3 20 -6 3 -15 -1 -21 -8z"/>
 <path d="M1594 3837 c-7 -20 -2 -47 11 -50 14 -3 19 43 6 56 -7 7 -12 6 -17 -6z"/>
 <path d="M1654 3836 c-3 -8 -2 -21 2 -28 5 -7 9 -19 10 -26 4 -21 34 -62 46 -62 6 0 8 -3 5 -7 -4 -3 -18 4 -31 16 -14 13 -27 18 -30 13 -9 -15 52 -62 80 -62 14 0 37 12 51 26 23 23 24 27 10 41 -11 12 -19 12 -35 4 -11 -6 -28 -11 -36 -11 -18 0 -51 57 -48 82 4 22 -16 34 -24 14z"/>
 <path d="M2098 3845 c0 -6 -2 -14 -3 -20 0 -5 -9 -24 -18 -42 -10 -19 -13 -34 -7 -38 5 -3 16 8 25 25 8 16 13 30 9 30 -4 0 -1 7 6 15 10 12 10 19 2 27 -7 7 -13 8 -14 3z"/>
 <path d="M2935 3840 c-3 -5 0 -13 8 -16 23 -9 112 0 110 11 -4 14 -110 19 -118 5z"/>
 <path d="M3149 3835 c0 -5 0 -28 1 -51 1 -31 -5 -48 -25 -72 -14 -17 -32 -29 -39 -26 -17 7 -30 -12 -16 -21 6 -4 17 -1 25 5 8 7 15 9 15 5 0 -14 41 29 56 57 18 35 18 69 -1 94 -8 10 -15 15 -16 9z"/>
 <path d="M1845 3818 c-8 -20 21 -91 34 -84 5 4 4 22 -3 45 -14 47 -23 59 -31 39z"/>
 <path d="M1885 3820 c-4 -6 -1 -17 5 -25 7 -8 9 -15 6 -15 -4 0 -2 -9 4 -20 6 -11 15 -18 21 -15 5 4 4 15 -3 28 -7 12 -11 27 -10 34 3 16 -15 26 -23 13z"/>
 <path d="M2695 3820 c-3 -5 -3 -16 2 -22 4 -7 8 -20 10 -28 1 -8 14 -25 28 -37 14 -13 22 -23 16 -23 -5 0 -13 5 -16 10 -4 6 -11 7 -17 4 -6 -4 -8 -3 -5 2 3 5 -3 21 -14 34 -19 24 -20 25 -34 6 -8 -11 -15 -25 -15 -32 0 -20 20 -27 26 -10 5 13 12 11 40 -14 19 -16 45 -30 57 -30 32 0 60 23 62 50 2 25 -21 38 -38 21 -6 -6 -19 -11 -28 -11 -20 0 -58 49 -52 67 5 15 -14 26 -22 13z"/>
 <path d="M3225 3820 c-8 -12 3 -32 15 -25 6 4 19 -20 24 -47 0 -5 4 -8 9 -8 7 0 8 3 6 18 -1 4 -2 18 -2 32 -1 14 -6 25 -12 25 -5 0 -15 4 -22 8 -6 4 -14 3 -18 -3z"/>
 <path d="M2466 3808 c-3 -7 -6 -22 -8 -33 -4 -26 -35 -31 -58 -10 -11 10 -20 12 -24 6 -7 -11 40 -51 60 -51 17 0 54 48 54 71 0 22 -19 35 -24 17z"/>
 <path d="M2895 3810 c-7 -12 20 -67 49 -98 28 -31 74 -55 93 -48 19 8 7 26 -17 26 -28 0 -76 45 -94 90 -17 42 -21 46 -31 30z"/>
 <path d="M2111 3771 c-20 -39 -64 -81 -84 -81 -6 0 -2 7 9 15 21 16 16 18 -33 15 -17 -1 -41 3 -52 9 -13 8 -22 8 -26 1 -4 -6 12 -19 34 -29 23 -10 38 -21 35 -24 -15 -15 26 -17 53 -4 50 27 115 118 93 132 -5 3 -18 -12 -29 -34z"/>
 <path d="M2950 3795 c-11 -13 -10 -19 5 -35 20 -22 43 -17 25 5 -9 11 -2 14 39 17 68 4 66 22 -2 26 -39 2 -57 -1 -67 -13z"/>
 <path d="M3105 3800 c-4 -6 -3 -16 3 -22 6 -6 12 -6 17 2 4 6 3 16 -3 22 -6 6 -12 6 -17 -2z"/>
 <path d="M2524 3787 c-3 -9 -3 -20 0 -25 6 -10 -30 -46 -57 -55 -17 -7 -15 -27 3 -27 12 0 70 50 68 58 -1 4 2 15 7 25 4 11 3 23 -3 29 -8 8 -13 7 -18 -5z"/>
 <path d="M2625 3780 c-4 -6 -3 -16 3 -22 6 -6 12 -6 17 2 4 6 3 16 -3 22 -6 6 -12 6 -17 -2z"/>
 <path d="M3225 3770 c-8 -13 13 -52 25 -45 9 6 2 43 -11 50 -4 3 -10 1 -14 -5z"/>
 <path d="M3536 3771 c-3 -5 6 -26 20 -47 l26 -39 -25 23 c-14 13 -28 19 -31 14 -9 -16 52 -62 82 -62 32 0 95 36 87 50 -4 6 -17 3 -33 -7 -24 -16 -26 -16 -14 -1 8 10 9 19 3 22 -5 4 -12 2 -16 -4 -13 -22 -46 -9 -66 25 -23 38 -25 40 -33 26z"/>
 <path d="M1175 3758 c-9 -22 -2 -68 10 -71 14 -3 19 63 6 76 -7 7 -12 5 -16 -5z"/>
 <path d="M1586 3761 c-4 -6 -5 -15 -1 -20 3 -5 1 -12 -4 -15 -15 -9 -6 -61 11 -64 21 -4 50 33 46 60 -4 31 -23 20 -23 -13 0 -15 -5 -25 -11 -22 -12 4 -12 32 0 52 5 7 4 17 -2 23 -6 6 -12 6 -16 -1z"/>
 <path d="M3505 3760 c-4 -6 -3 -16 3 -22 6 -6 12 -6 17 2 4 6 3 16 -3 22 -6 6 -12 6 -17 -2z"/>
 <path d="M1305 3750 c-3 -5 -3 -11 2 -12 4 0 13 -2 18 -3 6 -1 19 -6 30 -10 11 -4 35 -14 52 -21 20 -8 35 -9 39 -3 7 11 -82 53 -95 44 -5 -3 -12 -1 -16 5 -8 13 -22 13 -30 0z"/>
 <path d="M2995 3740 c-7 -12 44 -38 70 -36 11 1 20 6 20 11 0 6 -3 9 -8 7 -4 -1 -23 4 -42 12 -19 8 -37 11 -40 6z"/>
 <path d="M2615 3730 c-4 -6 -3 -16 3 -22 6 -6 12 -6 17 2 4 6 3 16 -3 22 -6 6 -12 6 -17 -2z"/>
 <path d="M3371 3727 c-5 -5 -7 -16 -4 -23 6 -16 -13 -19 -22 -4 -4 6 -15 4 -30 -6 -53 -35 17 -48 73 -14 29 18 36 29 30 47 -4 11 -36 11 -47 0z"/>
 <path d="M1225 3720 c-3 -5 0 -13 9 -16 21 -8 61 -1 61 11 0 14 -62 19 -70 5z"/>
 <path d="M1886 3722 c-12 -20 70 -70 87 -53 7 7 2 14 -19 21 -16 6 -36 18 -45 26 -10 9 -20 11 -23 6z"/>
 <path d="M1315 3710 c-3 -5 2 -13 12 -17 10 -3 33 -12 50 -19 41 -16 54 0 16 19 -44 23 -71 29 -78 17z"/>
 <path d="M2365 3711 c-3 -6 3 -15 14 -21 12 -6 22 -6 26 -1 3 6 -3 15 -14 21 -12 6 -22 6 -26 1z"/>
 <path d="M3256 3712 c-3 -6 1 -15 8 -21 8 -7 17 -8 20 -3 3 6 -1 15 -8 21 -8 7 -17 8 -20 3z"/>
 <path d="M1457 3694 c-3 -3 6 -21 20 -39 38 -48 36 -91 -6 -126 -18 -15 -39 -25 -46 -23 -16 7 -29 -12 -15 -21 5 -3 16 -3 23 2 6 4 18 8 26 9 15 3 61 43 59 53 -1 3 2 14 6 24 5 9 5 25 1 35 -5 9 -9 23 -11 31 -4 20 -49 63 -57 55z"/>
 <path d="M2632 3689 c-24 -9 -22 -29 2 -29 17 0 40 27 29 33 -4 3 -18 1 -31 -4z"/>
 <path d="M1427 3663 c-4 -3 0 -15 8 -27 25 -34 19 -75 -12 -87 -19 -7 -23 -13 -15 -21 15 -15 60 15 68 46 8 34 -32 107 -49 89z"/>
 <path d="M1216 3643 c-13 -13 -6 -60 12 -75 33 -29 84 -50 95 -39 7 7 -4 16 -34 28 -24 10 -46 17 -49 16 -3 -1 -4 13 -2 32 4 31 -8 52 -22 38z"/>
 <path d="M1164 3615 c-4 -8 -4 -24 -1 -35 3 -11 1 -23 -4 -26 -5 -3 -7 -10 -3 -15 3 -5 10 -7 15 -3 5 3 7 9 4 14 -3 5 -1 11 5 15 13 8 13 52 0 60 -6 3 -13 -1 -16 -10z"/>
 <path d="M1195 3521 c-6 -11 13 -26 22 -17 3 3 12 1 19 -5 7 -6 18 -8 24 -4 14 9 1 28 -16 21 -7 -3 -16 -1 -19 4 -8 13 -22 13 -30 1z"/>
 <path d="M1285 3500 c-8 -13 20 -24 41 -16 20 8 9 26 -16 26 -10 0 -22 -5 -25 -10z"/>
 <path d="M2527 3444 c-11 -11 3 -24 24 -24 28 0 117 -86 121 -116 4 -30 22 -33 26 -3 3 16 -14 39 -62 85 -59 58 -91 75 -109 58z"/>
 <path d="M2880 3435 c-13 -15 -10 -50 4 -50 12 0 27 53 16 60 -4 3 -13 -2 -20 -10z"/>
 <path d="M3075 3440 c-3 -5 0 -13 8 -16 23 -8 127 0 130 11 3 14 -129 19 -138 5z"/>
 <path d="M2255 3430 c-3 -5 0 -13 8 -16 23 -8 102 0 102 11 0 14 -102 19 -110 5z"/>
 <path d="M3295 3430 c-8 -14 19 -23 50 -18 13 3 23 2 22 -1 -4 -13 134 -134 143 -125 14 15 -150 154 -182 154 -15 0 -30 -5 -33 -10z"/>
 <path d="M2155 3420 c-8 -13 20 -24 41 -16 20 8 9 26 -16 26 -10 0 -22 -5 -25 -10z"/>
 <path d="M1645 3410 c-3 -5 0 -13 8 -16 23 -8 92 0 92 11 0 14 -92 19 -100 5z"/>
 <path d="M1465 3400 c-3 -5 0 -13 9 -16 21 -8 71 -1 71 11 0 14 -72 19 -80 5z"/>
 <path d="M1380 3385 c-20 -24 -3 -35 30 -18 17 8 28 19 25 24 -9 14 -41 11 -55 -6z"/>
 <path d="M1806 3392 c-3 -6 1 -15 8 -21 8 -7 17 -8 20 -3 3 6 -1 15 -8 21 -8 7 -17 8 -20 3z"/>
 <path d="M2135 3378 c-9 -24 -2 -93 10 -93 14 0 19 85 6 98 -7 7 -12 5 -16 -5z"/>
 <path d="M1827 3349 c-13 -8 -15 -14 -7 -30 6 -11 15 -17 20 -14 5 3 19 -13 30 -35 23 -45 46 -47 27 -2 -16 34 -47 92 -50 92 -1 0 -10 -5 -20 -11z"/>
 <path d="M2865 3318 c-10 -24 -1 -153 10 -153 13 0 19 145 6 158 -7 7 -12 5 -16 -5z"/>
 <path d="M1375 3279 c-10 -26 -1 -384 10 -382 14 4 19 373 6 386 -7 7 -12 5 -16 -4z"/>
 <path d="M3495 3258 c-10 -25 -1 -203 10 -201 13 4 19 193 6 206 -7 7 -12 5 -16 -5z"/>
 <path d="M2125 3208 c-10 -24 -1 -153 10 -153 13 0 19 145 6 158 -7 7 -12 5 -16 -5z"/>
 <path d="M3416 3162 c-3 -6 1 -15 8 -21 8 -7 17 -8 20 -3 3 6 -1 15 -8 21 -8 7 -17 8 -20 3z"/>
 <path d="M1887 3124 c-4 -4 -7 -58 -7 -120 0 -66 -4 -115 -10 -119 -15 -9 -3 -24 18 -21 15 3 17 18 20 126 2 113 -4 151 -21 134z"/>
 <path d="M2675 3098 c-10 -24 -1 -178 10 -178 13 0 19 170 6 183 -7 7 -12 5 -16 -5z"/>
 <path d="M1795 2950 c-4 -6 -3 -16 3 -22 6 -6 12 -6 17 2 4 6 3 16 -3 22 -6 6 -12 6 -17 -2z"/>
 <path d="M3485 2899 c-10 -25 -1 -239 10 -242 14 -3 19 233 6 246 -7 7 -12 5 -16 -4z"/>
 <path d="M2115 2818 c-10 -25 -1 -173 10 -171 13 4 19 163 6 176 -7 7 -12 5 -16 -5z"/>
 <path d="M2668 2744 c-9 -18 -3 -234 7 -234 15 0 23 209 9 228 -6 8 -13 11 -16 6z"/>
 <path d="M1385 2609 c-10 -26 -1 -269 10 -272 14 -3 19 263 6 276 -7 7 -12 5 -16 -4z"/>
 <path d="M1795 2591 c-7 -12 12 -24 25 -16 11 7 4 25 -10 25 -5 0 -11 -4 -15 -9z"/>
 <path d="M3354 2586 c-4 -10 -2 -22 4 -28 8 -8 13 -7 18 6 4 10 2 22 -4 28 -8 8 -13 7 -18 -6z"/>
 <path d="M1897 2574 c-4 -4 -7 -38 -7 -76 0 -47 -4 -67 -12 -65 -6 1 -12 -8 -12 -20 0 -13 4 -23 9 -23 6 0 12 -29 15 -65 9 -120 25 -71 28 87 2 139 -3 180 -21 162z"/>
 <path d="M2105 2558 c-9 -24 -1 -128 10 -131 13 -3 19 123 6 136 -7 7 -12 5 -16 -5z"/>
 <path d="M2665 2450 c-4 -6 -3 -16 3 -22 6 -6 12 -6 17 2 4 6 3 16 -3 22 -6 6 -12 6 -17 -2z"/>
 <path d="M2865 2419 c-10 -28 -1 -894 10 -894 14 0 19 885 6 898 -7 7 -12 5 -16 -4z"/>
 <path d="M3475 2419 c-10 -26 -1 -249 10 -249 14 0 19 240 6 253 -7 7 -12 5 -16 -4z"/>
 <path d="M3396 2372 c-3 -6 1 -15 8 -21 8 -7 17 -8 20 -3 3 6 -1 15 -8 21 -8 7 -17 8 -20 3z"/>
 <path d="M1816 2342 c-3 -6 1 -15 8 -21 8 -7 17 -8 20 -3 3 6 -1 15 -8 21 -8 7 -17 8 -20 3z"/>
 <path d="M2096 2333 c-3 -3 -6 -86 -6 -183 0 -164 2 -179 21 -204 11 -14 25 -23 30 -20 6 4 4 13 -5 23 -13 15 -16 48 -16 199 0 164 -5 204 -24 185z"/>
 <path d="M1396 2311 c-10 -16 38 -40 57 -29 10 5 15 14 12 19 -4 5 -10 7 -15 4 -5 -3 -18 -1 -29 5 -11 6 -22 6 -25 1z"/>
 <path d="M1455 2270 c-5 -8 34 -38 93 -69 26 -14 87 -11 87 4 0 6 -20 12 -45 15 -25 3 -64 18 -87 33 -23 15 -45 22 -48 17z"/>
 <path d="M3406 2252 c-3 -6 1 -15 8 -21 8 -7 17 -8 20 -3 3 6 -1 15 -8 21 -8 7 -17 8 -20 3z"/>
 <path d="M1835 2230 c-3 -5 -3 -11 2 -11 4 -1 -5 -4 -22 -8 -48 -10 -35 -26 24 -29 58 -3 78 7 67 34 -5 13 -9 15 -18 6 -14 -14 -42 -16 -33 -3 3 5 1 12 -4 15 -5 4 -12 2 -16 -4z"/>
 <path d="M2655 2219 c-10 -26 -1 -269 10 -272 14 -3 19 263 6 276 -7 7 -12 5 -16 -4z"/>
 <path d="M3354 2176 c-4 -10 -2 -22 4 -28 8 -8 13 -7 18 6 4 10 2 22 -4 28 -8 8 -13 7 -18 -6z"/>
 <path d="M3475 1908 c-9 -24 -1 -103 10 -103 14 0 19 95 6 108 -7 7 -12 5 -16 -5z"/>
 <path d="M2156 1902 c-3 -5 8 -21 23 -36 16 -15 31 -23 35 -18 3 5 -8 21 -23 36 -16 15 -31 23 -35 18z"/>
 <path d="M2315 1850 c-3 -5 0 -13 8 -16 23 -9 177 0 180 11 3 14 -179 19 -188 5z"/>
 <path d="M2555 1841 c-3 -6 0 -14 9 -17 22 -9 93 0 95 11 2 14 -95 19 -104 6z"/>
 <path d="M1655 1760 c-3 -5 0 -13 8 -16 23 -8 92 0 92 11 0 14 -92 19 -100 5z"/>
 <path d="M1575 1750 c-4 -6 -11 -8 -16 -4 -5 3 -16 0 -24 -6 -8 -7 -15 -9 -15 -5 0 5 -9 0 -20 -10 -11 -10 -17 -22 -14 -27 3 -5 16 0 28 11 12 12 25 18 29 15 4 -4 12 -2 20 4 7 6 18 7 26 3 9 -6 10 -10 2 -15 -6 -4 -9 -12 -5 -17 4 -6 11 -6 20 2 7 6 12 15 9 19 -3 5 -1 11 5 15 6 4 8 11 5 16 -8 12 -42 12 -50 -1z"/>
 <path d="M1795 1750 c-8 -13 20 -24 40 -17 8 4 17 2 21 -4 3 -5 13 -9 22 -8 10 1 24 -1 33 -5 9 -4 27 -8 40 -10 13 -2 37 -9 53 -15 16 -6 36 -13 45 -14 9 -2 25 -8 36 -14 11 -6 23 -11 28 -12 4 0 59 -26 123 -57 76 -37 114 -60 110 -69 -6 -17 29 -49 44 -40 5 3 7 11 3 18 -3 6 10 1 30 -12 20 -12 42 -19 48 -15 7 4 9 3 5 -4 -3 -6 -2 -13 4 -17 5 -3 10 -11 10 -17 0 -6 -3 -8 -7 -5 -9 9 -34 -13 -27 -24 3 -5 11 -6 17 -2 7 4 16 8 22 8 17 0 11 39 -9 63 -11 12 -23 22 -27 22 -5 0 -41 20 -82 45 -74 45 -215 115 -239 119 -7 1 -22 7 -33 13 -11 6 -23 12 -27 12 -4 1 -23 8 -43 16 -19 9 -38 14 -42 13 -5 0 -21 4 -37 11 -16 6 -35 10 -42 7 -8 -3 -16 0 -20 5 -3 6 -15 9 -25 6 -10 -3 -22 -1 -25 4 -7 12 -41 11 -49 -1z"/>
 <path d="M1767 1724 c-3 -4 -3 -12 1 -18 3 -6 7 -15 7 -21 0 -5 5 -10 10 -10 13 0 12 48 -1 52 -6 2 -13 0 -17 -3z"/>
 <path d="M1705 1711 c-7 -12 12 -24 25 -16 11 7 4 25 -10 25 -5 0 -11 -4 -15 -9z"/>
 <path d="M1849 1716 c-5 -23 -2 -46 5 -48 12 -4 15 41 4 48 -4 3 -8 3 -9 0z"/>
 <path d="M3466 1713 c-3 -3 -6 -66 -6 -139 0 -114 -2 -133 -17 -138 -13 -5 -14 -9 -4 -19 10 -9 17 -7 32 12 17 20 19 40 19 152 0 116 -6 150 -24 132z"/>
 <path d="M1552 1677 c-21 -25 4 -42 63 -43 44 -1 58 2 65 16 11 20 2 34 -14 21 -18 -14 -91 -18 -91 -4 0 19 -11 24 -23 10z"/>
 <path d="M1407 1642 l-37 -38 0 -156 c0 -126 3 -158 15 -168 8 -7 15 -9 15 -4 1 5 1 81 0 169 l-1 160 30 29 c29 28 29 28 41 7 6 -12 15 -19 21 -16 5 4 5 14 -2 26 -6 12 -13 18 -16 15 -4 -3 -11 -1 -18 4 -8 7 -23 -2 -48 -28z"/>
 <path d="M1906 1661 c-10 -11 -13 -22 -8 -25 5 -3 17 3 26 13 10 11 13 22 8 25 -5 3 -17 -3 -26 -13z"/>
 <path d="M1735 1650 c-4 -6 -3 -16 3 -22 6 -6 12 -6 17 2 4 6 3 16 -3 22 -6 6 -12 6 -17 -2z"/>
 <path d="M1805 1640 c-4 -6 -3 -16 3 -22 6 -6 12 -6 17 2 4 6 3 16 -3 22 -6 6 -12 6 -17 -2z"/>
 <path d="M1937 1632 c-11 -12 -13 -22 -6 -35 11 -20 31 -14 23 7 -3 7 2 16 11 20 9 3 13 10 10 16 -9 14 -20 12 -38 -8z"/>
 <path d="M1984 1599 c-7 -12 7 -29 27 -32 8 -2 19 -5 24 -9 17 -10 60 11 48 23 -8 8 -17 8 -32 0 -17 -9 -22 -8 -31 9 -12 22 -25 26 -36 9z"/>
 <path d="M2170 1591 c-6 -12 -6 -22 -1 -26 6 -3 15 3 21 14 6 12 6 22 1 26 -6 3 -15 -3 -21 -14z"/>
 <path d="M2251 1556 c-7 -8 -8 -17 -3 -20 6 -3 15 1 21 8 7 8 8 17 3 20 -6 3 -15 -1 -21 -8z"/>
 <path d="M2116 1552 c-3 -5 3 -17 13 -26 11 -10 22 -13 25 -8 3 5 -3 17 -13 26 -11 10 -22 13 -25 8z"/>
 <path d="M2896 1512 c-3 -5 8 -21 23 -36 16 -15 31 -23 35 -18 3 5 -8 21 -23 36 -16 15 -31 23 -35 18z"/>
 <path d="M2316 1461 c-14 -15 -14 -20 -3 -29 19 -16 30 -3 14 16 -8 11 -8 14 0 9 6 -4 14 -3 17 2 12 19 -12 20 -28 2z"/>
 <path d="M2399 1452 c-29 -24 -11 -36 20 -13 14 11 19 21 13 25 -5 3 -20 -2 -33 -12z"/>
 <path d="M3075 1450 c-3 -5 -3 -10 2 -11 4 -1 -3 -4 -17 -8 -14 -4 -35 -2 -49 5 -14 7 -28 11 -33 8 -15 -10 14 -36 34 -31 10 3 21 1 24 -4 7 -12 71 -11 79 1 3 6 -1 13 -9 16 -9 3 -14 10 -11 14 3 5 1 11 -4 14 -5 4 -12 2 -16 -4z"/>
 <path d="M2516 1442 c-3 -6 1 -15 8 -21 8 -7 17 -8 20 -3 3 6 -1 15 -8 21 -8 7 -17 8 -20 3z"/>
 <path d="M3295 1420 c-3 -5 0 -13 8 -16 23 -8 102 0 102 11 0 14 -102 19 -110 5z"/>
 <path d="M2557 1413 c-3 -5 25 -40 62 -77 38 -38 71 -64 74 -59 3 5 -25 40 -62 77 -38 38 -71 64 -74 59z"/>
 <path d="M2551 1336 c-7 -8 -8 -17 -3 -20 6 -3 15 1 21 8 7 8 8 17 3 20 -6 3 -15 -1 -21 -8z"/>
 <path d="M1565 1320 c-3 -5 0 -13 8 -16 23 -9 112 0 110 11 -4 14 -110 19 -118 5z"/>
 <path d="M1485 1310 c-8 -12 20 -24 35 -15 6 3 8 11 5 16 -8 12 -32 12 -40 -1z"/>
 <path d="M1755 1311 c-7 -13 17 -24 40 -19 9 1 16 8 16 13 0 14 -48 19 -56 6z"/>
 <path d="M1425 1300 c-8 -12 20 -24 35 -15 6 3 8 11 5 16 -8 12 -32 12 -40 -1z"/>
 <path d="M1835 1301 c-7 -13 17 -24 40 -19 9 1 16 8 16 13 0 14 -48 19 -56 6z"/>
 <path d="M2516 1302 c-3 -6 1 -15 8 -21 8 -7 17 -8 20 -3 3 6 -1 15 -8 21 -8 7 -17 8 -20 3z"/>
 <path d="M1915 1290 c-7 -11 22 -26 32 -16 3 3 12 1 19 -5 8 -6 20 -9 29 -6 8 4 17 2 21 -4 3 -6 12 -8 20 -5 7 3 16 1 20 -5 3 -6 12 -8 19 -5 7 2 16 2 20 -2 4 -4 10 -7 13 -8 4 0 16 -4 27 -9 11 -4 41 -16 67 -26 114 -44 264 -134 312 -188 10 -11 23 -18 28 -15 13 8 -26 48 -98 100 -67 48 -259 144 -297 148 -12 1 -28 6 -35 10 -7 4 -12 4 -12 0 0 -3 -7 -1 -15 6 -8 6 -19 9 -24 6 -5 -4 -13 -1 -16 5 -4 5 -13 8 -21 5 -7 -3 -16 0 -20 5 -3 6 -15 9 -25 6 -10 -3 -22 -1 -25 4 -7 12 -31 11 -39 -1z"/>
 <path d="M2696 1262 c-3 -6 1 -15 8 -21 8 -7 17 -8 20 -3 3 6 -1 15 -8 21 -8 7 -17 8 -20 3z"/>
 <path d="M2727 1224 c-4 -4 3 -20 14 -36 12 -16 17 -27 12 -26 -4 2 -8 -1 -8 -7 0 -5 4 -9 9 -7 4 1 14 -2 20 -8 27 -21 24 5 -5 46 -32 47 -32 47 -42 38z"/>
 <path d="M2745 1096 c-11 -8 -14 -16 -8 -19 6 -4 18 0 28 7 11 8 14 16 8 19 -6 4 -18 0 -28 -7z"/>
 <path d="M2837 1063 c-4 -3 2 -18 12 -32 28 -40 33 -52 24 -50 -20 4 -22 -3 -9 -29 12 -23 21 -28 45 -27 16 1 36 7 44 13 10 8 17 8 24 1 14 -14 34 -3 27 15 -3 7 2 16 10 19 9 4 15 3 15 -1 -1 -4 0 -11 1 -17 1 -5 3 -14 4 -20 2 -21 19 -19 27 3 6 17 5 24 -6 28 -21 9 -18 22 7 30 61 19 90 36 80 46 -8 8 -117 -37 -213 -89 -4 -2 -20 21 -37 51 -32 56 -45 70 -55 59z"/>
 <path d="M3167 1043 c-4 -6 0 -18 7 -28 8 -11 16 -14 19 -8 4 6 0 18 -7 28 -8 11 -16 14 -19 8z"/>
 <path d="M2821 996 c-7 -8 -8 -17 -3 -20 6 -3 15 1 21 8 7 8 8 17 3 20 -6 3 -15 -1 -21 -8z"/>
 <path d="M3108 1003 c-7 -14 -3 -33 6 -33 12 -1 17 28 6 35 -5 3 -10 2 -12 -2z"/>
 <path d="M2576 962 c-3 -5 5 -19 18 -31 13 -13 26 -18 30 -13 3 5 -5 19 -18 31 -13 13 -26 18 -30 13z"/>
 <path d="M3138 942 c-23 -27 -29 -40 -20 -46 5 -3 18 8 30 24 23 31 14 51 -10 22z"/>
 <path d="M2949 926 c-1 -3 -2 -9 -3 -13 -1 -5 -7 -18 -14 -30 -7 -13 -8 -24 -3 -28 6 -3 15 4 21 15 6 11 8 20 4 20 -3 0 -1 6 5 14 8 10 9 16 1 21 -5 3 -11 4 -11 1z"/>
 <path d="M2885 910 c-11 -17 5 -32 21 -19 7 6 11 15 8 20 -7 12 -21 11 -29 -1z"/>
 <path d="M2627 904 c-3 -4 5 -23 19 -43 22 -33 23 -37 8 -46 -36 -22 -74 -57 -69 -65 3 -5 1 -11 -5 -15 -6 -4 -8 -11 -4 -16 3 -5 9 -7 13 -4 5 2 8 -4 7 -15 0 -11 4 -20 9 -20 15 0 13 22 -2 41 -11 14 -11 18 3 30 10 8 20 14 23 14 3 0 5 3 4 6 -1 4 11 12 28 19 16 7 32 16 35 21 3 5 -9 29 -26 54 -33 48 -33 48 -43 39z"/>
 <path d="M3176 863 c-4 -4 -13 -8 -19 -8 -7 0 -13 -4 -14 -10 -2 -5 3 -10 10 -10 6 0 14 -13 17 -28 7 -42 25 -37 28 7 3 39 -8 63 -22 49z"/>
 <path d="M3095 811 c-7 -12 12 -24 25 -16 11 7 4 25 -10 25 -5 0 -11 -4 -15 -9z"/>
 <path d="M2649 749 c-11 -23 -15 -40 -9 -44 6 -3 13 1 16 10 4 9 12 14 20 11 14 -5 37 17 27 27 -3 4 -12 2 -20 -5 -11 -8 -12 -7 -7 6 3 9 12 15 19 14 8 -2 13 1 12 7 -1 5 -10 10 -20 10 -12 1 -25 -12 -38 -36z"/>
 <path d="M3114 749 c-11 -18 6 -29 27 -18 12 6 18 13 15 17 -11 10 -36 11 -42 1z"/>
 <path d="M3067 733 c-12 -11 -8 -22 12 -33 11 -5 22 -6 25 -1 7 11 -28 43 -37 34z"/>
 <path d="M3164 727 c-7 -20 -2 -47 11 -50 14 -3 19 43 6 56 -7 7 -12 6 -17 -6z"/>
 <path d="M2560 690 c-26 -49 -11 -61 265 -211 134 -72 187 -96 209 -94 43 5 116 81 120 125 2 19 7 43 11 52 4 9 4 22 0 28 -10 16 -27 0 -22 -19 4 -17 -11 -47 -25 -49 -5 -1 -7 -5 -5 -9 1 -5 5 -7 8 -6 20 7 -9 -42 -43 -72 -30 -27 -44 -34 -61 -29 -25 7 -240 122 -360 192 -73 42 -79 47 -75 74 6 36 -7 46 -22 18z"/>
 <path d="M3154 646 c-4 -10 -2 -22 4 -28 8 -8 13 -7 18 6 4 10 2 22 -4 28 -8 8 -13 7 -18 -6z"/>
 <path d="M3091 556 c-7 -8 -8 -17 -3 -20 6 -3 15 1 21 8 7 8 8 17 3 20 -6 3 -15 -1 -21 -8z"/>
 <path d="M3056 482 c-7 -12 -1 -47 9 -47 12 0 16 43 6 50 -5 3 -12 2 -15 -3z"/>
 </g>
<g id="layer11" fill="#fcfafb" stroke="none">
 <path d="M2899 3428 c-6 -26 -7 -1501 -2 -1658 l8 -215 214 -3 c118 -1 218 1 222 5 4 5 9 422 10 928 l4 920 -185 6 c-102 4 -204 10 -228 14 -23 4 -42 5 -43 3z"/>
 <path d="M2317 3403 c-97 -3 -139 -7 -142 -16 -8 -21 -32 -701 -49 -1357 l-1 -45 130 -6 c72 -4 159 -9 195 -10 l64 -4 7 45 c11 70 44 962 44 1190 l0 205 -55 1 c-30 0 -117 -1 -193 -3z"/>
 <path d="M1490 3373 c-35 -2 -70 -9 -77 -15 -14 -11 -16 -411 -4 -823 l6 -210 180 1 180 1 6 309 c3 170 8 406 10 524 l4 215 -120 1 c-66 0 -149 -1 -185 -3z"/>
 <path d="M1474 1620 c-29 -4 -57 -11 -63 -14 -11 -7 -4 -275 8 -288 3 -4 31 0 61 8 69 18 150 18 320 -1 166 -18 219 -29 340 -67 205 -65 364 -166 483 -306 53 -63 130 -189 122 -202 -3 -4 -39 -29 -80 -55 -41 -25 -75 -48 -75 -50 0 -3 36 -22 80 -44 105 -53 245 -128 294 -159 72 -45 79 -25 91 264 4 91 4 164 -1 167 -5 3 -45 -10 -89 -28 l-80 -33 -19 31 c-180 293 -358 472 -606 606 -256 139 -557 205 -786 171z"/>
 </g>
<g id="layer12" fill="#1d2423" stroke="none">
 <path d="M344 4837 c-3 -8 -4 -47 -2 -88 l3 -74 2192 -3 2193 -2 2 -2193 3 -2192 85 0 85 0 0 2280 0 2280 -2278 3 c-1901 2 -2278 0 -2283 -11z"/>
 <path d="M2302 4187 c-30 -9 -92 -67 -92 -86 0 -5 6 -13 13 -19 9 -8 27 -1 67 24 129 81 198 44 199 -109 l1 -58 -34 35 c-45 48 -100 50 -148 7 -30 -27 -33 -34 -33 -88 1 -45 8 -70 30 -113 56 -102 142 -128 207 -62 29 28 30 33 39 168 12 189 2 234 -61 288 -27 22 -40 26 -93 25 -34 -1 -77 -6 -95 -12z m121 -255 c20 -22 33 -56 41 -112 15 -100 -50 -105 -98 -9 -25 52 -32 92 -20 123 8 22 57 20 77 -2z"/>
 <path d="M1195 4018 c-2 -7 -9 -105 -15 -218 -6 -113 -13 -219 -16 -236 -7 -37 5 -48 71 -62 141 -31 198 -26 251 20 28 24 34 37 34 69 0 74 -80 136 -213 163 l-62 13 3 117 c4 119 -3 146 -35 146 -7 0 -16 -6 -18 -12z m191 -343 c67 -33 93 -85 58 -119 -24 -24 -125 -21 -176 5 -40 21 -40 21 -34 66 3 25 6 55 6 66 0 17 5 19 48 13 26 -4 70 -18 98 -31z"/>
 <path d="M1630 4016 c-6 -9 -18 -71 -26 -138 -7 -68 -18 -139 -24 -158 -11 -38 -2 -54 26 -48 11 2 20 13 22 28 6 53 11 55 45 22 39 -38 84 -43 112 -12 14 16 16 23 7 32 -10 10 -17 10 -33 0 -55 -35 -91 36 -93 184 -1 98 -10 120 -36 90z"/>
 <path d="M1952 4023 c-53 -11 -112 -100 -112 -169 0 -76 52 -160 113 -183 60 -23 140 24 181 106 20 40 21 125 1 163 -32 62 -112 98 -183 83z m114 -77 c28 -28 34 -41 34 -78 0 -91 -68 -173 -126 -153 -50 18 -69 57 -69 142 0 70 2 76 28 99 42 36 90 33 133 -10z"/>
 <path d="M2662 4013 c-5 -10 -13 -54 -17 -98 -4 -44 -13 -114 -21 -155 -9 -50 -11 -77 -4 -84 17 -17 45 8 48 43 2 17 6 31 8 31 3 0 19 -13 36 -30 36 -36 85 -41 113 -10 26 29 7 49 -30 32 -59 -27 -90 32 -90 173 0 87 -6 115 -25 115 -5 0 -13 -8 -18 -17z"/>
 <path d="M2963 4016 c-48 -22 -73 -69 -73 -139 0 -69 20 -120 63 -165 59 -61 136 -63 187 -5 32 36 40 86 19 125 -10 19 -17 20 -110 13 l-99 -7 0 44 c0 85 44 106 151 74 48 -15 69 -8 69 21 0 37 -149 65 -207 39z m147 -249 c0 -28 -17 -47 -44 -47 -23 0 -106 47 -106 60 0 6 34 10 75 10 72 0 75 -1 75 -23z"/>
 <path d="M3295 4017 c-42 -19 -62 -44 -46 -60 9 -9 21 -7 51 11 48 27 86 18 96 -24 8 -33 -5 -57 -37 -65 -97 -27 -114 -35 -127 -62 -28 -58 32 -147 99 -147 45 0 102 41 83 60 -8 8 -20 6 -46 -10 l-35 -20 -26 20 c-30 24 -44 74 -27 95 7 8 28 15 47 15 41 0 86 22 107 52 55 78 -47 176 -139 135z"/>
 <path d="M3584 4023 c-33 -6 -71 -50 -56 -65 9 -9 21 -7 51 10 33 19 43 20 64 11 29 -13 42 -51 27 -79 -11 -20 -23 -25 -86 -35 -89 -14 -110 -92 -42 -162 39 -40 90 -45 132 -12 48 38 18 66 -31 29 -35 -25 -58 -19 -78 21 -28 54 -14 89 37 89 113 0 166 119 78 178 -32 21 -50 24 -96 15z"/>
 <path d="M2889 3434 c-23 -28 -29 -313 -23 -1114 l6 -785 51 -52 c28 -29 65 -57 82 -62 93 -29 418 -23 456 8 19 15 20 38 30 681 5 366 14 780 18 920 7 224 6 257 -8 268 -9 7 -43 40 -78 73 l-62 60 -173 9 c-248 13 -283 13 -299 -6z m309 -34 c94 0 151 -3 148 -9 -3 -5 -6 -416 -7 -914 l0 -904 -157 -6 c-86 -4 -182 -7 -213 -7 l-57 0 0 926 -1 927 67 -7 c37 -4 136 -7 220 -6z m272 -148 c0 -20 -3 -22 -14 -13 -22 19 -28 -4 -6 -24 16 -14 19 -31 19 -101 0 -46 -4 -86 -10 -90 -6 -4 -6 -11 2 -20 17 -21 2 -159 -16 -144 -8 7 -16 7 -19 2 -7 -11 18 -35 27 -26 3 4 6 -42 6 -102 l0 -109 -30 35 c-17 19 -35 34 -40 32 -6 -1 -9 125 -9 335 l1 336 44 -43 c29 -28 45 -53 45 -68z m-22 -638 c4 2 8 -14 10 -36 2 -35 1 -39 -12 -29 -22 19 -28 -4 -6 -24 11 -10 17 -22 14 -26 -3 -5 -5 -90 -5 -189 0 -99 -4 -178 -9 -175 -16 10 -20 -13 -5 -25 16 -13 21 -82 6 -78 -5 2 -9 -1 -9 -7 0 -5 3 -9 7 -8 4 1 8 -19 10 -45 2 -45 2 -46 -17 -28 -11 9 -23 13 -26 8 -3 -5 3 -17 14 -27 17 -15 20 -31 20 -98 0 -67 -2 -78 -14 -68 -8 7 -17 8 -20 3 -3 -6 1 -15 9 -22 8 -7 15 -9 16 -4 0 5 4 -2 8 -16 4 -14 5 -72 3 -128 l-4 -104 -28 27 -28 27 -1 165 c-1 162 0 165 18 149 11 -10 22 -13 25 -8 7 11 -28 45 -37 35 -4 -3 -8 56 -9 133 -4 371 -4 564 0 612 l5 53 29 -36 c16 -19 33 -33 36 -31z m-73 -1124 c38 -39 39 -40 14 -40 -14 0 -36 11 -49 25 -26 28 -50 23 -24 -6 16 -18 16 -19 -13 -19 -19 0 -39 10 -58 30 -15 16 -32 27 -37 24 -5 -4 0 -17 12 -29 l22 -23 -114 -1 -113 0 -38 34 -39 34 178 1 c98 0 180 3 183 5 13 14 41 1 76 -35z"/>
 <path d="M3396 3292 c-3 -5 3 -17 13 -26 11 -10 22 -13 25 -8 3 5 -3 17 -13 26 -11 10 -22 13 -25 8z"/>
 <path d="M3396 2992 c-3 -5 3 -17 13 -26 11 -10 22 -13 25 -8 3 5 -3 17 -13 26 -11 10 -22 13 -25 8z"/>
 <path d="M3396 2172 c-3 -6 1 -15 8 -21 8 -7 17 -8 20 -3 3 6 -1 15 -8 21 -8 7 -17 8 -20 3z"/>
 <path d="M3026 1502 c-3 -5 3 -17 13 -26 11 -10 22 -13 25 -8 3 5 -3 17 -13 26 -11 10 -22 13 -25 8z"/>
 <path d="M2262 3430 c-57 -4 -108 -12 -113 -17 -5 -5 -13 -132 -19 -283 -5 -151 -15 -399 -20 -550 -6 -151 -10 -352 -10 -446 l0 -171 56 -61 56 -62 131 -1 c73 0 172 -4 220 -7 56 -5 91 -3 96 3 5 5 11 147 15 315 3 168 9 449 13 625 5 176 8 371 8 433 l0 113 -62 60 -61 59 -104 -1 c-56 -1 -149 -5 -206 -9z m293 -172 c-3 -79 -7 -215 -10 -303 -3 -88 -8 -203 -10 -255 -2 -52 -6 -183 -10 -290 -3 -107 -8 -208 -10 -225 -3 -16 -5 -71 -6 -121 l-1 -90 -60 7 c-34 4 -117 10 -186 14 l-125 8 7 116 c3 64 8 220 11 346 3 127 11 354 17 505 7 151 13 308 13 348 l0 73 60 -5 c47 -5 268 5 308 13 4 0 5 -63 2 -141z m105 8 l0 -29 -23 21 c-13 12 -27 19 -30 15 -4 -3 -7 16 -7 43 l1 49 29 -35 c19 -21 30 -46 30 -64z m-8 -40 c3 3 5 -30 4 -73 -2 -43 -4 -106 -4 -140 -1 -35 -5 -62 -9 -60 -5 1 -8 -2 -8 -8 0 -5 3 -9 8 -7 4 1 7 -16 7 -39 0 -22 -4 -38 -9 -34 -16 9 -22 -12 -6 -25 10 -8 14 -33 14 -87 0 -61 -3 -72 -14 -63 -22 18 -26 -6 -5 -25 13 -12 20 -31 20 -57 0 -22 -4 -37 -9 -33 -15 9 -22 -12 -8 -23 8 -7 11 -32 9 -77 l-4 -67 -23 22 c-13 12 -25 17 -29 12 -3 -5 8 -22 24 -37 27 -26 29 -33 28 -101 0 -40 -3 -72 -7 -71 -3 1 -6 -3 -6 -8 0 -6 2 -9 5 -8 5 1 6 -22 1 -65 0 -7 -5 -11 -10 -7 -17 10 -21 -12 -6 -25 11 -9 15 -33 15 -88 l0 -76 -36 35 -36 34 6 205 c16 488 20 566 36 585 8 10 8 15 -1 20 -8 6 -10 53 -6 179 4 94 7 189 7 210 l0 39 23 -21 c13 -12 26 -20 29 -16z m-24 -1322 c-5 -29 -78 40 -78 74 0 26 0 26 41 -14 25 -25 40 -48 37 -60z m-217 36 c21 0 41 -6 48 -14 10 -12 17 -13 32 -3 15 10 23 7 49 -18 16 -16 28 -31 25 -33 -3 -3 -16 5 -30 18 -22 21 -30 20 -26 -2 0 -4 -35 -7 -79 -6 -44 0 -77 4 -75 8 6 10 -40 52 -48 43 -4 -3 2 -17 14 -29 l21 -22 -55 -1 c-49 0 -57 3 -88 35 l-34 35 105 -6 c58 -4 121 -6 141 -5z"/>
 <path d="M1471 3400 c-40 -5 -78 -13 -84 -19 -12 -12 -11 -523 2 -891 l6 -184 77 -52 c87 -58 117 -64 309 -64 99 0 109 2 119 21 8 14 10 169 7 527 l-4 507 -28 55 c-15 29 -37 67 -48 82 l-21 28 -130 -1 c-72 -1 -164 -5 -205 -9z m303 -297 c-4 -148 -7 -382 -8 -520 -1 -220 -3 -252 -16 -248 -25 7 -273 8 -300 1 l-25 -7 -2 418 c-2 230 -6 460 -9 511 l-6 92 28 1 c16 1 81 5 144 9 63 3 134 7 158 8 l44 2 -8 -267z m94 58 c0 -39 -3 -69 -6 -68 -4 1 -7 -2 -7 -8 0 -5 2 -9 6 -8 3 1 6 -41 7 -93 1 -57 -2 -93 -7 -89 -16 9 -22 -12 -6 -25 10 -9 14 -32 14 -82 l-1 -70 -22 21 c-12 12 -25 18 -29 15 -4 -4 -5 71 -3 167 2 96 4 225 5 288 l1 114 24 -45 c19 -36 24 -61 24 -117z m-7 -457 c3 3 6 -32 7 -76 l2 -81 -23 21 c-13 12 -26 20 -29 17 -3 -3 -5 32 -6 76 l-2 82 23 -22 c13 -11 26 -19 28 -17z m-1 -202 c0 -19 -3 -22 -13 -13 -24 19 -28 -2 -6 -25 17 -18 23 -39 26 -90 3 -58 2 -65 -11 -55 -22 19 -28 -4 -6 -24 11 -10 20 -25 20 -33 0 -11 -8 -8 -29 12 l-29 28 0 135 0 134 24 -22 c13 -12 24 -34 24 -47z m-275 -213 c5 -7 11 -7 19 1 15 11 98 11 90 -1 -2 -4 12 -19 33 -33 l38 -26 -36 0 c-20 0 -42 7 -49 15 -13 15 -35 11 -25 -5 3 -5 -8 -8 -24 -7 -16 1 -29 5 -28 9 1 3 -2 6 -8 6 -5 0 -9 -4 -7 -9 4 -17 -16 -9 -66 25 l-50 33 53 2 c30 0 57 -4 60 -10z m220 -27 c33 -38 7 -41 -42 -6 -60 44 -61 47 -19 40 23 -5 47 -18 61 -34z"/>
 <path d="M1573 1749 c-44 -9 -63 -21 -123 -76 l-70 -65 0 -158 c0 -88 4 -161 9 -164 5 -3 55 1 112 10 87 13 126 14 239 4 430 -35 737 -181 908 -432 l33 -47 -39 -20 c-44 -22 -75 -75 -76 -130 -1 -30 5 -39 39 -62 51 -34 382 -214 413 -223 18 -6 32 2 72 41 49 46 51 52 70 143 11 52 25 170 32 261 11 155 11 169 -6 194 -22 34 -37 31 -169 -34 l-98 -48 -16 31 c-37 73 -192 287 -257 355 -90 93 -155 143 -286 219 -135 79 -294 146 -417 178 -111 29 -284 40 -370 23z m-2 -52 c-6 -8 -8 -17 -4 -20 9 -9 34 13 27 24 -3 5 20 8 51 8 52 -2 55 -3 40 -19 -8 -9 -12 -20 -8 -23 7 -8 44 23 39 32 -2 3 14 7 35 9 46 3 48 -3 14 -30 -14 -11 -22 -24 -19 -30 4 -7 2 -8 -4 -4 -16 10 -222 11 -250 2 -19 -6 -16 -1 15 28 37 34 89 53 64 23z m289 -3 c0 -3 -11 -15 -25 -26 -14 -11 -23 -23 -21 -27 3 -4 -9 -5 -26 -3 l-31 5 34 28 c31 26 69 38 69 23z m109 -40 c-6 -8 -7 -14 0 -18 5 -4 12 -2 16 4 3 5 18 10 32 10 l26 0 -21 -23 c-29 -30 -17 -42 16 -17 25 20 53 26 65 13 4 -3 -2 -13 -13 -20 -11 -8 -18 -19 -14 -24 3 -5 18 0 34 11 16 11 35 17 45 14 14 -6 14 -9 -5 -29 -28 -30 -14 -39 21 -13 l29 22 50 -24 c50 -23 59 -33 40 -45 -6 -4 -8 -11 -4 -16 4 -6 11 -6 20 2 7 6 11 15 8 20 -3 5 6 4 20 -3 30 -13 33 -23 10 -32 -8 -3 -12 -10 -9 -16 4 -7 13 -7 26 0 11 6 17 15 13 21 -12 21 143 -91 203 -146 51 -46 137 -154 188 -236 6 -9 30 -45 54 -80 24 -35 44 -68 45 -74 1 -5 8 -21 15 -33 10 -18 18 -22 34 -17 12 3 27 7 34 9 7 1 16 6 20 10 13 13 75 36 83 31 4 -3 13 2 20 10 13 16 31 20 29 8 -4 -25 4 -24 25 2 l24 30 1 -63 c0 -54 -3 -68 -29 -104 l-29 -40 1 54 c3 89 1 90 -129 25 l-69 -34 -35 66 c-107 206 -381 465 -615 580 -74 36 -180 83 -194 85 -8 2 -93 28 -110 34 -8 3 -18 5 -21 4 -3 0 -25 5 -48 12 l-42 12 36 26 c32 22 40 24 75 15 29 -8 37 -14 29 -23z m-134 -64 c348 -68 690 -280 886 -550 67 -92 119 -173 119 -187 0 -5 11 -20 24 -32 28 -26 39 -24 130 21 l58 29 -6 -58 c-3 -32 -8 -119 -11 -193 -3 -74 -8 -148 -11 -163 l-6 -28 -36 22 c-50 29 -146 80 -271 143 l-104 52 35 22 c19 12 39 22 44 22 5 1 26 15 46 33 l37 32 -47 78 c-160 264 -430 429 -803 492 -138 24 -392 30 -450 12 l-47 -14 -2 111 c-1 61 -3 122 -3 136 -2 32 22 37 185 39 91 1 157 -5 233 -19z m1299 -818 c-4 -9 -6 -23 -5 -31 1 -7 -2 -10 -7 -7 -12 7 -35 -18 -25 -27 3 -4 12 -2 20 4 10 9 13 7 13 -9 0 -12 -4 -23 -10 -27 -5 -3 -6 -13 -3 -23 3 -9 3 -14 -2 -10 -4 4 -14 3 -22 -3 -25 -22 -9 114 19 151 17 24 24 28 26 15 2 -9 0 -24 -4 -33z m-448 -11 c0 -10 -16 -27 -37 -39 l-37 -21 11 29 c6 17 23 34 37 39 14 5 25 10 25 10 1 1 1 -7 1 -18z m429 -168 c-4 -15 -8 -45 -9 -66 -1 -21 -10 -45 -21 -55 -17 -16 -18 -16 -11 1 3 10 6 48 6 83 0 38 4 63 9 59 5 -3 13 0 16 6 12 18 18 1 10 -28z"/>
 </g>
<g id="layer13" fill="#b00c1b" stroke="none">
 <path d="M185 4678 c-3 -7 -4 -1034 -3 -2283 l3 -2270 2280 0 2280 0 0 2280 0 2280 -2278 3 c-1817 2 -2279 0 -2282 -10z m2282 -505 c69 -32 86 -123 64 -352 -10 -101 -26 -121 -99 -121 -39 0 -50 5 -81 38 -41 43 -61 97 -61 163 1 53 17 77 61 89 44 13 66 5 111 -38 33 -32 38 -33 44 -17 4 10 3 52 -3 93 -9 59 -17 80 -39 103 -44 46 -116 38 -193 -22 -29 -23 -41 -24 -41 -4 0 25 49 63 94 74 64 14 105 12 143 -6z m-1235 -290 l3 -126 86 -21 c108 -26 164 -62 179 -113 26 -88 -30 -129 -165 -120 -86 6 -161 26 -158 44 8 38 23 282 23 364 0 80 3 99 15 99 12 0 15 -23 17 -127z m423 25 c0 -77 5 -111 17 -134 27 -50 45 -60 81 -46 37 14 44 10 22 -12 -28 -27 -64 -20 -101 21 -38 41 -51 37 -56 -16 -2 -19 -9 -37 -17 -39 -11 -4 -12 2 -7 24 3 16 14 91 23 167 20 166 38 182 38 35z m431 71 c42 -40 57 -77 51 -130 -16 -130 -113 -203 -206 -154 -67 34 -96 186 -48 256 31 47 62 61 125 56 38 -3 59 -10 78 -28z m606 -78 c3 -91 7 -115 24 -137 30 -41 50 -51 74 -36 25 15 30 15 30 -2 0 -8 -7 -17 -16 -20 -33 -13 -58 -5 -90 30 -19 19 -38 33 -43 30 -5 -4 -12 -24 -16 -46 -4 -22 -11 -40 -17 -40 -7 0 -8 14 -4 38 7 40 35 259 36 280 0 6 4 12 9 12 5 0 10 -49 13 -109z m433 95 c35 -15 47 -36 22 -36 -7 0 -35 7 -61 16 -93 32 -149 -3 -150 -95 l-1 -46 107 -3 c105 -3 108 -3 114 -27 8 -32 -1 -66 -24 -95 -26 -33 -105 -38 -149 -11 -65 41 -100 164 -69 245 9 24 27 48 39 54 32 16 132 14 172 -2z m283 -6 c26 -25 30 -90 7 -114 -17 -16 -77 -36 -110 -36 -51 0 -62 -69 -19 -119 28 -34 64 -40 84 -16 14 16 30 20 30 7 0 -12 -46 -32 -73 -32 -68 1 -118 120 -64 154 12 8 42 17 66 21 84 14 109 67 58 123 -26 27 -50 28 -93 1 -26 -16 -34 -17 -34 -6 0 37 112 50 148 17z m276 -1 c19 -15 26 -30 26 -55 0 -50 -34 -80 -99 -89 -85 -11 -101 -58 -44 -125 27 -33 48 -37 77 -15 22 17 36 19 36 7 0 -13 -47 -32 -76 -32 -39 0 -84 53 -84 99 0 51 8 59 70 72 93 19 127 74 78 126 -26 28 -54 29 -93 3 -36 -24 -46 -25 -38 -4 14 37 106 45 147 13z m-1057 -613 l56 -55 -7 -313 c-3 -172 -8 -455 -11 -628 -3 -173 -8 -366 -11 -428 l-6 -113 -97 5 c-53 3 -153 9 -223 12 l-127 6 -47 56 -46 57 5 220 c14 571 39 1201 49 1210 3 4 89 10 190 14 100 4 191 9 201 9 9 1 43 -22 74 -52z m620 47 l113 -6 71 -66 71 -66 -11 -400 c-6 -220 -14 -629 -17 -910 -3 -280 -7 -517 -10 -526 -6 -22 -65 -29 -248 -29 -208 0 -216 2 -281 66 l-54 54 -1 859 c0 472 3 897 6 945 l7 86 121 0 c67 0 172 -3 233 -7z m-1425 -56 c9 -12 28 -44 41 -72 l24 -50 6 -480 c3 -264 3 -499 0 -522 l-6 -42 -161 6 c-153 5 -163 7 -211 34 -27 16 -63 39 -80 53 l-30 24 -9 527 c-4 289 -6 528 -3 531 9 9 262 22 337 18 62 -4 78 -9 92 -27z m-23 -1627 c276 -36 632 -209 821 -399 72 -72 225 -283 270 -370 11 -23 23 -41 26 -41 2 0 52 23 109 51 59 29 114 49 127 47 23 -3 23 -3 22 -158 -1 -110 -8 -190 -23 -275 -21 -116 -23 -121 -61 -158 -21 -20 -49 -37 -60 -37 -18 0 -273 132 -418 216 -42 25 -46 39 -23 99 14 37 28 55 55 71 19 11 39 23 42 27 11 11 -60 110 -122 172 -105 106 -230 184 -383 242 -204 77 -531 113 -718 79 l-73 -13 0 157 0 158 63 55 c89 78 180 98 346 77z"/>
 <path d="M2352 3954 c-32 -22 -30 -87 6 -155 33 -64 69 -83 102 -54 39 36 18 147 -37 195 -39 35 -41 35 -71 14z"/>
 <path d="M1227 3713 c-4 -3 -7 -37 -7 -75 l0 -69 56 -26 c131 -60 247 12 169 106 -41 47 -191 92 -218 64z"/>
 <path d="M1953 3986 c-59 -26 -85 -104 -63 -186 23 -85 99 -126 158 -84 34 23 65 93 66 146 1 43 -3 52 -39 87 -47 47 -78 56 -122 37z"/>
 <path d="M3020 3803 c-30 -2 -59 -8 -64 -13 -14 -14 22 -50 72 -72 40 -18 45 -18 67 -4 13 9 26 24 30 35 8 27 -11 61 -33 59 -9 -1 -42 -3 -72 -5z"/>
 </g>

</svg>